{
.appVersion = "1209";
DisplayStrings = (
"the quick brown fox jumps over the lazy dog \012"
);
date = "2019-02-06 17:06:37 +0000";
familyName = Sniglet;
featurePrefixes = (
{
automatic = 1;
code = "languagesystem DFLT dflt;\012";
name = Languagesystems;
}
);
features = (
{
automatic = 1;
code = "feature sups;\012feature ordn;\012";
name = aalt;
},
{
automatic = 1;
code = "sub one by onesuperior;\012sub two by twosuperior;\012sub three by threesuperior;\012";
name = sups;
},
{
automatic = 1;
code = "sub [zero one two three four five six seven eight nine] [A a]' by ordfeminine;\012";
name = ordn;
}
);
fontMaster = (
{
ascender = 750;
capHeight = 700;
descender = -250;
id = master01;
weightValue = 400;
widthValue = 5;
xHeight = 500;
}
);
glyphs = (
{
glyphname = A;
lastChange = "2019-01-03 12:27:12 +0000";
layers = (
{
layerId = master01;
paths = (
{
closed = 1;
nodes = (
"116 9 OFFCURVE",
"191 -20 OFFCURVE",
"253 20 CURVE SMOOTH",
"337 75 OFFCURVE",
"323 186 OFFCURVE",
"323 175 CURVE",
"361 175 LINE",
"361 186 OFFCURVE",
"357 75 OFFCURVE",
"441 20 CURVE SMOOTH",
"503 -20 OFFCURVE",
"568 9 OFFCURVE",
"568 9 CURVE",
"642 37 OFFCURVE",
"651 133 OFFCURVE",
"651 176 CURVE SMOOTH",
"651 343 OFFCURVE",
"601 481 OFFCURVE",
"527 598 CURVE SMOOTH",
"447 725 OFFCURVE",
"348 722 OFFCURVE",
"342 722 CURVE SMOOTH",
"336 722 OFFCURVE",
"237 725 OFFCURVE",
"157 598 CURVE SMOOTH",
"86 485 OFFCURVE",
"33 346 OFFCURVE",
"33 178 CURVE SMOOTH",
"33 135 OFFCURVE",
"42 38 OFFCURVE",
"116 9 CURVE"
);
},
{
closed = 1;
nodes = (
"319 290 OFFCURVE",
"297 312 OFFCURVE",
"297 339 CURVE",
"297 366 OFFCURVE",
"319 389 OFFCURVE",
"346 389 CURVE",
"373 389 OFFCURVE",
"396 366 OFFCURVE",
"396 339 CURVE",
"396 312 OFFCURVE",
"373 290 OFFCURVE",
"346 290 CURVE"
);
}
);
width = 684;
},
{
associatedMasterId = master01;
layerId = "CFD64E27-D445-4B65-9650-C16AE18BAA45";
name = "Dec 26 18, 00:18";
paths = (
{
closed = 1;
nodes = (
"728 46 OFFCURVE",
"712 198 OFFCURVE",
"712 198 CURVE",
"705 388 OFFCURVE",
"635 514 OFFCURVE",
"577 598 CURVE SMOOTH",
"489 725 OFFCURVE",
"380 722 OFFCURVE",
"373 722 CURVE SMOOTH",
"366 722 OFFCURVE",
"257 725 OFFCURVE",
"170 598 CURVE SMOOTH",
"111 514 OFFCURVE",
"41 388 OFFCURVE",
"34 198 CURVE",
"34 198 OFFCURVE",
"19 46 OFFCURVE",
"124 9 CURVE",
"124 9 OFFCURVE",
"207 -20 OFFCURVE",
"275 20 CURVE SMOOTH",
"354 67 OFFCURVE",
"371 156 OFFCURVE",
"373 173 CURVE",
"375 156 OFFCURVE",
"392 67 OFFCURVE",
"471 20 CURVE SMOOTH",
"539 -20 OFFCURVE",
"622 9 OFFCURVE",
"622 9 CURVE"
);
},
{
closed = 1;
nodes = (
"402 369 OFFCURVE",
"416 348 OFFCURVE",
"416 327 CURVE SMOOTH",
"416 304 OFFCURVE",
"399 290 OFFCURVE",
"377 290 CURVE SMOOTH",
"355 290 OFFCURVE",
"339 299 OFFCURVE",
"337 327 CURVE SMOOTH",
"335 348 OFFCURVE",
"354 369 OFFCURVE",
"377 369 CURVE SMOOTH"
);
}
);
width = 746;
},
{
associatedMasterId = master01;
layerId = "2AF573F2-B5FB-456D-9CB1-A114B0E8B775";
name = "Dec 26 18, 00:25";
paths = (
{
closed = 1;
nodes = (
"712 198 OFFCURVE",
"712 198 CURVE",
"705 388 OFFCURVE",
"635 514 OFFCURVE",
"577 598 CURVE SMOOTH",
"489 725 OFFCURVE",
"380 722 OFFCURVE",
"373 722 CURVE SMOOTH",
"366 722 OFFCURVE",
"257 725 OFFCURVE",
"170 598 CURVE SMOOTH",
"111 514 OFFCURVE",
"41 388 OFFCURVE",
"34 198 CURVE",
"34 198 OFFCURVE",
"19 46 OFFCURVE",
"124 9 CURVE",
"124 9 OFFCURVE",
"207 -20 OFFCURVE",
"275 20 CURVE SMOOTH",
"367 75 OFFCURVE",
"365 186 OFFCURVE",
"363 175 CURVE",
"383 175 LINE",
"381 186 OFFCURVE",
"379 75 OFFCURVE",
"471 20 CURVE SMOOTH",
"539 -20 OFFCURVE",
"622 9 OFFCURVE",
"622 9 CURVE",
"728 46 OFFCURVE"
);
},
{
closed = 1;
nodes = (
"426 363 OFFCURVE",
"426 336 CURVE SMOOTH",
"426 308 OFFCURVE",
"405 290 OFFCURVE",
"377 290 CURVE SMOOTH",
"350 290 OFFCURVE",
"330 301 OFFCURVE",
"327 336 CURVE SMOOTH",
"325 363 OFFCURVE",
"348 389 OFFCURVE",
"377 389 CURVE SMOOTH",
"408 389 OFFCURVE"
);
}
);
width = 746;
}
);
unicode = 0041;
},
{
glyphname = Adieresis;
lastChange = "2019-01-03 19:42:13 +0000";
layers = (
{
components = (
{
name = A;
}
);
layerId = master01;
paths = (
{
closed = 1;
nodes = (
"483 745 OFFCURVE",
"510 780 OFFCURVE",
"510 823 CURVE SMOOTH",
"510 865 OFFCURVE",
"483 900 OFFCURVE",
"433 900 CURVE SMOOTH",
"383 900 OFFCURVE",
"356 865 OFFCURVE",
"356 823 CURVE SMOOTH",
"356 780 OFFCURVE",
"383 745 OFFCURVE",
"433 745 CURVE SMOOTH"
);
},
{
closed = 1;
nodes = (
"300 745 OFFCURVE",
"327 780 OFFCURVE",
"327 823 CURVE SMOOTH",
"327 865 OFFCURVE",
"300 900 OFFCURVE",
"250 900 CURVE SMOOTH",
"200 900 OFFCURVE",
"173 865 OFFCURVE",
"173 823 CURVE SMOOTH",
"173 780 OFFCURVE",
"200 745 OFFCURVE",
"250 745 CURVE SMOOTH"
);
}
);
width = 684;
}
);
unicode = 00C4;
},
{
glyphname = B;
lastChange = "2019-01-03 11:38:59 +0000";
layers = (
{
layerId = master01;
paths = (
{
closed = 1;
nodes = (
"342 0 OFFCURVE",
"567 7 OFFCURVE",
"567 229 CURVE SMOOTH",
"567 242 OFFCURVE",
"567 363 OFFCURVE",
"412 374 CURVE",
"424 349 LINE",
"456 367 OFFCURVE",
"554 416 OFFCURVE",
"554 524 CURVE SMOOTH",
"554 638 OFFCURVE",
"467 716 OFFCURVE",
"309 716 CURVE SMOOTH",
"248 716 OFFCURVE",
"122 699 OFFCURVE",
"74 563 CURVE",
"74 563 OFFCURVE",
"37 475 OFFCURVE",
"37 337 CURVE SMOOTH",
"37 269 OFFCURVE",
"45 185 OFFCURVE",
"81 117 CURVE",
"81 117 OFFCURVE",
"137 -13 OFFCURVE",
"342 0 CURVE"
);
},
{
closed = 1;
nodes = (
"293 185 OFFCURVE",
"271 207 OFFCURVE",
"271 234 CURVE",
"271 261 OFFCURVE",
"293 284 OFFCURVE",
"320 284 CURVE",
"347 284 OFFCURVE",
"370 261 OFFCURVE",
"370 234 CURVE",
"370 207 OFFCURVE",
"347 185 OFFCURVE",
"320 185 CURVE"
);
},
{
closed = 1;
nodes = (
"284 425 OFFCURVE",
"262 447 OFFCURVE",
"262 474 CURVE",
"262 501 OFFCURVE",
"284 524 OFFCURVE",
"311 524 CURVE",
"338 524 OFFCURVE",
"361 501 OFFCURVE",
"361 474 CURVE",
"361 447 OFFCURVE",
"338 425 OFFCURVE",
"311 425 CURVE"
);
}
);
width = 601;
},
{
associatedMasterId = master01;
layerId = "A0454E4F-972B-41C8-B022-0F52F62C95E2";
name = "Dec 26 18, 17:29";
paths = (
{
closed = 1;
nodes = (
"148 745 OFFCURVE",
"77 563 CURVE",
"77 563 OFFCURVE",
"37 475 OFFCURVE",
"37 337 CURVE SMOOTH",
"37 269 OFFCURVE",
"45 185 OFFCURVE",
"85 117 CURVE",
"85 117 OFFCURVE",
"147 -13 OFFCURVE",
"372 0 CURVE",
"372 0 OFFCURVE",
"649 9 OFFCURVE",
"636 229 CURVE",
"636 229 OFFCURVE",
"636 340 OFFCURVE",
"514 377 CURVE",
"514 377 OFFCURVE",
"638 432 OFFCURVE",
"598 577 CURVE",
"598 577 OFFCURVE",
"562 707 OFFCURVE",
"373 714 CURVE",
"373 714 OFFCURVE"
);
},
{
closed = 1;
nodes = (
"378 496 OFFCURVE",
"378 476 CURVE SMOOTH",
"378 455 OFFCURVE",
"364 433 OFFCURVE",
"338 433 CURVE SMOOTH",
"308 433 OFFCURVE",
"298 455 OFFCURVE",
"298 476 CURVE SMOOTH",
"298 498 OFFCURVE",
"316 514 OFFCURVE",
"338 514 CURVE SMOOTH",
"364 514 OFFCURVE"
);
},
{
closed = 1;
nodes = (
"386 253 OFFCURVE",
"386 232 CURVE SMOOTH",
"386 209 OFFCURVE",
"369 195 OFFCURVE",
"347 195 CURVE SMOOTH",
"325 195 OFFCURVE",
"309 204 OFFCURVE",
"307 232 CURVE SMOOTH",
"305 253 OFFCURVE",
"324 274 OFFCURVE",
"347 274 CURVE SMOOTH",
"372 274 OFFCURVE"
);
}
);
width = 668;
},
{
associatedMasterId = master01;
layerId = "D3C2214C-ADE7-49F4-AF57-04709D70A661";
name = "Jan 3 19, 13:36";
paths = (
{
closed = 1;
nodes = (
"343 714 OFFCURVE",
"138 745 OFFCURVE",
"74 563 CURVE",
"74 563 OFFCURVE",
"37 475 OFFCURVE",
"37 337 CURVE SMOOTH",
"37 269 OFFCURVE",
"45 185 OFFCURVE",
"81 117 CURVE",
"81 117 OFFCURVE",
"137 -13 OFFCURVE",
"342 0 CURVE",
"342 0 OFFCURVE",
"594 9 OFFCURVE",
"567 229 CURVE",
"567 229 OFFCURVE",
"567 363 OFFCURVE",
"412 374 CURVE",
"424 349 LINE",
"461 370 OFFCURVE",
"585 431 OFFCURVE",
"547 577 CURVE",
"547 577 OFFCURVE",
"515 707 OFFCURVE",
"343 714 CURVE"
);
},
{
closed = 1;
nodes = (
"370 207 OFFCURVE",
"347 185 OFFCURVE",
"320 185 CURVE",
"293 185 OFFCURVE",
"271 207 OFFCURVE",
"271 234 CURVE",
"271 261 OFFCURVE",
"293 284 OFFCURVE",
"320 284 CURVE",
"347 284 OFFCURVE",
"370 261 OFFCURVE",
"370 234 CURVE"
);
},
{
closed = 1;
nodes = (
"361 447 OFFCURVE",
"338 425 OFFCURVE",
"311 425 CURVE",
"284 425 OFFCURVE",
"262 447 OFFCURVE",
"262 474 CURVE",
"262 501 OFFCURVE",
"284 524 OFFCURVE",
"311 524 CURVE",
"338 524 OFFCURVE",
"361 501 OFFCURVE",
"361 474 CURVE"
);
}
);
width = 601;
},
{
associatedMasterId = master01;
layerId = "DFCCA19C-3ABF-4DEB-B72A-80CA8F963AEE";
name = "Jan 3 19, 13:37";
paths = (
{
closed = 1;
nodes = (
"342 0 OFFCURVE",
"567 7 OFFCURVE",
"567 229 CURVE SMOOTH",
"567 242 OFFCURVE",
"567 363 OFFCURVE",
"412 374 CURVE",
"424 349 LINE",
"456 367 OFFCURVE",
"554 416 OFFCURVE",
"554 524 CURVE SMOOTH",
"554 638 OFFCURVE",
"467 716 OFFCURVE",
"309 716 CURVE SMOOTH",
"248 716 OFFCURVE",
"122 699 OFFCURVE",
"74 563 CURVE",
"74 563 OFFCURVE",
"37 475 OFFCURVE",
"37 337 CURVE SMOOTH",
"37 269 OFFCURVE",
"45 185 OFFCURVE",
"81 117 CURVE",
"81 117 OFFCURVE",
"137 -13 OFFCURVE",
"342 0 CURVE"
);
},
{
closed = 1;
nodes = (
"293 185 OFFCURVE",
"271 207 OFFCURVE",
"271 234 CURVE",
"271 261 OFFCURVE",
"293 284 OFFCURVE",
"320 284 CURVE",
"347 284 OFFCURVE",
"370 261 OFFCURVE",
"370 234 CURVE",
"370 207 OFFCURVE",
"347 185 OFFCURVE",
"320 185 CURVE"
);
},
{
closed = 1;
nodes = (
"284 425 OFFCURVE",
"262 447 OFFCURVE",
"262 474 CURVE",
"262 501 OFFCURVE",
"284 524 OFFCURVE",
"311 524 CURVE",
"338 524 OFFCURVE",
"361 501 OFFCURVE",
"361 474 CURVE",
"361 447 OFFCURVE",
"338 425 OFFCURVE",
"311 425 CURVE"
);
}
);
width = 601;
},
{
associatedMasterId = master01;
layerId = "B97EAEE2-E4DE-45F3-B9FF-EFCE94F7E433";
name = "Jan 3 19, 13:38";
paths = (
{
closed = 1;
nodes = (
"449 371 OFFCURVE",
"554 416 OFFCURVE",
"554 524 CURVE SMOOTH",
"554 638 OFFCURVE",
"467 716 OFFCURVE",
"309 716 CURVE SMOOTH",
"248 716 OFFCURVE",
"122 699 OFFCURVE",
"74 563 CURVE",
"74 563 OFFCURVE",
"37 475 OFFCURVE",
"37 337 CURVE SMOOTH",
"37 269 OFFCURVE",
"45 185 OFFCURVE",
"81 117 CURVE",
"81 117 OFFCURVE",
"137 -13 OFFCURVE",
"342 0 CURVE",
"342 0 OFFCURVE",
"567 7 OFFCURVE",
"567 229 CURVE SMOOTH",
"567 242 OFFCURVE",
"567 350 OFFCURVE",
"412 361 CURVE",
"412 371 LINE"
);
},
{
closed = 1;
nodes = (
"293 185 OFFCURVE",
"271 207 OFFCURVE",
"271 234 CURVE",
"271 261 OFFCURVE",
"293 284 OFFCURVE",
"320 284 CURVE",
"347 284 OFFCURVE",
"370 261 OFFCURVE",
"370 234 CURVE",
"370 207 OFFCURVE",
"347 185 OFFCURVE",
"320 185 CURVE"
);
},
{
closed = 1;
nodes = (
"284 425 OFFCURVE",
"262 447 OFFCURVE",
"262 474 CURVE",
"262 501 OFFCURVE",
"284 524 OFFCURVE",
"311 524 CURVE",
"338 524 OFFCURVE",
"361 501 OFFCURVE",
"361 474 CURVE",
"361 447 OFFCURVE",
"338 425 OFFCURVE",
"311 425 CURVE"
);
}
);
width = 601;
}
);
unicode = 0042;
},
{
glyphname = C;
lastChange = "2019-01-04 13:08:03 +0000";
layers = (
{
layerId = master01;
paths = (
{
closed = 1;
nodes = (
"540 -7 OFFCURVE",
"617 58 OFFCURVE",
"617 169 CURVE SMOOTH",
"617 253 OFFCURVE",
"554 300 OFFCURVE",
"485 294 CURVE SMOOTH",
"350 280 OFFCURVE",
"350 333 OFFCURVE",
"350 365 CURVE SMOOTH",
"350 456 OFFCURVE",
"465 422 OFFCURVE",
"495 422 CURVE SMOOTH",
"592 422 OFFCURVE",
"612 510 OFFCURVE",
"612 556 CURVE SMOOTH",
"612 672 OFFCURVE",
"481 717 OFFCURVE",
"373 717 CURVE SMOOTH",
"225 717 OFFCURVE",
"28 642 OFFCURVE",
"28 351 CURVE SMOOTH",
"28 25 OFFCURVE",
"271 -7 OFFCURVE",
"388 -7 CURVE SMOOTH"
);
}
);
width = 637;
},
{
associatedMasterId = master01;
layerId = "6C54E965-3F5C-4F21-8452-F2BC4943F6F8";
name = "Dec 29 18, 22:09";
paths = (
{
closed = 1;
nodes = (
"653 484 OFFCURVE",
"653 484 CURVE",
"705 607 OFFCURVE",
"606 668 OFFCURVE",
"606 668 CURVE",
"468 750 OFFCURVE",
"291 704 OFFCURVE",
"291 704 CURVE",
"15 641 OFFCURVE",
"28 364 OFFCURVE",
"28 364 CURVE",
"21 75 OFFCURVE",
"243 19 OFFCURVE",
"243 19 CURVE",
"475 -45 OFFCURVE",
"595 28 OFFCURVE",
"595 28 CURVE",
"688 79 OFFCURVE",
"674 183 OFFCURVE",
"674 183 CURVE",
"657 319 OFFCURVE",
"500 292 OFFCURVE",
"500 292 CURVE",
"373 278 OFFCURVE",
"382 365 OFFCURVE",
"382 365 CURVE",
"387 449 OFFCURVE",
"497 426 OFFCURVE",
"497 426 CURVE",
"622 403 OFFCURVE"
);
}
);
width = 695;
},
{
associatedMasterId = master01;
layerId = "78AAF5E4-9CA9-4473-9B79-76DF2C20E1A9";
name = "Jan 3 19, 21:52";
paths = (
{
closed = 1;
nodes = (
"435 -45 OFFCURVE",
"544 28 OFFCURVE",
"544 28 CURVE",
"628 79 OFFCURVE",
"616 183 OFFCURVE",
"616 183 CURVE",
"600 319 OFFCURVE",
"457 292 OFFCURVE",
"457 292 CURVE",
"342 278 OFFCURVE",
"350 365 OFFCURVE",
"350 365 CURVE",
"355 449 OFFCURVE",
"455 426 OFFCURVE",
"455 426 CURVE",
"568 403 OFFCURVE",
"597 484 OFFCURVE",
"597 484 CURVE",
"644 607 OFFCURVE",
"554 668 OFFCURVE",
"554 668 CURVE",
"428 750 OFFCURVE",
"267 704 OFFCURVE",
"267 704 CURVE",
"17 641 OFFCURVE",
"28 364 OFFCURVE",
"28 364 CURVE",
"22 75 OFFCURVE",
"224 19 OFFCURVE",
"224 19 CURVE"
);
}
);
visible = 1;
width = 637;
}
);
unicode = 0043;
},
{
glyphname = Ccedilla;
lastChange = "2019-01-03 19:42:13 +0000";
layers = (
{
components = (
{
name = C;
}
);
layerId = master01;
paths = (
{
closed = 1;
nodes = (
"341 -244 OFFCURVE",
"419 -253 OFFCURVE",
"463 -218 CURVE SMOOTH",
"484 -201 OFFCURVE",
"499 -179 OFFCURVE",
"499 -141 CURVE SMOOTH",
"499 -100 OFFCURVE",
"474 -73 OFFCURVE",
"456 -60 CURVE SMOOTH",
"435 -45 OFFCURVE",
"406 -41 OFFCURVE",
"379 -41 CURVE",
"379 -31 OFFCURVE",
"379 1 OFFCURVE",
"379 12 CURVE",
"289 25 LINE",
"289 -72 LINE SMOOTH",
"289 -104 OFFCURVE",
"319 -110 OFFCURVE",
"339 -111 CURVE",
"391 -111 OFFCURVE",
"406 -116 OFFCURVE",
"406 -141 CURVE SMOOTH",
"406 -173 OFFCURVE",
"341 -161 OFFCURVE",
"341 -161 CURVE SMOOTH",
"312 -161 OFFCURVE",
"298 -175 OFFCURVE",
"296 -197 CURVE SMOOTH",
"293 -225 OFFCURVE",
"316 -244 OFFCURVE",
"341 -244 CURVE"
);
}
);
width = 637;
}
);
unicode = 00C7;
},
{
glyphname = D;
lastChange = "2019-01-04 13:08:03 +0000";
layers = (
{
layerId = master01;
paths = (
{
closed = 1;
nodes = (
"495 -12 OFFCURVE",
"594 117 OFFCURVE",
"594 349 CURVE SMOOTH",
"594 527 OFFCURVE",
"520 708 OFFCURVE",
"245 708 CURVE SMOOTH",
"98 708 OFFCURVE",
"40 648 OFFCURVE",
"40 312 CURVE SMOOTH",
"40 180 OFFCURVE",
"15 -12 OFFCURVE",
"281 -12 CURVE SMOOTH"
);
},
{
closed = 1;
nodes = (
"292 295 OFFCURVE",
"270 317 OFFCURVE",
"270 344 CURVE",
"270 371 OFFCURVE",
"292 394 OFFCURVE",
"319 394 CURVE",
"346 394 OFFCURVE",
"369 371 OFFCURVE",
"369 344 CURVE",
"369 317 OFFCURVE",
"346 295 OFFCURVE",
"319 295 CURVE"
);
}
);
width = 629;
},
{
associatedMasterId = master01;
layerId = "664D649F-8CCD-4CF2-A59C-8B9F569E3BA2";
name = "Dec 29 18, 22:10";
paths = (
{
closed = 1;
nodes = (
"601 555 OFFCURVE",
"601 555 CURVE SMOOTH",
"601 555 OFFCURVE",
"522 710 OFFCURVE",
"266 708 CURVE SMOOTH",
"266 708 OFFCURVE",
"91 723 OFFCURVE",
"62 557 CURVE",
"62 557 OFFCURVE",
"40 452 OFFCURVE",
"40 312 CURVE SMOOTH",
"40 243 OFFCURVE",
"37 143 OFFCURVE",
"76 75 CURVE",
"76 75 OFFCURVE",
"126 -12 OFFCURVE",
"283 -11 CURVE",
"283 -11 OFFCURVE",
"562 -33 OFFCURVE",
"624 180 CURVE SMOOTH",
"692 415 OFFCURVE"
);
},
{
closed = 1;
nodes = (
"386 363 OFFCURVE",
"386 342 CURVE SMOOTH",
"386 319 OFFCURVE",
"369 305 OFFCURVE",
"347 305 CURVE SMOOTH",
"325 305 OFFCURVE",
"307 310 OFFCURVE",
"307 342 CURVE SMOOTH",
"307 375 OFFCURVE",
"324 384 OFFCURVE",
"347 384 CURVE SMOOTH",
"372 384 OFFCURVE"
);
}
);
width = 684;
},
{
associatedMasterId = master01;
layerId = "23B5026E-4ADF-4FCE-8068-650914FFDE3D";
name = "Jan 3 19, 21:54";
paths = (
{
closed = 1;
nodes = (
"261 -11 OFFCURVE",
"268 -12 OFFCURVE",
"281 -12 CURVE SMOOTH",
"342 -12 OFFCURVE",
"524 3 OFFCURVE",
"571 180 CURVE SMOOTH",
"632 415 OFFCURVE",
"550 555 OFFCURVE",
"550 555 CURVE SMOOTH",
"550 555 OFFCURVE",
"478 710 OFFCURVE",
"245 708 CURVE SMOOTH",
"245 708 OFFCURVE",
"86 723 OFFCURVE",
"60 557 CURVE",
"60 557 OFFCURVE",
"40 452 OFFCURVE",
"40 312 CURVE SMOOTH",
"40 243 OFFCURVE",
"37 143 OFFCURVE",
"72 75 CURVE",
"72 75 OFFCURVE",
"118 -12 OFFCURVE",
"261 -11 CURVE"
);
},
{
closed = 1;
nodes = (
"292 295 OFFCURVE",
"270 317 OFFCURVE",
"270 344 CURVE",
"270 371 OFFCURVE",
"292 394 OFFCURVE",
"319 394 CURVE",
"346 394 OFFCURVE",
"369 371 OFFCURVE",
"369 344 CURVE",
"369 317 OFFCURVE",
"346 295 OFFCURVE",
"319 295 CURVE"
);
}
);
visible = 1;
width = 629;
}
);
unicode = 0044;
},
{
glyphname = Eth;
lastChange = "2019-01-04 12:38:30 +0000";
layers = (
{
components = (
{
name = D;
transform = "{1, 0, 0, 1, 150, 0}";
}
);
layerId = master01;
paths = (
{
closed = 1;
nodes = (
"208 460 LINE",
"143 456 OFFCURVE",
"48 468 OFFCURVE",
"48 338 CURVE SMOOTH",
"48 232 OFFCURVE",
"140 231 OFFCURVE",
"203 229 CURVE"
);
}
);
width = 765;
},
{
associatedMasterId = master01;
layerId = "553999B9-BAF1-488A-9079-36CBDA2900FC";
name = "Jan 4 19, 14:37";
paths = (
{
closed = 1;
nodes = (
"448 -6 OFFCURVE",
"727 -28 OFFCURVE",
"789 185 CURVE SMOOTH",
"857 420 OFFCURVE",
"766 560 OFFCURVE",
"766 560 CURVE SMOOTH",
"766 560 OFFCURVE",
"687 715 OFFCURVE",
"431 713 CURVE SMOOTH",
"431 713 OFFCURVE",
"256 728 OFFCURVE",
"227 562 CURVE",
"227 562 OFFCURVE",
"220 518 OFFCURVE",
"214 460 CURVE",
"182 458 OFFCURVE",
"177 462 OFFCURVE",
"141 454 CURVE SMOOTH",
"36 430 OFFCURVE",
"49 338 OFFCURVE",
"49 338 CURVE SMOOTH",
"49 338 OFFCURVE",
"48 250 OFFCURVE",
"142 235 CURVE SMOOTH",
"175 230 OFFCURVE",
"178 230 OFFCURVE",
"209 229 CURVE",
"212 178 OFFCURVE",
"218 121 OFFCURVE",
"241 80 CURVE",
"241 80 OFFCURVE",
"291 -7 OFFCURVE",
"448 -6 CURVE"
);
},
{
closed = 1;
nodes = (
"471 298 OFFCURVE",
"453 298 OFFCURVE",
"453 335 CURVE SMOOTH",
"453 368 OFFCURVE",
"470 377 OFFCURVE",
"493 377 CURVE SMOOTH",
"518 377 OFFCURVE",
"532 356 OFFCURVE",
"532 335 CURVE SMOOTH",
"532 312 OFFCURVE",
"515 298 OFFCURVE",
"493 298 CURVE SMOOTH"
);
}
);
width = 835;
}
);
unicode = 00D0;
},
{
glyphname = E;
lastChange = "2019-01-15 17:03:07 +0000";
layers = (
{
layerId = master01;
paths = (
{
closed = 1;
nodes = (
"330 -8 OFFCURVE",
"565 -12 OFFCURVE",
"571 114 CURVE",
"571 139 OFFCURVE",
"556 274 OFFCURVE",
"186 202 CURVE",
"263 190 LINE",
"263 294 LINE",
"252 254 LINE",
"268 256 OFFCURVE",
"453 239 OFFCURVE",
"453 345 CURVE",
"453 384 OFFCURVE",
"446 454 OFFCURVE",
"167 436 CURVE",
"246 399 LINE",
"246 503 LINE",
"215 477 LINE",
"209 488 OFFCURVE",
"572 410 OFFCURVE",
"569 584 CURVE",
"569 598 OFFCURVE",
"564 711 OFFCURVE",
"315 711 CURVE SMOOTH",
"208 711 OFFCURVE",
"73 687 OFFCURVE",
"51 549 CURVE",
"51 549 OFFCURVE",
"36 439 OFFCURVE",
"36 314 CURVE SMOOTH",
"36 175 OFFCURVE",
"16 -16 OFFCURVE",
"330 -8 CURVE"
);
}
);
width = 614;
},
{
associatedMasterId = master01;
layerId = "CB5B475F-80DE-4F87-84DA-35CCEE34F861";
name = "Jan 3 19, 13:34";
paths = (
{
closed = 1;
nodes = (
"85 734 OFFCURVE",
"53 549 CURVE",
"53 549 OFFCURVE",
"17 312 OFFCURVE",
"51 137 CURVE",
"51 137 OFFCURVE",
"69 -15 OFFCURVE",
"360 -8 CURVE",
"360 -8 OFFCURVE",
"618 -12 OFFCURVE",
"625 114 CURVE",
"625 114 OFFCURVE",
"638 245 OFFCURVE",
"387 241 CURVE SMOOTH",
"387 241 OFFCURVE",
"495 262 OFFCURVE",
"495 345 CURVE",
"495 345 OFFCURVE",
"511 426 OFFCURVE",
"358 451 CURVE",
"358 451 OFFCURVE",
"626 425 OFFCURVE",
"623 584 CURVE",
"623 584 OFFCURVE",
"642 703 OFFCURVE",
"343 711 CURVE SMOOTH",
"343 711 OFFCURVE"
);
}
);
width = 668;
},
{
associatedMasterId = master01;
layerId = "60600C49-E8B6-411B-9DB6-087E25965523";
name = "Jan 3 19, 13:35";
paths = (
{
closed = 1;
nodes = (
"80 734 OFFCURVE",
"51 549 CURVE",
"51 549 OFFCURVE",
"19 312 OFFCURVE",
"49 137 CURVE",
"49 137 OFFCURVE",
"66 -15 OFFCURVE",
"330 -8 CURVE",
"330 -8 OFFCURVE",
"565 -12 OFFCURVE",
"571 114 CURVE",
"571 114 OFFCURVE",
"586 275 OFFCURVE",
"273 235 CURVE",
"317 235 OFFCURVE",
"453 236 OFFCURVE",
"453 345 CURVE",
"453 345 OFFCURVE",
"473 455 OFFCURVE",
"246 458 CURVE",
"336 450 LINE",
"280 458 OFFCURVE",
"572 410 OFFCURVE",
"569 584 CURVE",
"569 584 OFFCURVE",
"587 703 OFFCURVE",
"315 711 CURVE SMOOTH",
"315 711 OFFCURVE"
);
}
);
width = 614;
},
{
associatedMasterId = master01;
layerId = "A5CD1B3A-08B0-4BD3-9A40-5CA92BD5879E";
name = "Jan 15 19, 19:02";
paths = (
{
closed = 1;
nodes = (
"330 -8 OFFCURVE",
"565 -12 OFFCURVE",
"571 114 CURVE",
"571 149 OFFCURVE",
"556 294 OFFCURVE",
"186 222 CURVE",
"263 190 LINE",
"263 249 LINE",
"307 249 OFFCURVE",
"453 246 OFFCURVE",
"453 345 CURVE",
"453 380 OFFCURVE",
"447 444 OFFCURVE",
"246 444 CURVE",
"246 503 LINE",
"215 457 LINE",
"209 468 OFFCURVE",
"572 390 OFFCURVE",
"569 584 CURVE",
"569 598 OFFCURVE",
"564 711 OFFCURVE",
"315 711 CURVE SMOOTH",
"208 711 OFFCURVE",
"73 687 OFFCURVE",
"51 549 CURVE",
"51 549 OFFCURVE",
"36 439 OFFCURVE",
"36 314 CURVE SMOOTH",
"36 175 OFFCURVE",
"16 -16 OFFCURVE",
"330 -8 CURVE"
);
}
);
width = 614;
}
);
unicode = 0045;
},
{
glyphname = Edieresis;
lastChange = "2019-01-03 19:42:13 +0000";
layers = (
{
components = (
{
name = E;
}
);
layerId = master01;
paths = (
{
closed = 1;
nodes = (
"434 744 OFFCURVE",
"461 779 OFFCURVE",
"461 822 CURVE SMOOTH",
"461 864 OFFCURVE",
"434 899 OFFCURVE",
"384 899 CURVE SMOOTH",
"334 899 OFFCURVE",
"307 864 OFFCURVE",
"307 822 CURVE SMOOTH",
"307 779 OFFCURVE",
"334 744 OFFCURVE",
"384 744 CURVE SMOOTH"
);
},
{
closed = 1;
nodes = (
"251 744 OFFCURVE",
"278 779 OFFCURVE",
"278 822 CURVE SMOOTH",
"278 864 OFFCURVE",
"251 899 OFFCURVE",
"201 899 CURVE SMOOTH",
"151 899 OFFCURVE",
"124 864 OFFCURVE",
"124 822 CURVE SMOOTH",
"124 779 OFFCURVE",
"151 744 OFFCURVE",
"201 744 CURVE SMOOTH"
);
}
);
width = 614;
}
);
unicode = 00CB;
},
{
glyphname = F;
lastChange = "2019-01-15 17:04:47 +0000";
layers = (
{
layerId = master01;
paths = (
{
closed = 1;
nodes = (
"252 0 OFFCURVE",
"388 18 OFFCURVE",
"309 326 CURVE",
"309 262 LINE",
"277 262 OFFCURVE",
"455 238 OFFCURVE",
"455 361 CURVE SMOOTH",
"455 394 OFFCURVE",
"435 462 OFFCURVE",
"213 438 CURVE",
"288 412 LINE",
"288 518 LINE",
"270 484 LINE",
"330 481 OFFCURVE",
"555 455 OFFCURVE",
"555 593 CURVE SMOOTH",
"555 722 OFFCURVE",
"344 731 OFFCURVE",
"297 731 CURVE SMOOTH",
"50 731 OFFCURVE",
"25 604 OFFCURVE",
"25 361 CURVE SMOOTH",
"25 266 OFFCURVE",
"26 0 OFFCURVE",
"190 0 CURVE"
);
}
);
width = 585;
},
{
associatedMasterId = master01;
layerId = "5FB29FA4-1D64-4FCD-AA35-88C190C61CC6";
name = "Jan 3 19, 13:40";
paths = (
{
closed = 1;
nodes = (
"499 260 OFFCURVE",
"499 371 CURVE",
"499 371 OFFCURVE",
"507 449 OFFCURVE",
"374 468 CURVE",
"374 468 OFFCURVE",
"615 452 OFFCURVE",
"608 598 CURVE",
"608 598 OFFCURVE",
"619 716 OFFCURVE",
"361 730 CURVE",
"361 730 OFFCURVE",
"75 757 OFFCURVE",
"40 565 CURVE",
"40 565 OFFCURVE",
"7 360 OFFCURVE",
"40 183 CURVE",
"40 183 OFFCURVE",
"60 0 OFFCURVE",
"207 0 CURVE",
"207 0 OFFCURVE",
"412 -35 OFFCURVE",
"354 257 CURVE",
"354 257 OFFCURVE"
);
}
);
width = 638;
},
{
associatedMasterId = master01;
layerId = "6F8E05C3-3004-4AD3-BE3B-BDEB904EE02A";
name = "Jan 3 19, 21:39";
paths = (
{
closed = 1;
nodes = (
"455 371 OFFCURVE",
"458 459 OFFCURVE",
"288 463 CURVE",
"288 473 LINE",
"366 468 OFFCURVE",
"555 457 OFFCURVE",
"555 593 CURVE SMOOTH",
"555 722 OFFCURVE",
"344 731 OFFCURVE",
"297 731 CURVE SMOOTH",
"227 731 OFFCURVE",
"63 715 OFFCURVE",
"38 565 CURVE",
"38 565 OFFCURVE",
"8 360 OFFCURVE",
"38 183 CURVE",
"38 183 OFFCURVE",
"56 0 OFFCURVE",
"190 0 CURVE",
"190 0 OFFCURVE",
"376 -35 OFFCURVE",
"324 257 CURVE",
"324 257 OFFCURVE",
"455 260 OFFCURVE",
"455 371 CURVE SMOOTH"
);
}
);
visible = 1;
width = 585;
},
{
associatedMasterId = master01;
layerId = "EB676389-07C2-4C44-8FFA-EB16266B5577";
name = "Jan 15 19, 19:03";
paths = (
{
closed = 1;
nodes = (
"247 0 OFFCURVE",
"367 15 OFFCURVE",
"324 257 CURVE",
"324 257 OFFCURVE",
"455 260 OFFCURVE",
"455 371 CURVE SMOOTH",
"455 392 OFFCURVE",
"440 457 OFFCURVE",
"288 457 CURVE",
"288 473 LINE",
"366 468 OFFCURVE",
"555 457 OFFCURVE",
"555 593 CURVE SMOOTH",
"555 722 OFFCURVE",
"344 731 OFFCURVE",
"297 731 CURVE SMOOTH",
"50 731 OFFCURVE",
"25 604 OFFCURVE",
"25 361 CURVE SMOOTH",
"25 266 OFFCURVE",
"26 0 OFFCURVE",
"190 0 CURVE"
);
}
);
width = 585;
}
);
unicode = 0046;
},
{
glyphname = G;
lastChange = "2019-01-03 19:42:13 +0000";
layers = (
{
layerId = master01;
paths = (
{
closed = 1;
nodes = (
"559 -43 OFFCURVE",
"647 -43 OFFCURVE",
"653 65 CURVE",
"653 65 OFFCURVE",
"676 289 OFFCURVE",
"630 353 CURVE",
"630 353 OFFCURVE",
"614 379 OFFCURVE",
"572 386 CURVE SMOOTH",
"491 400 OFFCURVE",
"368 401 OFFCURVE",
"368 333 CURVE SMOOTH",
"368 318 OFFCURVE",
"375 295 OFFCURVE",
"419 284 CURVE",
"419 277 LINE",
"399 270 OFFCURVE",
"383 267 OFFCURVE",
"368 267 CURVE SMOOTH",
"288 267 OFFCURVE",
"288 363 OFFCURVE",
"288 364 CURVE SMOOTH",
"289 492 OFFCURVE",
"407 447 OFFCURVE",
"407 447 CURVE",
"534 393 OFFCURVE",
"566 477 OFFCURVE",
"566 477 CURVE",
"603 566 OFFCURVE",
"549 629 OFFCURVE",
"549 629 CURVE",
"428 768 OFFCURVE",
"239 708 OFFCURVE",
"239 708 CURVE",
"-1 621 OFFCURVE",
"9 353 OFFCURVE",
"9 353 CURVE",
"9 33 OFFCURVE",
"239 -1 OFFCURVE",
"239 -1 CURVE",
"353 -23 OFFCURVE",
"424 19 OFFCURVE",
"451 57 CURVE",
"450 -21 OFFCURVE",
"506 -43 OFFCURVE",
"559 -43 CURVE"
);
}
);
width = 690;
},
{
associatedMasterId = master01;
layerId = "A7D27E02-1018-43E0-B3F5-EF8C5ECB7AE9";
name = "Jan 3 19, 13:43";
paths = (
{
closed = 1;
nodes = (
"315 364 OFFCURVE",
"315 364 CURVE",
"317 492 OFFCURVE",
"446 447 OFFCURVE",
"446 447 CURVE",
"586 393 OFFCURVE",
"621 477 OFFCURVE",
"621 477 CURVE",
"662 566 OFFCURVE",
"602 629 OFFCURVE",
"602 629 CURVE",
"469 768 OFFCURVE",
"262 708 OFFCURVE",
"262 708 CURVE",
"-3 621 OFFCURVE",
"9 353 OFFCURVE",
"9 353 CURVE",
"9 33 OFFCURVE",
"262 -1 OFFCURVE",
"262 -1 CURVE",
"387 -23 OFFCURVE",
"465 19 OFFCURVE",
"495 57 CURVE",
"494 -21 OFFCURVE",
"555 -43 OFFCURVE",
"613 -43 CURVE",
"613 -43 OFFCURVE",
"710 -43 OFFCURVE",
"717 65 CURVE",
"717 65 OFFCURVE",
"742 289 OFFCURVE",
"692 353 CURVE",
"692 353 OFFCURVE",
"674 379 OFFCURVE",
"628 386 CURVE SMOOTH",
"558 397 OFFCURVE",
"425 400 OFFCURVE",
"407 353 CURVE",
"407 353 OFFCURVE",
"385 305 OFFCURVE",
"446 279 CURVE",
"315 233 OFFCURVE"
);
}
);
width = 754;
}
);
unicode = 0047;
},
{
glyphname = H;
lastChange = "2019-01-03 19:42:13 +0000";
layers = (
{
layerId = master01;
paths = (
{
closed = 1;
nodes = (
"654 -5 OFFCURVE",
"667 171 OFFCURVE",
"667 171 CURVE SMOOTH",
"667 171 OFFCURVE",
"687 332 OFFCURVE",
"667 520 CURVE SMOOTH",
"646 717 OFFCURVE",
"522 718 OFFCURVE",
"522 718 CURVE SMOOTH",
"365 718 OFFCURVE",
"370 489 OFFCURVE",
"370 489 CURVE SMOOTH",
"336 489 LINE SMOOTH",
"336 489 OFFCURVE",
"343 717 OFFCURVE",
"185 717 CURVE SMOOTH",
"67 717 OFFCURVE",
"47 549 OFFCURVE",
"47 549 CURVE SMOOTH",
"47 549 OFFCURVE",
"23 417 OFFCURVE",
"40 187 CURVE SMOOTH",
"56 -10 OFFCURVE",
"187 -2 OFFCURVE",
"187 -2 CURVE",
"330 -1 OFFCURVE",
"340 224 OFFCURVE",
"340 224 CURVE",
"374 224 LINE",
"374 224 OFFCURVE",
"378 -2 OFFCURVE",
"522 -4 CURVE SMOOTH"
);
}
);
width = 702;
},
{
associatedMasterId = master01;
layerId = "C4EB51FB-8E03-4E30-AAA3-4071471F0628";
name = "Jan 3 19, 13:47";
paths = (
{
closed = 1;
nodes = (
"374 717 OFFCURVE",
"200 717 CURVE SMOOTH",
"70 717 OFFCURVE",
"48 549 OFFCURVE",
"48 549 CURVE SMOOTH",
"48 549 OFFCURVE",
"22 417 OFFCURVE",
"41 187 CURVE SMOOTH",
"58 -10 OFFCURVE",
"202 -2 OFFCURVE",
"202 -2 CURVE",
"359 -1 OFFCURVE",
"371 224 OFFCURVE",
"371 224 CURVE",
"408 224 LINE",
"408 224 OFFCURVE",
"412 -2 OFFCURVE",
"571 -4 CURVE SMOOTH",
"716 -5 OFFCURVE",
"730 171 OFFCURVE",
"730 171 CURVE SMOOTH",
"730 171 OFFCURVE",
"752 332 OFFCURVE",
"730 520 CURVE SMOOTH",
"707 717 OFFCURVE",
"571 718 OFFCURVE",
"571 718 CURVE SMOOTH",
"398 718 OFFCURVE",
"404 489 OFFCURVE",
"404 489 CURVE SMOOTH",
"366 489 LINE SMOOTH",
"366 489 OFFCURVE"
);
}
);
width = 766;
}
);
unicode = 0048;
},
{
glyphname = I;
lastChange = "2019-01-03 19:42:13 +0000";
layers = (
{
layerId = master01;
paths = (
{
closed = 1;
nodes = (
"335 -10 OFFCURVE",
"349 164 OFFCURVE",
"349 164 CURVE SMOOTH",
"349 164 OFFCURVE",
"369 324 OFFCURVE",
"349 510 CURVE SMOOTH",
"327 705 OFFCURVE",
"199 705 OFFCURVE",
"199 705 CURVE SMOOTH",
"41 704 OFFCURVE",
"35 482 OFFCURVE",
"35 482 CURVE SMOOTH",
"35 482 OFFCURVE",
"24 312 OFFCURVE",
"39 203 CURVE",
"39 203 OFFCURVE",
"49 -7 OFFCURVE",
"199 -9 CURVE SMOOTH"
);
}
);
width = 388;
},
{
associatedMasterId = master01;
layerId = "C455E6CA-73AC-4C49-94FA-D4A894E57008";
name = "Jan 3 19, 13:47";
paths = (
{
closed = 1;
nodes = (
"50 -7 OFFCURVE",
"215 -9 CURVE SMOOTH",
"365 -10 OFFCURVE",
"380 164 OFFCURVE",
"380 164 CURVE SMOOTH",
"380 164 OFFCURVE",
"402 324 OFFCURVE",
"380 510 CURVE SMOOTH",
"356 705 OFFCURVE",
"215 705 OFFCURVE",
"215 705 CURVE SMOOTH",
"42 704 OFFCURVE",
"35 482 OFFCURVE",
"35 482 CURVE SMOOTH",
"35 482 OFFCURVE",
"23 312 OFFCURVE",
"39 203 CURVE",
"39 203 OFFCURVE"
);
}
);
width = 420;
}
);
unicode = 0049;
},
{
glyphname = Idieresis;
lastChange = "2019-01-03 19:42:13 +0000";
layers = (
{
components = (
{
name = I;
}
);
layerId = master01;
paths = (
{
closed = 1;
nodes = (
"335 725 OFFCURVE",
"362 760 OFFCURVE",
"362 803 CURVE SMOOTH",
"362 845 OFFCURVE",
"335 880 OFFCURVE",
"285 880 CURVE SMOOTH",
"235 880 OFFCURVE",
"208 845 OFFCURVE",
"208 803 CURVE SMOOTH",
"208 760 OFFCURVE",
"235 725 OFFCURVE",
"285 725 CURVE SMOOTH"
);
},
{
closed = 1;
nodes = (
"152 725 OFFCURVE",
"179 760 OFFCURVE",
"179 803 CURVE SMOOTH",
"179 845 OFFCURVE",
"152 880 OFFCURVE",
"102 880 CURVE SMOOTH",
"52 880 OFFCURVE",
"25 845 OFFCURVE",
"25 803 CURVE SMOOTH",
"25 760 OFFCURVE",
"52 725 OFFCURVE",
"102 725 CURVE SMOOTH"
);
}
);
width = 387;
}
);
unicode = 00CF;
},
{
glyphname = J;
lastChange = "2019-01-04 13:08:03 +0000";
layers = (
{
layerId = master01;
paths = (
{
closed = 1;
nodes = (
"471 -9 OFFCURVE",
"461 215 OFFCURVE",
"461 334 CURVE SMOOTH",
"461 561 OFFCURVE",
"448 712 OFFCURVE",
"299 712 CURVE SMOOTH",
"184 712 OFFCURVE",
"157 571 OFFCURVE",
"157 501 CURVE SMOOTH",
"157 256 OFFCURVE",
"229 199 OFFCURVE",
"101 199 CURVE SMOOTH",
"50 199 OFFCURVE",
"28 157 OFFCURVE",
"28 117 CURVE SMOOTH",
"28 40 OFFCURVE",
"118 -9 OFFCURVE",
"222 -9 CURVE SMOOTH"
);
}
);
width = 504;
},
{
associatedMasterId = master01;
layerId = "A5099DE5-30DC-48B3-9610-C991B022E702";
name = "Jan 3 19, 13:47";
paths = (
{
closed = 1;
nodes = (
"185 207 OFFCURVE",
"91 199 CURVE SMOOTH",
"39 195 OFFCURVE",
"10 121 OFFCURVE",
"41 73 CURVE SMOOTH",
"115 -41 OFFCURVE",
"358 -20 OFFCURVE",
"422 42 CURVE SMOOTH",
"498 116 OFFCURVE",
"501 235 OFFCURVE",
"501 235 CURVE SMOOTH",
"501 235 OFFCURVE",
"511 348 OFFCURVE",
"496 529 CURVE SMOOTH",
"480 725 OFFCURVE",
"326 712 OFFCURVE",
"326 712 CURVE SMOOTH",
"167 710 OFFCURVE",
"170 501 OFFCURVE",
"170 501 CURVE SMOOTH",
"170 501 OFFCURVE",
"167 361 OFFCURVE",
"175 255 CURVE",
"175 255 OFFCURVE"
);
}
);
width = 547;
},
{
associatedMasterId = master01;
layerId = "643718FC-C996-4120-A47A-F6451493980B";
name = "Jan 3 19, 21:55";
paths = (
{
closed = 1;
nodes = (
"455 116 OFFCURVE",
"458 235 OFFCURVE",
"458 235 CURVE SMOOTH",
"458 235 OFFCURVE",
"467 348 OFFCURVE",
"453 529 CURVE SMOOTH",
"439 725 OFFCURVE",
"299 712 OFFCURVE",
"299 712 CURVE SMOOTH",
"154 710 OFFCURVE",
"157 501 OFFCURVE",
"157 501 CURVE SMOOTH",
"157 501 OFFCURVE",
"154 361 OFFCURVE",
"161 255 CURVE",
"161 255 OFFCURVE",
"170 207 OFFCURVE",
"85 199 CURVE SMOOTH",
"38 195 OFFCURVE",
"11 121 OFFCURVE",
"39 73 CURVE SMOOTH",
"107 -41 OFFCURVE",
"328 -20 OFFCURVE",
"386 42 CURVE SMOOTH"
);
}
);
visible = 1;
width = 504;
}
);
unicode = 004A;
},
{
glyphname = K;
lastChange = "2019-01-03 20:35:30 +0000";
layers = (
{
layerId = master01;
paths = (
{
closed = 1;
nodes = (
"608 -9 OFFCURVE",
"750 61 OFFCURVE",
"488 373 CURVE",
"625 483 OFFCURVE",
"679 686 OFFCURVE",
"515 686 CURVE SMOOTH",
"422 686 OFFCURVE",
"360 588 OFFCURVE",
"339 509 CURVE",
"319 509 LINE",
"312 223 LINE",
"339 223 LINE",
"339 223 OFFCURVE",
"406 -9 OFFCURVE",
"552 -9 CURVE SMOOTH"
);
},
{
closed = 1;
nodes = (
"325 -8 OFFCURVE",
"338 168 OFFCURVE",
"338 168 CURVE SMOOTH",
"338 168 OFFCURVE",
"357 329 OFFCURVE",
"336 517 CURVE SMOOTH",
"318 692 OFFCURVE",
"228 713 OFFCURVE",
"196 713 CURVE SMOOTH",
"47 713 OFFCURVE",
"41 488 OFFCURVE",
"41 488 CURVE SMOOTH",
"41 488 OFFCURVE",
"31 317 OFFCURVE",
"45 207 CURVE",
"45 207 OFFCURVE",
"55 -4 OFFCURVE",
"196 -6 CURVE SMOOTH"
);
}
);
width = 687;
},
{
associatedMasterId = master01;
layerId = "CC5ADE92-BE4E-4450-9099-B20597AD3C4A";
name = "Jan 3 19, 13:48";
paths = (
{
closed = 1;
nodes = (
"421 719 OFFCURVE",
"213 713 CURVE SMOOTH",
"213 713 OFFCURVE",
"83 717 OFFCURVE",
"51 511 CURVE SMOOTH",
"19 307 OFFCURVE",
"58 148 OFFCURVE",
"58 148 CURVE SMOOTH",
"58 148 OFFCURVE",
"92 -32 OFFCURVE",
"241 -3 CURVE SMOOTH",
"377 23 OFFCURVE",
"355 164 OFFCURVE",
"355 164 CURVE SMOOTH",
"355 164 OFFCURVE",
"463 -92 OFFCURVE",
"646 19 CURVE",
"646 19 OFFCURVE",
"808 102 OFFCURVE",
"558 373 CURVE",
"558 373 OFFCURVE",
"754 522 OFFCURVE",
"629 648 CURVE",
"629 648 OFFCURVE",
"545 733 OFFCURVE",
"446 648 CURVE SMOOTH",
"391 601 OFFCURVE",
"380 541 OFFCURVE",
"380 541 CURVE SMOOTH",
"380 541 OFFCURVE"
);
}
);
width = 732;
},
{
associatedMasterId = master01;
layerId = "E3CED1AF-F10E-4CE8-A81B-4A51738C9496";
name = "Jan 3 19, 13:50";
paths = (
{
closed = 1;
nodes = (
"385 719 OFFCURVE",
"196 713 CURVE SMOOTH",
"196 713 OFFCURVE",
"78 717 OFFCURVE",
"49 511 CURVE SMOOTH",
"20 307 OFFCURVE",
"55 148 OFFCURVE",
"55 148 CURVE SMOOTH",
"55 148 OFFCURVE",
"86 -32 OFFCURVE",
"222 -3 CURVE SMOOTH",
"345 23 OFFCURVE",
"325 164 OFFCURVE",
"325 164 CURVE SMOOTH",
"325 164 OFFCURVE",
"423 -92 OFFCURVE",
"590 19 CURVE",
"590 19 OFFCURVE",
"737 102 OFFCURVE",
"510 373 CURVE",
"510 373 OFFCURVE",
"688 522 OFFCURVE",
"574 648 CURVE",
"574 648 OFFCURVE",
"498 733 OFFCURVE",
"408 648 CURVE SMOOTH",
"358 601 OFFCURVE",
"348 541 OFFCURVE",
"348 541 CURVE SMOOTH",
"348 541 OFFCURVE"
);
}
);
width = 671;
},
{
associatedMasterId = master01;
layerId = "FBAAB845-B73A-4D15-A90E-57B2DF6F75ED";
name = "Jan 3 19, 14:02";
paths = (
{
closed = 1;
nodes = (
"35 207 OFFCURVE",
"45 -4 OFFCURVE",
"186 -6 CURVE SMOOTH",
"315 -8 OFFCURVE",
"328 168 OFFCURVE",
"328 168 CURVE SMOOTH",
"328 168 OFFCURVE",
"347 329 OFFCURVE",
"328 517 CURVE SMOOTH",
"308 713 OFFCURVE",
"186 713 OFFCURVE",
"186 713 CURVE SMOOTH",
"37 712 OFFCURVE",
"31 488 OFFCURVE",
"31 488 CURVE SMOOTH",
"31 488 OFFCURVE",
"21 317 OFFCURVE",
"35 207 CURVE"
);
},
{
closed = 1;
nodes = (
"329 223 OFFCURVE",
"349 -9 OFFCURVE",
"495 -9 CURVE SMOOTH",
"551 -9 OFFCURVE",
"760 61 OFFCURVE",
"498 373 CURVE",
"498 373 OFFCURVE",
"676 522 OFFCURVE",
"562 648 CURVE",
"562 648 OFFCURVE",
"528 686 OFFCURVE",
"479 686 CURVE SMOOTH",
"386 686 OFFCURVE",
"350 588 OFFCURVE",
"329 509 CURVE",
"309 509 LINE",
"302 223 LINE",
"329 223 LINE"
);
}
);
width = 671;
},
{
associatedMasterId = master01;
layerId = "3133ECF4-E549-4A45-8351-E3A3B3EB6F9F";
name = "Jan 3 19, 22:01";
paths = (
{
closed = 1;
nodes = (
"608 -9 OFFCURVE",
"770 61 OFFCURVE",
"508 373 CURVE",
"645 483 OFFCURVE",
"679 686 OFFCURVE",
"515 686 CURVE SMOOTH",
"422 686 OFFCURVE",
"360 588 OFFCURVE",
"339 509 CURVE",
"319 509 LINE",
"312 223 LINE",
"339 223 LINE",
"339 223 OFFCURVE",
"406 -9 OFFCURVE",
"552 -9 CURVE SMOOTH"
);
},
{
closed = 1;
nodes = (
"325 -8 OFFCURVE",
"338 168 OFFCURVE",
"338 168 CURVE SMOOTH",
"338 168 OFFCURVE",
"357 329 OFFCURVE",
"338 517 CURVE SMOOTH",
"318 713 OFFCURVE",
"196 713 OFFCURVE",
"196 713 CURVE SMOOTH",
"47 712 OFFCURVE",
"41 488 OFFCURVE",
"41 488 CURVE SMOOTH",
"41 488 OFFCURVE",
"31 317 OFFCURVE",
"45 207 CURVE",
"45 207 OFFCURVE",
"55 -4 OFFCURVE",
"196 -6 CURVE SMOOTH"
);
}
);
visible = 1;
width = 687;
}
);
unicode = 004B;
},
{
glyphname = L;
lastChange = "2019-01-03 19:42:13 +0000";
layers = (
{
layerId = master01;
paths = (
{
closed = 1;
nodes = (
"570 -3 OFFCURVE",
"578 170 OFFCURVE",
"570 206 CURVE",
"570 206 OFFCURVE",
"538 408 OFFCURVE",
"326 284 CURVE",
"326 284 OFFCURVE",
"394 716 OFFCURVE",
"189 709 CURVE SMOOTH",
"189 709 OFFCURVE",
"74 717 OFFCURVE",
"47 546 CURVE",
"47 546 OFFCURVE",
"12 323 OFFCURVE",
"56 186 CURVE",
"56 186 OFFCURVE",
"100 -18 OFFCURVE",
"326 -11 CURVE SMOOTH"
);
}
);
width = 597;
},
{
associatedMasterId = master01;
layerId = "651B94EC-4A84-47E2-B41B-E406FB28BE69";
name = "Jan 3 19, 13:49";
paths = (
{
closed = 1;
nodes = (
"430 716 OFFCURVE",
"205 709 CURVE SMOOTH",
"205 709 OFFCURVE",
"78 717 OFFCURVE",
"48 546 CURVE",
"48 546 OFFCURVE",
"10 323 OFFCURVE",
"58 186 CURVE",
"58 186 OFFCURVE",
"107 -18 OFFCURVE",
"355 -11 CURVE SMOOTH",
"624 -3 OFFCURVE",
"632 170 OFFCURVE",
"624 206 CURVE",
"624 206 OFFCURVE",
"588 408 OFFCURVE",
"355 284 CURVE",
"355 284 OFFCURVE"
);
}
);
width = 651;
}
);
unicode = 004C;
},
{
glyphname = M;
lastChange = "2019-01-03 19:42:13 +0000";
layers = (
{
layerId = master01;
paths = (
{
closed = 1;
nodes = (
"355 -6 OFFCURVE",
"350 312 OFFCURVE",
"350 312 CURVE",
"361 156 OFFCURVE",
"432 153 OFFCURVE",
"442 153 CURVE SMOOTH",
"452 153 OFFCURVE",
"523 156 OFFCURVE",
"534 312 CURVE",
"534 312 OFFCURVE",
"529 -6 OFFCURVE",
"718 -6 CURVE SMOOTH",
"733 -6 OFFCURVE",
"854 -14 OFFCURVE",
"854 211 CURVE SMOOTH",
"854 295 OFFCURVE",
"827 718 OFFCURVE",
"613 718 CURVE SMOOTH",
"443 718 OFFCURVE",
"446 510 OFFCURVE",
"446 507 CURVE",
"438 507 LINE",
"438 510 OFFCURVE",
"441 718 OFFCURVE",
"271 718 CURVE SMOOTH",
"57 718 OFFCURVE",
"30 295 OFFCURVE",
"30 211 CURVE SMOOTH",
"30 -14 OFFCURVE",
"151 -6 OFFCURVE",
"166 -6 CURVE SMOOTH"
);
}
);
width = 895;
},
{
associatedMasterId = master01;
layerId = "1C057E92-0285-4FC3-8083-6DBF84DCCD2E";
name = "Jan 3 19, 14:04";
paths = (
{
closed = 1;
nodes = (
"497 716 OFFCURVE",
"312 716 CURVE SMOOTH",
"312 716 OFFCURVE",
"175 733 OFFCURVE",
"105 573 CURVE",
"105 573 OFFCURVE",
"30 422 OFFCURVE",
"30 205 CURVE",
"30 205 OFFCURVE",
"16 -6 OFFCURVE",
"215 -6 CURVE",
"215 -6 OFFCURVE",
"387 -11 OFFCURVE",
"387 314 CURVE",
"387 314 OFFCURVE",
"393 168 OFFCURVE",
"497 168 CURVE",
"497 168 OFFCURVE",
"582 156 OFFCURVE",
"594 312 CURVE",
"594 312 OFFCURVE",
"588 -6 OFFCURVE",
"796 -6 CURVE",
"796 -6 OFFCURVE",
"955 -14 OFFCURVE",
"946 211 CURVE",
"946 211 OFFCURVE",
"946 400 OFFCURVE",
"874 565 CURVE",
"874 565 OFFCURVE",
"810 718 OFFCURVE",
"680 718 CURVE SMOOTH",
"510 718 OFFCURVE",
"492 500 OFFCURVE",
"492 500 CURVE SMOOTH",
"492 500 OFFCURVE"
);
}
);
width = 987;
},
{
associatedMasterId = master01;
layerId = "47117C96-E3A5-44BB-9F1B-81270D87E1C9";
name = "Jan 3 19, 14:05";
paths = (
{
closed = 1;
nodes = (
"454 716 OFFCURVE",
"286 716 CURVE SMOOTH",
"286 716 OFFCURVE",
"161 733 OFFCURVE",
"98 573 CURVE",
"98 573 OFFCURVE",
"30 422 OFFCURVE",
"30 205 CURVE",
"30 205 OFFCURVE",
"30 202 OFFCURVE",
"30 196 CURVE SMOOTH",
"30 155 OFFCURVE",
"40 -6 OFFCURVE",
"198 -6 CURVE",
"198 -6 OFFCURVE",
"354 -11 OFFCURVE",
"354 314 CURVE",
"354 314 OFFCURVE",
"360 168 OFFCURVE",
"454 168 CURVE",
"454 168 OFFCURVE",
"531 156 OFFCURVE",
"542 312 CURVE",
"542 312 OFFCURVE",
"537 -6 OFFCURVE",
"726 -6 CURVE",
"726 -6 OFFCURVE",
"871 -14 OFFCURVE",
"862 211 CURVE",
"862 211 OFFCURVE",
"862 400 OFFCURVE",
"797 565 CURVE",
"797 565 OFFCURVE",
"739 718 OFFCURVE",
"621 718 CURVE SMOOTH",
"466 718 OFFCURVE",
"450 500 OFFCURVE",
"450 500 CURVE SMOOTH",
"450 500 OFFCURVE"
);
}
);
width = 903;
},
{
associatedMasterId = master01;
layerId = "09E2EB0B-3900-461A-ADC8-B2C092AEC5EE";
name = "Jan 3 19, 14:14";
paths = (
{
closed = 1;
nodes = (
"451 718 OFFCURVE",
"454 510 OFFCURVE",
"454 507 CURVE",
"446 507 LINE",
"446 510 OFFCURVE",
"449 718 OFFCURVE",
"279 718 CURVE SMOOTH",
"191 718 OFFCURVE",
"30 634 OFFCURVE",
"30 211 CURVE SMOOTH",
"30 155 OFFCURVE",
"40 -6 OFFCURVE",
"198 -6 CURVE SMOOTH",
"198 -6 OFFCURVE",
"354 -11 OFFCURVE",
"354 314 CURVE",
"354 314 OFFCURVE",
"360 168 OFFCURVE",
"454 168 CURVE",
"454 168 OFFCURVE",
"531 156 OFFCURVE",
"542 312 CURVE",
"542 312 OFFCURVE",
"537 -6 OFFCURVE",
"726 -6 CURVE SMOOTH",
"741 -6 OFFCURVE",
"862 -14 OFFCURVE",
"862 211 CURVE SMOOTH",
"862 295 OFFCURVE",
"835 718 OFFCURVE",
"621 718 CURVE SMOOTH"
);
}
);
width = 903;
}
);
unicode = 004D;
},
{
glyphname = N;
lastChange = "2019-01-03 19:46:29 +0000";
layers = (
{
layerId = master01;
paths = (
{
closed = 1;
nodes = (
"201 -2 OFFCURVE",
"343 8 OFFCURVE",
"324 308 CURVE",
"328 308 LINE",
"332 267 OFFCURVE",
"365 -2 OFFCURVE",
"550 -2 CURVE SMOOTH",
"588 -2 OFFCURVE",
"668 10 OFFCURVE",
"695 148 CURVE",
"695 148 OFFCURVE",
"718 253 OFFCURVE",
"718 396 CURVE SMOOTH",
"718 582 OFFCURVE",
"703 707 OFFCURVE",
"572 707 CURVE SMOOTH",
"548 707 OFFCURVE",
"431 699 OFFCURVE",
"431 375 CURVE",
"427 375 LINE",
"426 419 OFFCURVE",
"414 714 OFFCURVE",
"233 714 CURVE SMOOTH",
"121 714 OFFCURVE",
"33 654 OFFCURVE",
"33 317 CURVE SMOOTH",
"33 161 OFFCURVE",
"45 -2 OFFCURVE",
"179 -2 CURVE SMOOTH"
);
}
);
width = 754;
},
{
associatedMasterId = master01;
layerId = "108D102C-6C39-4BED-A957-884EF3F1284C";
name = "Jan 3 19, 14:20";
paths = (
{
closed = 1;
nodes = (
"5 319 OFFCURVE",
"55 109 CURVE",
"55 109 OFFCURVE",
"79 -5 OFFCURVE",
"193 -2 CURVE",
"193 -2 OFFCURVE",
"372 -32 OFFCURVE",
"354 296 CURVE",
"354 296 OFFCURVE",
"383 -7 OFFCURVE",
"601 -2 CURVE",
"601 -2 OFFCURVE",
"725 -22 OFFCURVE",
"761 148 CURVE",
"761 148 OFFCURVE",
"813 362 OFFCURVE",
"769 593 CURVE",
"769 593 OFFCURVE",
"752 711 OFFCURVE",
"626 707 CURVE SMOOTH",
"626 707 OFFCURVE",
"464 724 OFFCURVE",
"467 450 CURVE",
"467 450 OFFCURVE",
"464 724 OFFCURVE",
"241 714 CURVE SMOOTH",
"84 707 OFFCURVE",
"55 552 OFFCURVE",
"55 552 CURVE SMOOTH",
"55 552 OFFCURVE"
);
}
);
width = 823;
},
{
associatedMasterId = master01;
layerId = "2FDF300C-5934-425A-B443-64FBF455996B";
name = "Jan 3 19, 14:20";
paths = (
{
closed = 1;
nodes = (
"8 319 OFFCURVE",
"53 109 CURVE",
"53 109 OFFCURVE",
"75 -5 OFFCURVE",
"179 -2 CURVE",
"179 -2 OFFCURVE",
"341 -32 OFFCURVE",
"325 296 CURVE",
"325 296 OFFCURVE",
"351 -7 OFFCURVE",
"550 -2 CURVE",
"550 -2 OFFCURVE",
"662 -22 OFFCURVE",
"695 148 CURVE",
"695 148 OFFCURVE",
"742 362 OFFCURVE",
"702 593 CURVE",
"702 593 OFFCURVE",
"687 711 OFFCURVE",
"572 707 CURVE SMOOTH",
"572 707 OFFCURVE",
"425 724 OFFCURVE",
"428 450 CURVE",
"428 450 OFFCURVE",
"425 724 OFFCURVE",
"222 714 CURVE SMOOTH",
"80 707 OFFCURVE",
"53 552 OFFCURVE",
"53 552 CURVE SMOOTH",
"53 552 OFFCURVE"
);
}
);
width = 754;
},
{
associatedMasterId = master01;
layerId = "2EECF090-703E-4201-971D-7D235CD5FCE3";
name = "Jan 3 19, 21:43";
paths = (
{
closed = 1;
nodes = (
"200 -2 OFFCURVE",
"339 8 OFFCURVE",
"325 296 CURVE",
"325 296 OFFCURVE",
"351 -7 OFFCURVE",
"550 -2 CURVE",
"550 -2 OFFCURVE",
"662 -22 OFFCURVE",
"695 148 CURVE",
"695 148 OFFCURVE",
"742 362 OFFCURVE",
"702 593 CURVE",
"702 593 OFFCURVE",
"687 711 OFFCURVE",
"572 707 CURVE SMOOTH",
"572 707 OFFCURVE",
"428 718 OFFCURVE",
"428 450 CURVE",
"428 450 OFFCURVE",
"425 714 OFFCURVE",
"233 714 CURVE SMOOTH",
"121 714 OFFCURVE",
"33 654 OFFCURVE",
"33 317 CURVE SMOOTH",
"33 161 OFFCURVE",
"45 -2 OFFCURVE",
"179 -2 CURVE"
);
}
);
visible = 1;
width = 754;
}
);
unicode = 004E;
},
{
glyphname = O;
lastChange = "2019-01-03 19:42:13 +0000";
layers = (
{
layerId = master01;
paths = (
{
closed = 1;
nodes = (
"360 -11 OFFCURVE",
"651 -11 OFFCURVE",
"651 365 CURVE",
"651 365 OFFCURVE",
"651 704 OFFCURVE",
"360 704 CURVE SMOOTH",
"360 704 OFFCURVE",
"33 741 OFFCURVE",
"33 327 CURVE",
"33 327 OFFCURVE",
"33 -11 OFFCURVE",
"360 -11 CURVE"
);
},
{
closed = 1;
nodes = (
"320 292 OFFCURVE",
"298 314 OFFCURVE",
"298 341 CURVE",
"298 368 OFFCURVE",
"320 391 OFFCURVE",
"347 391 CURVE",
"374 391 OFFCURVE",
"397 368 OFFCURVE",
"397 341 CURVE",
"397 314 OFFCURVE",
"374 292 OFFCURVE",
"347 292 CURVE"
);
}
);
width = 686;
},
{
associatedMasterId = master01;
layerId = "E44E3CF7-6D9D-46B4-A47B-FBF9487D5ABD";
name = "Jan 3 19, 14:26";
paths = (
{
closed = 1;
nodes = (
"33 741 OFFCURVE",
"33 327 CURVE",
"33 327 OFFCURVE",
"33 -11 OFFCURVE",
"393 -11 CURVE",
"393 -11 OFFCURVE",
"713 -11 OFFCURVE",
"713 365 CURVE",
"713 365 OFFCURVE",
"713 704 OFFCURVE",
"393 704 CURVE SMOOTH",
"393 704 OFFCURVE"
);
},
{
closed = 1;
nodes = (
"417 362 OFFCURVE",
"417 341 CURVE SMOOTH",
"417 318 OFFCURVE",
"400 304 OFFCURVE",
"378 304 CURVE SMOOTH",
"356 304 OFFCURVE",
"340 313 OFFCURVE",
"338 341 CURVE SMOOTH",
"336 362 OFFCURVE",
"355 383 OFFCURVE",
"378 383 CURVE SMOOTH",
"403 383 OFFCURVE"
);
}
);
width = 748;
}
);
unicode = 004F;
},
{
glyphname = Odieresis;
lastChange = "2019-01-03 19:42:13 +0000";
layers = (
{
components = (
{
name = O;
transform = "{1, 0, 0, 1, 10, 0}";
}
);
layerId = master01;
paths = (
{
closed = 1;
nodes = (
"491 742 OFFCURVE",
"518 777 OFFCURVE",
"518 820 CURVE SMOOTH",
"518 862 OFFCURVE",
"491 897 OFFCURVE",
"441 897 CURVE SMOOTH",
"391 897 OFFCURVE",
"364 862 OFFCURVE",
"364 820 CURVE SMOOTH",
"364 777 OFFCURVE",
"391 742 OFFCURVE",
"441 742 CURVE SMOOTH"
);
},
{
closed = 1;
nodes = (
"308 742 OFFCURVE",
"335 777 OFFCURVE",
"335 820 CURVE SMOOTH",
"335 862 OFFCURVE",
"308 897 OFFCURVE",
"258 897 CURVE SMOOTH",
"208 897 OFFCURVE",
"181 862 OFFCURVE",
"181 820 CURVE SMOOTH",
"181 777 OFFCURVE",
"208 742 OFFCURVE",
"258 742 CURVE SMOOTH"
);
}
);
width = 696;
}
);
unicode = 00D6;
},
{
glyphname = Oslash;
lastChange = "2019-01-03 19:42:13 +0000";
layers = (
{
components = (
{
name = O;
transform = "{1, 0, 0, 1, -13, 0}";
}
);
layerId = master01;
paths = (
{
closed = 1;
nodes = (
"589 592 OFFCURVE",
"614 661 OFFCURVE",
"625 693 CURVE",
"654 787 OFFCURVE",
"590 801 OFFCURVE",
"590 801 CURVE SMOOTH",
"590 801 OFFCURVE",
"520 838 OFFCURVE",
"470 756 CURVE SMOOTH",
"459 737 OFFCURVE",
"443 711 OFFCURVE",
"426 679 CURVE",
"576 558 LINE"
);
},
{
closed = 1;
nodes = (
"175 -126 OFFCURVE",
"234 -152 OFFCURVE",
"274 -84 CURVE",
"274 -84 OFFCURVE",
"294 -48 OFFCURVE",
"324 12 CURVE",
"155 69 LINE",
"144 31 OFFCURVE",
"135 -2 OFFCURVE",
"129 -27 CURVE SMOOTH",
"113 -109 OFFCURVE",
"175 -126 OFFCURVE",
"175 -126 CURVE SMOOTH"
);
}
);
width = 673;
}
);
unicode = 00D8;
},
{
glyphname = P;
lastChange = "2019-01-03 19:42:13 +0000";
layers = (
{
layerId = master01;
paths = (
{
closed = 1;
nodes = (
"264 3 OFFCURVE",
"400 10 OFFCURVE",
"360 205 CURVE",
"360 205 OFFCURVE",
"644 170 OFFCURVE",
"635 463 CURVE",
"635 463 OFFCURVE",
"631 711 OFFCURVE",
"360 721 CURVE SMOOTH",
"360 721 OFFCURVE",
"150 745 OFFCURVE",
"84 537 CURVE",
"84 537 OFFCURVE",
"24 351 OFFCURVE",
"81 143 CURVE",
"81 143 OFFCURVE",
"121 -13 OFFCURVE",
"264 3 CURVE"
);
},
{
closed = 1;
nodes = (
"331 392 OFFCURVE",
"309 414 OFFCURVE",
"309 441 CURVE",
"309 468 OFFCURVE",
"331 491 OFFCURVE",
"358 491 CURVE",
"385 491 OFFCURVE",
"408 468 OFFCURVE",
"408 441 CURVE",
"408 414 OFFCURVE",
"385 392 OFFCURVE",
"358 392 CURVE"
);
}
);
width = 679;
},
{
associatedMasterId = master01;
layerId = "6E739EE6-F6E0-4DCB-8FB8-4594D95A8CD6";
name = "Jan 3 19, 14:28";
paths = (
{
closed = 1;
nodes = (
"688 711 OFFCURVE",
"390 721 CURVE SMOOTH",
"390 721 OFFCURVE",
"159 745 OFFCURVE",
"87 537 CURVE",
"87 537 OFFCURVE",
"21 351 OFFCURVE",
"83 143 CURVE",
"83 143 OFFCURVE",
"128 -13 OFFCURVE",
"285 3 CURVE",
"285 3 OFFCURVE",
"434 10 OFFCURVE",
"390 205 CURVE",
"390 205 OFFCURVE",
"703 170 OFFCURVE",
"693 463 CURVE",
"693 463 OFFCURVE"
);
},
{
closed = 1;
nodes = (
"427 462 OFFCURVE",
"427 441 CURVE SMOOTH",
"427 418 OFFCURVE",
"410 404 OFFCURVE",
"388 404 CURVE SMOOTH",
"366 404 OFFCURVE",
"350 413 OFFCURVE",
"348 441 CURVE SMOOTH",
"346 462 OFFCURVE",
"365 483 OFFCURVE",
"388 483 CURVE SMOOTH",
"413 483 OFFCURVE"
);
}
);
width = 737;
}
);
unicode = 0050;
},
{
glyphname = Thorn;
lastChange = "2019-01-03 19:42:13 +0000";
layers = (
{
layerId = master01;
paths = (
{
closed = 1;
nodes = (
"230 -17 OFFCURVE",
"372 -20 OFFCURVE",
"340 152 CURVE",
"340 152 OFFCURVE",
"616 123 OFFCURVE",
"607 370 CURVE",
"607 370 OFFCURVE",
"612 578 OFFCURVE",
"341 587 CURVE",
"372 748 OFFCURVE",
"227 752 OFFCURVE",
"227 752 CURVE",
"97 766 OFFCURVE",
"61 627 OFFCURVE",
"61 627 CURVE",
"32 524 OFFCURVE",
"26 454 OFFCURVE",
"26 367 CURVE SMOOTH",
"26 278 OFFCURVE",
"29 202 OFFCURVE",
"63 96 CURVE",
"63 96 OFFCURVE",
"103 -23 OFFCURVE",
"230 -17 CURVE"
);
},
{
closed = 1;
nodes = (
"326 310 OFFCURVE",
"304 332 OFFCURVE",
"304 359 CURVE",
"304 386 OFFCURVE",
"326 409 OFFCURVE",
"353 409 CURVE",
"380 409 OFFCURVE",
"403 386 OFFCURVE",
"403 359 CURVE",
"403 332 OFFCURVE",
"380 310 OFFCURVE",
"353 310 CURVE"
);
}
);
width = 650;
},
{
associatedMasterId = master01;
layerId = "CCB7919F-A91C-4797-9241-C0B6F4E0A9E7";
name = "Jan 3 19, 14:29";
paths = (
{
closed = 1;
nodes = (
"670 578 OFFCURVE",
"372 587 CURVE",
"406 748 OFFCURVE",
"247 752 OFFCURVE",
"247 752 CURVE",
"104 766 OFFCURVE",
"64 627 OFFCURVE",
"64 627 CURVE",
"33 524 OFFCURVE",
"26 454 OFFCURVE",
"26 367 CURVE SMOOTH",
"26 278 OFFCURVE",
"29 202 OFFCURVE",
"67 96 CURVE",
"67 96 OFFCURVE",
"111 -23 OFFCURVE",
"250 -17 CURVE",
"250 -17 OFFCURVE",
"406 -20 OFFCURVE",
"371 152 CURVE",
"371 152 OFFCURVE",
"675 123 OFFCURVE",
"665 370 CURVE",
"665 370 OFFCURVE"
);
},
{
closed = 1;
nodes = (
"425 380 OFFCURVE",
"425 359 CURVE SMOOTH",
"425 336 OFFCURVE",
"408 322 OFFCURVE",
"386 322 CURVE SMOOTH",
"364 322 OFFCURVE",
"348 331 OFFCURVE",
"346 359 CURVE SMOOTH",
"344 380 OFFCURVE",
"363 401 OFFCURVE",
"386 401 CURVE SMOOTH",
"411 401 OFFCURVE"
);
}
);
width = 708;
}
);
unicode = 00DE;
},
{
glyphname = Q;
lastChange = "2019-01-04 13:08:03 +0000";
layers = (
{
layerId = master01;
paths = (
{
closed = 1;
nodes = (
"419 -18 OFFCURVE",
"447 -18 OFFCURVE",
"509 11 CURVE",
"533 -36 OFFCURVE",
"639 -97 OFFCURVE",
"706 15 CURVE SMOOTH",
"763 110 OFFCURVE",
"710 165 OFFCURVE",
"661 206 CURVE",
"679 245 OFFCURVE",
"690 287 OFFCURVE",
"690 360 CURVE SMOOTH",
"690 423 OFFCURVE",
"657 701 OFFCURVE",
"392 701 CURVE SMOOTH",
"303 701 OFFCURVE",
"57 684 OFFCURVE",
"57 323 CURVE SMOOTH",
"57 242 OFFCURVE",
"100 -18 OFFCURVE",
"392 -18 CURVE SMOOTH"
);
},
{
closed = 1;
nodes = (
"365 279 OFFCURVE",
"343 301 OFFCURVE",
"343 328 CURVE",
"343 355 OFFCURVE",
"365 378 OFFCURVE",
"392 378 CURVE",
"419 378 OFFCURVE",
"442 355 OFFCURVE",
"442 328 CURVE",
"442 301 OFFCURVE",
"419 279 OFFCURVE",
"392 279 CURVE"
);
}
);
width = 766;
},
{
associatedMasterId = master01;
layerId = "514A9B16-6FCD-492A-9872-6C4850631A53";
name = "Jan 3 19, 14:30";
paths = (
{
closed = 1;
nodes = (
"754 287 OFFCURVE",
"754 360 CURVE",
"754 360 OFFCURVE",
"754 701 OFFCURVE",
"426 701 CURVE SMOOTH",
"426 701 OFFCURVE",
"57 739 OFFCURVE",
"57 323 CURVE",
"57 323 OFFCURVE",
"57 -18 OFFCURVE",
"426 -18 CURVE",
"426 -18 OFFCURVE",
"486 -18 OFFCURVE",
"554 11 CURVE",
"581 -36 OFFCURVE",
"697 -97 OFFCURVE",
"771 15 CURVE SMOOTH",
"834 110 OFFCURVE",
"776 165 OFFCURVE",
"722 206 CURVE",
"741 245 OFFCURVE"
);
},
{
closed = 1;
nodes = (
"465 349 OFFCURVE",
"465 328 CURVE SMOOTH",
"465 305 OFFCURVE",
"448 291 OFFCURVE",
"426 291 CURVE SMOOTH",
"404 291 OFFCURVE",
"388 300 OFFCURVE",
"386 328 CURVE SMOOTH",
"384 349 OFFCURVE",
"403 370 OFFCURVE",
"426 370 CURVE SMOOTH",
"451 370 OFFCURVE"
);
}
);
width = 833;
},
{
associatedMasterId = master01;
layerId = "CC7D4D75-1DDC-46AC-AE44-55B7164CC7DD";
name = "Jan 3 19, 22:48";
paths = (
{
closed = 1;
nodes = (
"392 -18 OFFCURVE",
"447 -18 OFFCURVE",
"509 11 CURVE",
"533 -36 OFFCURVE",
"639 -97 OFFCURVE",
"706 15 CURVE SMOOTH",
"763 110 OFFCURVE",
"710 165 OFFCURVE",
"661 206 CURVE",
"679 245 OFFCURVE",
"690 287 OFFCURVE",
"690 360 CURVE",
"690 360 OFFCURVE",
"690 701 OFFCURVE",
"392 701 CURVE SMOOTH",
"392 701 OFFCURVE",
"57 739 OFFCURVE",
"57 323 CURVE",
"57 323 OFFCURVE",
"57 -18 OFFCURVE",
"392 -18 CURVE"
);
},
{
closed = 1;
nodes = (
"365 279 OFFCURVE",
"343 301 OFFCURVE",
"343 328 CURVE",
"343 355 OFFCURVE",
"365 378 OFFCURVE",
"392 378 CURVE",
"419 378 OFFCURVE",
"442 355 OFFCURVE",
"442 328 CURVE",
"442 301 OFFCURVE",
"419 279 OFFCURVE",
"392 279 CURVE"
);
}
);
visible = 1;
width = 766;
}
);
unicode = 0051;
},
{
glyphname = R;
lastChange = "2019-01-03 12:34:37 +0000";
layers = (
{
layerId = master01;
paths = (
{
closed = 1;
nodes = (
"203 -9 OFFCURVE",
"352 -12 OFFCURVE",
"315 191 CURVE",
"310 174 LINE",
"326 174 LINE",
"336 121 OFFCURVE",
"437 -93 OFFCURVE",
"563 18 CURVE SMOOTH",
"563 18 OFFCURVE",
"612 58 OFFCURVE",
"612 126 CURVE SMOOTH",
"612 205 OFFCURVE",
"556 177 OFFCURVE",
"520 293 CURVE",
"520 293 OFFCURVE",
"570 354 OFFCURVE",
"570 461 CURVE SMOOTH",
"570 505 OFFCURVE",
"550 709 OFFCURVE",
"318 709 CURVE SMOOTH",
"189 709 OFFCURVE",
"35 658 OFFCURVE",
"35 331 CURVE SMOOTH",
"35 223 OFFCURVE",
"51 -9 OFFCURVE",
"197 -9 CURVE SMOOTH"
);
},
{
closed = 1;
nodes = (
"291 359 OFFCURVE",
"269 381 OFFCURVE",
"269 408 CURVE",
"269 435 OFFCURVE",
"291 458 OFFCURVE",
"318 458 CURVE",
"345 458 OFFCURVE",
"368 435 OFFCURVE",
"368 408 CURVE",
"368 381 OFFCURVE",
"345 359 OFFCURVE",
"318 359 CURVE"
);
}
);
width = 630;
},
{
associatedMasterId = master01;
layerId = "6D7527DC-9A06-45D8-8996-8CF24889D488";
name = "Jan 3 19, 14:30";
paths = (
{
closed = 1;
nodes = (
"582 708 OFFCURVE",
"347 709 CURVE SMOOTH",
"347 709 OFFCURVE",
"117 731 OFFCURVE",
"60 512 CURVE",
"60 512 OFFCURVE",
"0 344 OFFCURVE",
"67 112 CURVE",
"67 112 OFFCURVE",
"102 -25 OFFCURVE",
"236 -8 CURVE",
"236 -8 OFFCURVE",
"374 4 OFFCURVE",
"347 177 CURVE",
"347 177 OFFCURVE",
"462 -105 OFFCURVE",
"616 18 CURVE",
"616 18 OFFCURVE",
"763 128 OFFCURVE",
"569 293 CURVE",
"569 293 OFFCURVE",
"644 376 OFFCURVE",
"618 519 CURVE",
"618 519 OFFCURVE"
);
},
{
closed = 1;
nodes = (
"386 429 OFFCURVE",
"386 408 CURVE SMOOTH",
"386 385 OFFCURVE",
"369 371 OFFCURVE",
"347 371 CURVE SMOOTH",
"325 371 OFFCURVE",
"309 380 OFFCURVE",
"307 408 CURVE SMOOTH",
"305 429 OFFCURVE",
"324 450 OFFCURVE",
"347 450 CURVE SMOOTH",
"372 450 OFFCURVE"
);
}
);
width = 687;
},
{
associatedMasterId = master01;
layerId = "29DDB478-AFAB-49B3-A236-679F7D978428";
name = "Jan 3 19, 14:31";
paths = (
{
closed = 1;
nodes = (
"594 519 OFFCURVE",
"561 708 OFFCURVE",
"347 709 CURVE SMOOTH",
"347 709 OFFCURVE",
"138 731 OFFCURVE",
"87 512 CURVE",
"87 512 OFFCURVE",
"32 344 OFFCURVE",
"93 112 CURVE",
"93 112 OFFCURVE",
"125 -25 OFFCURVE",
"247 -8 CURVE",
"247 -8 OFFCURVE",
"372 4 OFFCURVE",
"347 177 CURVE",
"347 177 OFFCURVE",
"452 -105 OFFCURVE",
"592 18 CURVE",
"592 18 OFFCURVE",
"726 128 OFFCURVE",
"549 293 CURVE",
"549 293 OFFCURVE",
"617 376 OFFCURVE",
"594 519 CURVE"
);
},
{
closed = 1;
nodes = (
"320 359 OFFCURVE",
"298 381 OFFCURVE",
"298 408 CURVE",
"298 435 OFFCURVE",
"320 458 OFFCURVE",
"347 458 CURVE",
"374 458 OFFCURVE",
"397 435 OFFCURVE",
"397 408 CURVE",
"397 381 OFFCURVE",
"374 359 OFFCURVE",
"347 359 CURVE"
);
}
);
visible = 1;
width = 687;
}
);
unicode = 0052;
},
{
glyphname = S;
lastChange = "2019-01-04 13:08:03 +0000";
layers = (
{
layerId = master01;
paths = (
{
closed = 1;
nodes = (
"279 -8 OFFCURVE",
"541 -13 OFFCURVE",
"541 221 CURVE SMOOTH",
"541 450 OFFCURVE",
"290 400 OFFCURVE",
"290 464 CURVE SMOOTH",
"290 525 OFFCURVE",
"511 393 OFFCURVE",
"511 568 CURVE SMOOTH",
"511 633 OFFCURVE",
"480 707 OFFCURVE",
"307 707 CURVE SMOOTH",
"143 707 OFFCURVE",
"60 640 OFFCURVE",
"60 490 CURVE SMOOTH",
"60 273 OFFCURVE",
"233 319 OFFCURVE",
"233 255 CURVE SMOOTH",
"233 187 OFFCURVE",
"35 309 OFFCURVE",
"35 129 CURVE SMOOTH",
"35 85 OFFCURVE",
"47 -4 OFFCURVE",
"257 -8 CURVE SMOOTH"
);
}
);
width = 575;
},
{
associatedMasterId = master01;
layerId = "52B2EDDA-57B0-41BD-A475-D8E5FA5BC23D";
name = "Jan 3 19, 14:34";
paths = (
{
closed = 1;
nodes = (
"543 432 OFFCURVE",
"557 564 CURVE SMOOTH",
"563 622 OFFCURVE",
"538 717 OFFCURVE",
"289 706 CURVE",
"289 706 OFFCURVE",
"91 719 OFFCURVE",
"63 519 CURVE",
"63 519 OFFCURVE",
"30 328 OFFCURVE",
"261 275 CURVE",
"261 275 OFFCURVE",
"33 312 OFFCURVE",
"35 138 CURVE",
"35 138 OFFCURVE",
"31 -28 OFFCURVE",
"331 -6 CURVE",
"331 -6 OFFCURVE",
"591 -3 OFFCURVE",
"591 239 CURVE",
"591 239 OFFCURVE",
"604 421 OFFCURVE",
"306 460 CURVE",
"306 460 OFFCURVE"
);
}
);
width = 625;
},
{
associatedMasterId = master01;
layerId = "DB8D031A-E239-4298-8183-889125202B52";
name = "Jan 3 19, 14:42";
paths = (
{
closed = 1;
nodes = (
"497 432 OFFCURVE",
"510 564 CURVE SMOOTH",
"515 622 OFFCURVE",
"493 717 OFFCURVE",
"266 706 CURVE",
"266 706 OFFCURVE",
"86 719 OFFCURVE",
"61 519 CURVE",
"61 519 OFFCURVE",
"31 328 OFFCURVE",
"241 275 CURVE",
"241 275 OFFCURVE",
"33 312 OFFCURVE",
"35 138 CURVE",
"35 138 OFFCURVE",
"32 -28 OFFCURVE",
"304 -6 CURVE",
"304 -6 OFFCURVE",
"541 -3 OFFCURVE",
"541 239 CURVE",
"541 239 OFFCURVE",
"553 421 OFFCURVE",
"282 460 CURVE",
"282 460 OFFCURVE"
);
}
);
width = 575;
},
{
associatedMasterId = master01;
layerId = "3A3D8EAA-D03C-4E81-A226-6CBBDA4911D3";
name = "Jan 3 19, 22:02";
paths = (
{
closed = 1;
nodes = (
"278 -8 OFFCURVE",
"541 -19 OFFCURVE",
"541 230 CURVE SMOOTH",
"541 236 OFFCURVE",
"557 402 OFFCURVE",
"300 453 CURVE SMOOTH",
"285 456 OFFCURVE",
"289 473 OFFCURVE",
"300 475 CURVE SMOOTH",
"384 494 OFFCURVE",
"511 417 OFFCURVE",
"511 578 CURVE SMOOTH",
"511 633 OFFCURVE",
"479 707 OFFCURVE",
"301 707 CURVE SMOOTH",
"143 707 OFFCURVE",
"60 637 OFFCURVE",
"60 494 CURVE SMOOTH",
"60 444 OFFCURVE",
"76 322 OFFCURVE",
"217 282 CURVE SMOOTH",
"234 277 OFFCURVE",
"241 252 OFFCURVE",
"219 242 CURVE SMOOTH",
"153 212 OFFCURVE",
"35 286 OFFCURVE",
"35 138 CURVE SMOOTH",
"35 138 OFFCURVE",
"32 -8 OFFCURVE",
"256 -8 CURVE SMOOTH"
);
}
);
visible = 1;
width = 575;
}
);
unicode = 0053;
},
{
glyphname = T;
lastChange = "2019-01-03 19:42:13 +0000";
layers = (
{
layerId = master01;
paths = (
{
closed = 1;
nodes = (
"357 -10 OFFCURVE",
"457 -18 OFFCURVE",
"480 107 CURVE",
"480 107 OFFCURVE",
"511 221 OFFCURVE",
"480 423 CURVE",
"480 423 OFFCURVE",
"650 398 OFFCURVE",
"650 569 CURVE SMOOTH",
"650 628 OFFCURVE",
"643 715 OFFCURVE",
"350 715 CURVE SMOOTH",
"244 715 OFFCURVE",
"36 718 OFFCURVE",
"36 547 CURVE SMOOTH",
"36 393 OFFCURVE",
"220 415 OFFCURVE",
"220 415 CURVE SMOOTH",
"220 415 OFFCURVE",
"194 242 OFFCURVE",
"220 107 CURVE SMOOTH",
"246 -23 OFFCURVE",
"357 -10 OFFCURVE",
"357 -10 CURVE SMOOTH"
);
}
);
width = 674;
},
{
associatedMasterId = master01;
layerId = "998BDBCC-1764-4F7B-BA34-837E19E77D71";
name = "Jan 3 19, 14:46";
paths = (
{
closed = 1;
nodes = (
"210 242 OFFCURVE",
"239 107 CURVE SMOOTH",
"267 -23 OFFCURVE",
"389 -10 OFFCURVE",
"389 -10 CURVE SMOOTH",
"389 -10 OFFCURVE",
"499 -18 OFFCURVE",
"525 107 CURVE",
"525 107 OFFCURVE",
"559 221 OFFCURVE",
"525 423 CURVE",
"525 423 OFFCURVE",
"706 399 OFFCURVE",
"712 569 CURVE",
"712 569 OFFCURVE",
"718 672 OFFCURVE",
"596 698 CURVE",
"596 698 OFFCURVE",
"380 739 OFFCURVE",
"168 695 CURVE",
"168 695 OFFCURVE",
"36 680 OFFCURVE",
"36 547 CURVE SMOOTH",
"36 393 OFFCURVE",
"239 415 OFFCURVE",
"239 415 CURVE SMOOTH",
"239 415 OFFCURVE"
);
}
);
width = 736;
},
{
associatedMasterId = master01;
layerId = "BC9C72A2-4E8C-46B0-A7AB-A277E5D3D26F";
name = "Jan 3 19, 14:46";
paths = (
{
closed = 1;
nodes = (
"194 242 OFFCURVE",
"220 107 CURVE SMOOTH",
"246 -23 OFFCURVE",
"357 -10 OFFCURVE",
"357 -10 CURVE SMOOTH",
"357 -10 OFFCURVE",
"457 -18 OFFCURVE",
"480 107 CURVE",
"480 107 OFFCURVE",
"511 221 OFFCURVE",
"480 423 CURVE",
"480 423 OFFCURVE",
"645 399 OFFCURVE",
"650 569 CURVE",
"650 569 OFFCURVE",
"656 672 OFFCURVE",
"545 698 CURVE",
"545 698 OFFCURVE",
"348 739 OFFCURVE",
"156 695 CURVE",
"156 695 OFFCURVE",
"36 680 OFFCURVE",
"36 547 CURVE SMOOTH",
"36 393 OFFCURVE",
"220 415 OFFCURVE",
"220 415 CURVE SMOOTH",
"220 415 OFFCURVE"
);
}
);
visible = 1;
width = 674;
}
);
unicode = 0054;
},
{
glyphname = U;
lastChange = "2019-01-03 19:42:13 +0000";
layers = (
{
layerId = master01;
paths = (
{
closed = 1;
nodes = (
"582 -17 OFFCURVE",
"636 201 OFFCURVE",
"636 201 CURVE SMOOTH",
"636 201 OFFCURVE",
"688 393 OFFCURVE",
"647 594 CURVE",
"647 594 OFFCURVE",
"623 712 OFFCURVE",
"500 704 CURVE",
"500 704 OFFCURVE",
"370 712 OFFCURVE",
"373 559 CURVE SMOOTH",
"376 445 OFFCURVE",
"382 345 OFFCURVE",
"339 345 CURVE SMOOTH",
"294 345 OFFCURVE",
"303 445 OFFCURVE",
"303 559 CURVE SMOOTH",
"303 711 OFFCURVE",
"186 711 OFFCURVE",
"186 711 CURVE SMOOTH",
"186 711 OFFCURVE",
"65 727 OFFCURVE",
"36 559 CURVE",
"36 559 OFFCURVE",
"-5 297 OFFCURVE",
"86 127 CURVE",
"86 127 OFFCURVE",
"151 -13 OFFCURVE",
"348 -15 CURVE SMOOTH"
);
}
);
width = 704;
},
{
associatedMasterId = master01;
layerId = "597551F0-8D21-45A4-BB77-72CE9CE17526";
name = "Jan 3 19, 14:46";
paths = (
{
closed = 1;
nodes = (
"69 727 OFFCURVE",
"37 559 CURVE",
"37 559 OFFCURVE",
"-8 297 OFFCURVE",
"92 127 CURVE",
"92 127 OFFCURVE",
"164 -13 OFFCURVE",
"380 -15 CURVE SMOOTH",
"638 -17 OFFCURVE",
"697 201 OFFCURVE",
"697 201 CURVE SMOOTH",
"697 201 OFFCURVE",
"754 393 OFFCURVE",
"709 594 CURVE",
"709 594 OFFCURVE",
"683 712 OFFCURVE",
"547 704 CURVE",
"547 704 OFFCURVE",
"404 712 OFFCURVE",
"408 559 CURVE SMOOTH",
"411 445 OFFCURVE",
"418 345 OFFCURVE",
"370 345 CURVE SMOOTH",
"321 345 OFFCURVE",
"331 445 OFFCURVE",
"331 559 CURVE SMOOTH",
"331 711 OFFCURVE",
"202 711 OFFCURVE",
"202 711 CURVE SMOOTH",
"202 711 OFFCURVE"
);
}
);
width = 767;
}
);
unicode = 0055;
},
{
glyphname = Udieresis;
lastChange = "2019-01-03 19:42:13 +0000";
layers = (
{
components = (
{
name = U;
}
);
layerId = master01;
paths = (
{
closed = 1;
nodes = (
"510 742 OFFCURVE",
"537 777 OFFCURVE",
"537 820 CURVE SMOOTH",
"537 862 OFFCURVE",
"510 897 OFFCURVE",
"460 897 CURVE SMOOTH",
"410 897 OFFCURVE",
"383 862 OFFCURVE",
"383 820 CURVE SMOOTH",
"383 777 OFFCURVE",
"410 742 OFFCURVE",
"460 742 CURVE SMOOTH"
);
},
{
closed = 1;
nodes = (
"327 742 OFFCURVE",
"354 777 OFFCURVE",
"354 820 CURVE SMOOTH",
"354 862 OFFCURVE",
"327 897 OFFCURVE",
"277 897 CURVE SMOOTH",
"227 897 OFFCURVE",
"200 862 OFFCURVE",
"200 820 CURVE SMOOTH",
"200 777 OFFCURVE",
"227 742 OFFCURVE",
"277 742 CURVE SMOOTH"
);
}
);
width = 704;
}
);
unicode = 00DC;
},
{
glyphname = V;
lastChange = "2019-01-04 13:08:03 +0000";
layers = (
{
layerId = master01;
paths = (
{
closed = 1;
nodes = (
"574 -5 OFFCURVE",
"677 337 OFFCURVE",
"677 337 CURVE SMOOTH",
"677 337 OFFCURVE",
"800 670 OFFCURVE",
"613 715 CURVE SMOOTH",
"425 760 OFFCURVE",
"389 328 OFFCURVE",
"386 291 CURVE",
"382 291 LINE",
"378 327 OFFCURVE",
"330 746 OFFCURVE",
"157 713 CURVE SMOOTH",
"-22 678 OFFCURVE",
"29 478 OFFCURVE",
"60 380 CURVE SMOOTH",
"90 282 OFFCURVE",
"179 -5 OFFCURVE",
"384 -5 CURVE SMOOTH"
);
}
);
width = 738;
},
{
associatedMasterId = master01;
layerId = "22876DE9-7139-4123-B2E5-6CE55EA773EC";
name = "Jan 3 19, 14:52";
paths = (
{
closed = 1;
nodes = (
"368 748 OFFCURVE",
"169 713 CURVE SMOOTH",
"-27 678 OFFCURVE",
"29 478 OFFCURVE",
"63 380 CURVE SMOOTH",
"96 282 OFFCURVE",
"194 -5 OFFCURVE",
"419 -5 CURVE SMOOTH",
"628 -5 OFFCURVE",
"741 337 OFFCURVE",
"741 337 CURVE SMOOTH",
"741 337 OFFCURVE",
"877 670 OFFCURVE",
"671 715 CURVE SMOOTH",
"455 762 OFFCURVE",
"419 424 OFFCURVE",
"419 424 CURVE SMOOTH",
"419 424 OFFCURVE"
);
}
);
width = 806;
},
{
associatedMasterId = master01;
layerId = "CC078DF0-E3E3-479B-86E2-1F4572156C7E";
name = "Jan 3 19, 14:52";
paths = (
{
closed = 1;
nodes = (
"372 748 OFFCURVE",
"191 713 CURVE SMOOTH",
"12 678 OFFCURVE",
"63 478 OFFCURVE",
"94 380 CURVE SMOOTH",
"124 282 OFFCURVE",
"213 -5 OFFCURVE",
"418 -5 CURVE SMOOTH",
"608 -5 OFFCURVE",
"711 337 OFFCURVE",
"711 337 CURVE SMOOTH",
"711 337 OFFCURVE",
"834 670 OFFCURVE",
"647 715 CURVE SMOOTH",
"451 762 OFFCURVE",
"418 424 OFFCURVE",
"418 424 CURVE SMOOTH",
"418 424 OFFCURVE"
);
}
);
width = 806;
}
);
unicode = 0056;
},
{
glyphname = W;
lastChange = "2019-01-04 12:43:45 +0000";
layers = (
{
layerId = master01;
paths = (
{
closed = 1;
nodes = (
"454 -18 OFFCURVE",
"452 190 OFFCURVE",
"452 193 CURVE",
"458 193 LINE",
"458 190 OFFCURVE",
"456 -18 OFFCURVE",
"626 -18 CURVE SMOOTH",
"840 -18 OFFCURVE",
"867 405 OFFCURVE",
"867 489 CURVE SMOOTH",
"867 714 OFFCURVE",
"746 706 OFFCURVE",
"731 706 CURVE SMOOTH",
"555 706 OFFCURVE",
"549 424 OFFCURVE",
"549 387 CURVE",
"545 387 LINE",
"532 538 OFFCURVE",
"465 547 OFFCURVE",
"455 547 CURVE SMOOTH",
"445 547 OFFCURVE",
"377 539 OFFCURVE",
"365 387 CURVE",
"361 387 LINE",
"361 428 OFFCURVE",
"354 706 OFFCURVE",
"179 706 CURVE SMOOTH",
"164 706 OFFCURVE",
"43 714 OFFCURVE",
"43 489 CURVE SMOOTH",
"43 405 OFFCURVE",
"70 -18 OFFCURVE",
"284 -18 CURVE SMOOTH"
);
}
);
width = 901;
},
{
associatedMasterId = master01;
layerId = "1B00092F-A910-4C1A-80B9-A1E541E3771D";
name = "Jan 3 19, 14:53";
paths = (
{
closed = 1;
nodes = (
"513 208 OFFCURVE",
"507 -8 OFFCURVE",
"699 -8 CURVE",
"699 -8 OFFCURVE",
"838 -15 OFFCURVE",
"906 136 CURVE",
"906 136 OFFCURVE",
"978 280 OFFCURVE",
"978 497 CURVE",
"978 497 OFFCURVE",
"983 717 OFFCURVE",
"799 714 CURVE SMOOTH",
"799 714 OFFCURVE",
"620 714 OFFCURVE",
"620 389 CURVE",
"620 389 OFFCURVE",
"625 539 OFFCURVE",
"507 540 CURVE SMOOTH",
"507 540 OFFCURVE",
"399 547 OFFCURVE",
"405 389 CURVE",
"405 389 OFFCURVE",
"413 714 OFFCURVE",
"198 714 CURVE SMOOTH",
"198 714 OFFCURVE",
"33 715 OFFCURVE",
"44 497 CURVE",
"44 497 OFFCURVE",
"44 308 OFFCURVE",
"117 143 CURVE",
"117 143 OFFCURVE",
"183 -10 OFFCURVE",
"318 -10 CURVE SMOOTH",
"494 -10 OFFCURVE",
"513 208 OFFCURVE",
"513 208 CURVE SMOOTH"
);
}
);
width = 1012;
}
);
unicode = 0057;
},
{
glyphname = X;
lastChange = "2019-01-03 19:42:13 +0000";
layers = (
{
layerId = master01;
paths = (
{
closed = 1;
nodes = (
"245 -129 OFFCURVE",
"356 172 OFFCURVE",
"356 172 CURVE",
"371 130 OFFCURVE",
"500 -115 OFFCURVE",
"644 36 CURVE SMOOTH",
"789 188 OFFCURVE",
"582 353 OFFCURVE",
"582 353 CURVE SMOOTH",
"582 353 OFFCURVE",
"775 549 OFFCURVE",
"642 677 CURVE SMOOTH",
"477 835 OFFCURVE",
"367 539 OFFCURVE",
"367 539 CURVE SMOOTH",
"367 539 OFFCURVE",
"240 821 OFFCURVE",
"80 681 CURVE SMOOTH",
"-95 529 OFFCURVE",
"154 361 OFFCURVE",
"154 361 CURVE SMOOTH",
"154 361 OFFCURVE",
"-62 189 OFFCURVE",
"87 35 CURVE SMOOTH"
);
}
);
width = 766;
},
{
associatedMasterId = master01;
layerId = "CCEEB076-A274-4A51-AE38-7E1A5F1B2B0C";
name = "Jan 3 19, 14:53";
paths = (
{
closed = 1;
nodes = (
"262 821 OFFCURVE",
"86 681 CURVE SMOOTH",
"-106 529 OFFCURVE",
"168 361 OFFCURVE",
"168 361 CURVE SMOOTH",
"168 361 OFFCURVE",
"-70 189 OFFCURVE",
"94 35 CURVE SMOOTH",
"268 -129 OFFCURVE",
"390 172 OFFCURVE",
"390 172 CURVE",
"406 130 OFFCURVE",
"548 -115 OFFCURVE",
"707 36 CURVE SMOOTH",
"866 188 OFFCURVE",
"638 353 OFFCURVE",
"638 353 CURVE SMOOTH",
"638 353 OFFCURVE",
"851 549 OFFCURVE",
"704 677 CURVE SMOOTH",
"523 835 OFFCURVE",
"402 539 OFFCURVE",
"402 539 CURVE SMOOTH",
"402 539 OFFCURVE"
);
}
);
width = 833;
}
);
unicode = 0058;
},
{
glyphname = Y;
lastChange = "2019-01-03 19:42:13 +0000";
layers = (
{
layerId = master01;
paths = (
{
closed = 1;
nodes = (
"428 -3 OFFCURVE",
"462 13 OFFCURVE",
"490 56 CURVE",
"490 56 OFFCURVE",
"559 160 OFFCURVE",
"512 327 CURVE",
"512 327 OFFCURVE",
"646 395 OFFCURVE",
"678 541 CURVE SMOOTH",
"686 578 OFFCURVE",
"689 725 OFFCURVE",
"543 725 CURVE SMOOTH",
"475 725 OFFCURVE",
"410 674 OFFCURVE",
"379 455 CURVE",
"373 455 LINE",
"373 470 OFFCURVE",
"373 731 OFFCURVE",
"185 731 CURVE SMOOTH",
"182 731 OFFCURVE",
"26 729 OFFCURVE",
"48 543 CURVE SMOOTH",
"66 393 OFFCURVE",
"230 320 OFFCURVE",
"230 320 CURVE SMOOTH",
"230 320 OFFCURVE",
"191 138 OFFCURVE",
"268 43 CURVE",
"268 43 OFFCURVE",
"304 -3 OFFCURVE",
"381 -3 CURVE SMOOTH"
);
}
);
width = 728;
},
{
associatedMasterId = master01;
layerId = "B2284D6A-117F-4E36-B2F9-12440EE2C508";
name = "Jan 3 19, 14:54";
paths = (
{
closed = 1;
nodes = (
"363 742 OFFCURVE",
"185 731 CURVE",
"185 731 OFFCURVE",
"25 719 OFFCURVE",
"48 543 CURVE SMOOTH",
"68 393 OFFCURVE",
"249 320 OFFCURVE",
"249 320 CURVE SMOOTH",
"249 320 OFFCURVE",
"206 138 OFFCURVE",
"291 43 CURVE",
"291 43 OFFCURVE",
"330 -3 OFFCURVE",
"415 -3 CURVE SMOOTH",
"467 -3 OFFCURVE",
"504 13 OFFCURVE",
"535 56 CURVE",
"535 56 OFFCURVE",
"611 160 OFFCURVE",
"559 327 CURVE",
"559 327 OFFCURVE",
"707 395 OFFCURVE",
"741 541 CURVE",
"741 541 OFFCURVE",
"780 704 OFFCURVE",
"610 724 CURVE",
"610 724 OFFCURVE",
"471 751 OFFCURVE",
"415 547 CURVE",
"415 547 OFFCURVE"
);
}
);
width = 792;
},
{
associatedMasterId = master01;
layerId = "45B58405-5F8C-463F-B239-07C4B085A577";
name = "Jan 3 19, 14:55";
paths = (
{
closed = 1;
nodes = (
"334 742 OFFCURVE",
"172 731 CURVE",
"172 731 OFFCURVE",
"27 719 OFFCURVE",
"48 543 CURVE SMOOTH",
"66 393 OFFCURVE",
"230 320 OFFCURVE",
"230 320 CURVE SMOOTH",
"230 320 OFFCURVE",
"191 138 OFFCURVE",
"268 43 CURVE",
"268 43 OFFCURVE",
"304 -3 OFFCURVE",
"381 -3 CURVE SMOOTH",
"428 -3 OFFCURVE",
"462 13 OFFCURVE",
"490 56 CURVE",
"490 56 OFFCURVE",
"559 160 OFFCURVE",
"512 327 CURVE",
"512 327 OFFCURVE",
"647 395 OFFCURVE",
"678 541 CURVE",
"678 541 OFFCURVE",
"713 704 OFFCURVE",
"558 724 CURVE",
"558 724 OFFCURVE",
"432 751 OFFCURVE",
"381 547 CURVE",
"381 547 OFFCURVE"
);
}
);
visible = 1;
width = 728;
}
);
unicode = 0059;
},
{
glyphname = Ydieresis;
lastChange = "2019-01-03 19:42:13 +0000";
layers = (
{
components = (
{
name = Y;
}
);
layerId = master01;
paths = (
{
closed = 1;
nodes = (
"495 755 OFFCURVE",
"522 790 OFFCURVE",
"522 833 CURVE SMOOTH",
"522 875 OFFCURVE",
"495 910 OFFCURVE",
"445 910 CURVE SMOOTH",
"395 910 OFFCURVE",
"368 875 OFFCURVE",
"368 833 CURVE SMOOTH",
"368 790 OFFCURVE",
"395 755 OFFCURVE",
"445 755 CURVE SMOOTH"
);
},
{
closed = 1;
nodes = (
"312 755 OFFCURVE",
"339 790 OFFCURVE",
"339 833 CURVE SMOOTH",
"339 875 OFFCURVE",
"312 910 OFFCURVE",
"262 910 CURVE SMOOTH",
"212 910 OFFCURVE",
"185 875 OFFCURVE",
"185 833 CURVE SMOOTH",
"185 790 OFFCURVE",
"212 755 OFFCURVE",
"262 755 CURVE SMOOTH"
);
}
);
width = 728;
}
);
unicode = 0178;
},
{
glyphname = Z;
lastChange = "2019-01-04 13:08:03 +0000";
layers = (
{
layerId = master01;
paths = (
{
closed = 1;
nodes = (
"478 -19 OFFCURVE",
"635 -19 OFFCURVE",
"635 152 CURVE SMOOTH",
"635 306 OFFCURVE",
"441 265 OFFCURVE",
"404 261 CURVE",
"404 269 LINE",
"535 399 OFFCURVE",
"566 552 OFFCURVE",
"566 552 CURVE",
"579 649 OFFCURVE",
"518 697 OFFCURVE",
"320 701 CURVE SMOOTH",
"22 707 OFFCURVE",
"36 541 OFFCURVE",
"36 541 CURVE",
"36 376 OFFCURVE",
"234 412 OFFCURVE",
"235 412 CURVE",
"235 406 LINE",
"206 384 OFFCURVE",
"23 235 OFFCURVE",
"67 92 CURVE SMOOTH",
"102 -24 OFFCURVE",
"225 -19 OFFCURVE",
"351 -19 CURVE SMOOTH"
);
}
);
width = 667;
},
{
associatedMasterId = master01;
layerId = "26A908E0-0FBC-43CF-9126-6858855E886B";
name = "Jan 3 19, 14:58";
paths = (
{
closed = 1;
nodes = (
"17 248 OFFCURVE",
"70 92 CURVE SMOOTH",
"109 -24 OFFCURVE",
"244 -19 OFFCURVE",
"383 -19 CURVE SMOOTH",
"522 -19 OFFCURVE",
"695 -19 OFFCURVE",
"695 152 CURVE SMOOTH",
"695 324 OFFCURVE",
"452 289 OFFCURVE",
"452 289 CURVE",
"596 419 OFFCURVE",
"619 552 OFFCURVE",
"619 552 CURVE",
"633 649 OFFCURVE",
"566 697 OFFCURVE",
"348 701 CURVE SMOOTH",
"21 707 OFFCURVE",
"36 541 OFFCURVE",
"36 541 CURVE",
"36 376 OFFCURVE",
"244 392 OFFCURVE",
"244 392 CURVE SMOOTH",
"244 392 OFFCURVE"
);
}
);
width = 727;
},
{
associatedMasterId = master01;
layerId = "C38B4647-27D7-4A7C-9F89-38B9127B2E57";
name = "Jan 4 19, 14:36";
paths = (
{
closed = 1;
nodes = (
"478 -19 OFFCURVE",
"635 -19 OFFCURVE",
"635 152 CURVE SMOOTH",
"635 324 OFFCURVE",
"414 289 OFFCURVE",
"414 289 CURVE",
"545 419 OFFCURVE",
"566 552 OFFCURVE",
"566 552 CURVE",
"579 649 OFFCURVE",
"518 697 OFFCURVE",
"320 701 CURVE SMOOTH",
"22 707 OFFCURVE",
"36 541 OFFCURVE",
"36 541 CURVE",
"36 376 OFFCURVE",
"225 392 OFFCURVE",
"225 392 CURVE SMOOTH",
"225 392 OFFCURVE",
"19 248 OFFCURVE",
"67 92 CURVE SMOOTH",
"102 -24 OFFCURVE",
"225 -19 OFFCURVE",
"351 -19 CURVE SMOOTH"
);
}
);
width = 667;
}
);
unicode = 005A;
},
{
glyphname = a;
lastChange = "2019-01-03 19:42:13 +0000";
layers = (
{
layerId = master01;
paths = (
{
closed = 1;
nodes = (
"493 -18 OFFCURVE",
"617 -39 OFFCURVE",
"603 265 CURVE",
"603 265 OFFCURVE",
"602 520 OFFCURVE",
"487 520 CURVE SMOOTH",
"404 520 OFFCURVE",
"383 435 OFFCURVE",
"383 435 CURVE SMOOTH",
"383 435 OFFCURVE",
"358 527 OFFCURVE",
"222 513 CURVE SMOOTH",
"11 492 OFFCURVE",
"30 225 OFFCURVE",
"30 225 CURVE",
"30 -4 OFFCURVE",
"204 -11 OFFCURVE",
"204 -11 CURVE",
"365 -32 OFFCURVE",
"390 76 OFFCURVE",
"390 76 CURVE",
"403 -25 OFFCURVE",
"493 -18 OFFCURVE",
"493 -18 CURVE SMOOTH"
);
},
{
closed = 1;
nodes = (
"318 189 OFFCURVE",
"296 211 OFFCURVE",
"296 238 CURVE",
"296 265 OFFCURVE",
"318 288 OFFCURVE",
"345 288 CURVE",
"372 288 OFFCURVE",
"395 265 OFFCURVE",
"395 238 CURVE",
"395 211 OFFCURVE",
"372 189 OFFCURVE",
"345 189 CURVE"
);
}
);
width = 624;
},
{
associatedMasterId = master01;
layerId = "4004F724-A4A2-4D09-8B85-61321B42246C";
name = "Dec 26 18, 00:21";
paths = (
{
closed = 1;
nodes = (
"391 527 OFFCURVE",
"242 513 CURVE SMOOTH",
"9 492 OFFCURVE",
"30 225 OFFCURVE",
"30 225 CURVE",
"30 -4 OFFCURVE",
"222 -11 OFFCURVE",
"222 -11 CURVE",
"399 -32 OFFCURVE",
"426 76 OFFCURVE",
"426 76 CURVE",
"441 -25 OFFCURVE",
"540 -18 OFFCURVE",
"540 -18 CURVE SMOOTH",
"540 -18 OFFCURVE",
"698 -39 OFFCURVE",
"683 265 CURVE",
"683 265 OFFCURVE",
"682 520 OFFCURVE",
"533 520 CURVE SMOOTH",
"442 520 OFFCURVE",
"419 435 OFFCURVE",
"419 435 CURVE SMOOTH",
"419 435 OFFCURVE"
);
},
{
closed = 1;
nodes = (
"414 257 OFFCURVE",
"414 236 CURVE SMOOTH",
"414 213 OFFCURVE",
"397 199 OFFCURVE",
"375 199 CURVE SMOOTH",
"353 199 OFFCURVE",
"337 208 OFFCURVE",
"335 236 CURVE SMOOTH",
"333 257 OFFCURVE",
"352 278 OFFCURVE",
"375 278 CURVE SMOOTH",
"400 278 OFFCURVE"
);
}
);
width = 704;
}
);
unicode = 0061;
},
{
glyphname = adieresis;
lastChange = "2019-01-03 19:42:13 +0000";
layers = (
{
components = (
{
name = a;
}
);
layerId = master01;
paths = (
{
closed = 1;
nodes = (
"450 550 OFFCURVE",
"477 585 OFFCURVE",
"477 628 CURVE SMOOTH",
"477 670 OFFCURVE",
"450 705 OFFCURVE",
"400 705 CURVE SMOOTH",
"350 705 OFFCURVE",
"323 670 OFFCURVE",
"323 628 CURVE SMOOTH",
"323 585 OFFCURVE",
"350 550 OFFCURVE",
"400 550 CURVE SMOOTH"
);
},
{
closed = 1;
nodes = (
"267 550 OFFCURVE",
"294 585 OFFCURVE",
"294 628 CURVE SMOOTH",
"294 670 OFFCURVE",
"267 705 OFFCURVE",
"217 705 CURVE SMOOTH",
"167 705 OFFCURVE",
"140 670 OFFCURVE",
"140 628 CURVE SMOOTH",
"140 585 OFFCURVE",
"167 550 OFFCURVE",
"217 550 CURVE SMOOTH"
);
}
);
width = 624;
}
);
unicode = 00E4;
},
{
glyphname = b;
lastChange = "2019-01-04 13:08:03 +0000";
layers = (
{
layerId = master01;
paths = (
{
closed = 1;
nodes = (
"141 -18 OFFCURVE",
"231 -25 OFFCURVE",
"244 76 CURVE",
"210 76 LINE",
"256 11 OFFCURVE",
"367 -29 OFFCURVE",
"465 20 CURVE",
"465 20 OFFCURVE",
"535 48 OFFCURVE",
"576 145 CURVE SMOOTH",
"611 226 OFFCURVE",
"603 358 OFFCURVE",
"552 423 CURVE SMOOTH",
"443 558 OFFCURVE",
"300 485 OFFCURVE",
"300 485 CURVE SMOOTH",
"300 485 OFFCURVE",
"345 765 OFFCURVE",
"190 765 CURVE SMOOTH",
"15 765 OFFCURVE",
"24 415 OFFCURVE",
"24 269 CURVE SMOOTH",
"24 19 OFFCURVE",
"96 -18 OFFCURVE",
"141 -18 CURVE SMOOTH"
);
},
{
closed = 1;
nodes = (
"296 200 OFFCURVE",
"274 222 OFFCURVE",
"274 249 CURVE",
"274 276 OFFCURVE",
"296 299 OFFCURVE",
"323 299 CURVE",
"350 299 OFFCURVE",
"373 276 OFFCURVE",
"373 249 CURVE",
"373 222 OFFCURVE",
"350 200 OFFCURVE",
"323 200 CURVE"
);
}
);
width = 638;
},
{
associatedMasterId = master01;
layerId = "E3FDE216-E1F6-4470-B218-0C2033D86A0B";
name = "Dec 26 18, 17:36";
paths = (
{
closed = 1;
nodes = (
"63 777 OFFCURVE",
"41 604 OFFCURVE",
"41 604 CURVE SMOOTH",
"41 604 OFFCURVE",
"-23 256 OFFCURVE",
"96 100 CURVE SMOOTH",
"167 7 OFFCURVE",
"341 -50 OFFCURVE",
"494 20 CURVE",
"494 20 OFFCURVE",
"571 48 OFFCURVE",
"616 145 CURVE SMOOTH",
"654 226 OFFCURVE",
"646 358 OFFCURVE",
"589 423 CURVE SMOOTH",
"470 558 OFFCURVE",
"312 485 OFFCURVE",
"312 485 CURVE SMOOTH",
"312 485 OFFCURVE",
"372 749 OFFCURVE",
"201 765 CURVE SMOOTH"
);
},
{
closed = 1;
nodes = (
"362 289 OFFCURVE",
"376 268 OFFCURVE",
"376 247 CURVE SMOOTH",
"376 224 OFFCURVE",
"359 210 OFFCURVE",
"337 210 CURVE SMOOTH",
"315 210 OFFCURVE",
"299 219 OFFCURVE",
"297 247 CURVE SMOOTH",
"295 268 OFFCURVE",
"314 289 OFFCURVE",
"337 289 CURVE SMOOTH"
);
}
);
width = 680;
},
{
associatedMasterId = master01;
layerId = "DCF682FA-60D0-4BCB-A331-FD392865ED95";
name = "Dec 26 18, 17:41";
paths = (
{
closed = 1;
nodes = (
"243 11 OFFCURVE",
"354 -29 OFFCURVE",
"452 20 CURVE",
"452 20 OFFCURVE",
"522 48 OFFCURVE",
"563 145 CURVE SMOOTH",
"598 226 OFFCURVE",
"590 358 OFFCURVE",
"539 423 CURVE SMOOTH",
"430 558 OFFCURVE",
"287 485 OFFCURVE",
"287 485 CURVE SMOOTH",
"287 485 OFFCURVE",
"341 749 OFFCURVE",
"186 765 CURVE SMOOTH",
"60 777 OFFCURVE",
"40 604 OFFCURVE",
"40 604 CURVE",
"-41 48 OFFCURVE",
"68 -18 OFFCURVE",
"128 -18 CURVE SMOOTH",
"128 -18 OFFCURVE",
"218 -25 OFFCURVE",
"231 76 CURVE",
"197 76 LINE"
);
},
{
closed = 1;
nodes = (
"341 299 OFFCURVE",
"359 273 OFFCURVE",
"359 246 CURVE SMOOTH",
"359 218 OFFCURVE",
"338 200 OFFCURVE",
"310 200 CURVE SMOOTH",
"283 200 OFFCURVE",
"263 211 OFFCURVE",
"260 246 CURVE SMOOTH",
"258 273 OFFCURVE",
"281 299 OFFCURVE",
"310 299 CURVE SMOOTH"
);
}
);
width = 625;
},
{
associatedMasterId = master01;
layerId = "4926CE56-6CF0-4B32-9A11-7009F4AAE53C";
name = "Jan 3 19, 22:42";
paths = (
{
closed = 1;
nodes = (
"243 11 OFFCURVE",
"354 -29 OFFCURVE",
"452 20 CURVE",
"452 20 OFFCURVE",
"522 48 OFFCURVE",
"563 145 CURVE SMOOTH",
"598 226 OFFCURVE",
"590 358 OFFCURVE",
"539 423 CURVE SMOOTH",
"430 558 OFFCURVE",
"287 485 OFFCURVE",
"287 485 CURVE SMOOTH",
"287 485 OFFCURVE",
"341 749 OFFCURVE",
"186 765 CURVE SMOOTH",
"60 777 OFFCURVE",
"40 604 OFFCURVE",
"40 604 CURVE",
"-41 48 OFFCURVE",
"68 -18 OFFCURVE",
"128 -18 CURVE SMOOTH",
"128 -18 OFFCURVE",
"218 -25 OFFCURVE",
"231 76 CURVE",
"197 76 LINE"
);
},
{
closed = 1;
nodes = (
"341 299 OFFCURVE",
"359 273 OFFCURVE",
"359 246 CURVE SMOOTH",
"359 218 OFFCURVE",
"338 200 OFFCURVE",
"310 200 CURVE SMOOTH",
"283 200 OFFCURVE",
"263 211 OFFCURVE",
"260 246 CURVE SMOOTH",
"258 273 OFFCURVE",
"281 299 OFFCURVE",
"310 299 CURVE SMOOTH"
);
}
);
width = 625;
},
{
associatedMasterId = master01;
layerId = "5FEDB2A3-E107-4ABB-9DCC-F61E38341835";
name = "Jan 3 19, 22:43";
paths = (
{
closed = 1;
nodes = (
"141 -18 OFFCURVE",
"231 -25 OFFCURVE",
"244 76 CURVE",
"210 76 LINE",
"256 11 OFFCURVE",
"367 -29 OFFCURVE",
"465 20 CURVE",
"465 20 OFFCURVE",
"535 48 OFFCURVE",
"576 145 CURVE SMOOTH",
"611 226 OFFCURVE",
"603 358 OFFCURVE",
"552 423 CURVE SMOOTH",
"443 558 OFFCURVE",
"300 485 OFFCURVE",
"300 485 CURVE SMOOTH",
"300 485 OFFCURVE",
"354 749 OFFCURVE",
"199 765 CURVE SMOOTH",
"73 777 OFFCURVE",
"53 604 OFFCURVE",
"53 604 CURVE",
"-28 48 OFFCURVE",
"81 -18 OFFCURVE",
"141 -18 CURVE SMOOTH"
);
},
{
closed = 1;
nodes = (
"296 200 OFFCURVE",
"274 222 OFFCURVE",
"274 249 CURVE",
"274 276 OFFCURVE",
"296 299 OFFCURVE",
"323 299 CURVE",
"350 299 OFFCURVE",
"373 276 OFFCURVE",
"373 249 CURVE",
"373 222 OFFCURVE",
"350 200 OFFCURVE",
"323 200 CURVE"
);
}
);
visible = 1;
width = 638;
}
);
unicode = 0062;
},
{
glyphname = c;
lastChange = "2019-01-03 19:42:13 +0000";
layers = (
{
layerId = master01;
paths = (
{
closed = 1;
nodes = (
"331 -73 OFFCURVE",
"451 26 OFFCURVE",
"451 26 CURVE",
"542 98 OFFCURVE",
"497 184 OFFCURVE",
"497 184 CURVE",
"444 278 OFFCURVE",
"354 233 OFFCURVE",
"354 233 CURVE",
"289 206 OFFCURVE",
"289 256 OFFCURVE",
"289 256 CURVE",
"289 307 OFFCURVE",
"353 285 OFFCURVE",
"353 285 CURVE",
"458 263 OFFCURVE",
"484 343 OFFCURVE",
"484 343 CURVE",
"509 422 OFFCURVE",
"464 465 OFFCURVE",
"464 465 CURVE",
"358 573 OFFCURVE",
"202 515 OFFCURVE",
"202 515 CURVE",
"32 458 OFFCURVE",
"38 255 OFFCURVE",
"38 255 CURVE",
"38 71 OFFCURVE",
"155 14 OFFCURVE",
"155 14 CURVE"
);
}
);
width = 524;
},
{
associatedMasterId = master01;
layerId = "CE8736B3-DDE6-45A0-ACBA-56CC0D25477D";
name = "Dec 29 18, 22:09";
paths = (
{
closed = 1;
nodes = (
"528 343 OFFCURVE",
"528 343 CURVE",
"556 422 OFFCURVE",
"506 465 OFFCURVE",
"506 465 CURVE",
"390 573 OFFCURVE",
"218 515 OFFCURVE",
"218 515 CURVE",
"31 458 OFFCURVE",
"38 255 OFFCURVE",
"38 255 CURVE",
"38 71 OFFCURVE",
"166 14 OFFCURVE",
"166 14 CURVE",
"360 -73 OFFCURVE",
"492 26 OFFCURVE",
"492 26 CURVE",
"592 98 OFFCURVE",
"542 184 OFFCURVE",
"542 184 CURVE",
"484 278 OFFCURVE",
"385 233 OFFCURVE",
"385 233 CURVE",
"314 206 OFFCURVE",
"314 256 OFFCURVE",
"314 256 CURVE",
"314 307 OFFCURVE",
"384 285 OFFCURVE",
"384 285 CURVE",
"499 263 OFFCURVE"
);
}
);
width = 570;
}
);
unicode = 0063;
},
{
glyphname = ccedilla;
lastChange = "2019-01-03 19:42:13 +0000";
layers = (
{
components = (
{
name = c;
}
);
layerId = master01;
paths = (
{
closed = 1;
nodes = (
"279 -250 OFFCURVE",
"362 -262 OFFCURVE",
"405 -226 CURVE SMOOTH",
"426 -209 OFFCURVE",
"441 -181 OFFCURVE",
"441 -143 CURVE SMOOTH",
"441 -102 OFFCURVE",
"429 -74 OFFCURVE",
"406 -58 CURVE SMOOTH",
"379 -39 OFFCURVE",
"345 -34 OFFCURVE",
"318 -34 CURVE",
"318 -26 OFFCURVE",
"318 2 OFFCURVE",
"318 10 CURVE",
"228 23 LINE",
"228 -82 LINE SMOOTH",
"228 -114 OFFCURVE",
"245 -113 OFFCURVE",
"265 -114 CURVE",
"317 -114 OFFCURVE",
"345 -119 OFFCURVE",
"345 -144 CURVE SMOOTH",
"345 -172 OFFCURVE",
"280 -164 OFFCURVE",
"280 -164 CURVE",
"251 -161 OFFCURVE",
"237 -178 OFFCURVE",
"235 -200 CURVE SMOOTH",
"232 -228 OFFCURVE",
"254 -250 OFFCURVE",
"279 -250 CURVE"
);
}
);
width = 524;
}
);
unicode = 00E7;
},
{
glyphname = d;
lastChange = "2019-01-03 19:42:13 +0000";
layers = (
{
layerId = master01;
paths = (
{
closed = 1;
nodes = (
"236 -38 OFFCURVE",
"381 -30 OFFCURVE",
"475 23 CURVE",
"475 24 OFFCURVE",
"568 -42 OFFCURVE",
"630 30 CURVE SMOOTH",
"674 81 OFFCURVE",
"677 181 OFFCURVE",
"606 218 CURVE",
"649 385 OFFCURVE",
"628 571 OFFCURVE",
"628 571 CURVE SMOOTH",
"628 571 OFFCURVE",
"616 755 OFFCURVE",
"479 755 CURVE SMOOTH",
"324 755 OFFCURVE",
"368 486 OFFCURVE",
"368 486 CURVE SMOOTH",
"368 486 OFFCURVE",
"218 546 OFFCURVE",
"106 430 CURVE SMOOTH",
"35 355 OFFCURVE",
"32 227 OFFCURVE",
"51 145 CURVE SMOOTH",
"72 55 OFFCURVE",
"149 12 OFFCURVE",
"149 12 CURVE"
);
},
{
closed = 1;
nodes = (
"338 189 OFFCURVE",
"316 211 OFFCURVE",
"316 238 CURVE",
"316 265 OFFCURVE",
"338 288 OFFCURVE",
"365 288 CURVE",
"392 288 OFFCURVE",
"415 265 OFFCURVE",
"415 238 CURVE",
"415 211 OFFCURVE",
"392 189 OFFCURVE",
"365 189 CURVE"
);
}
);
width = 691;
},
{
associatedMasterId = master01;
layerId = "6327CE7B-AE23-425A-9ED4-162A012D0800";
name = "Dec 29 18, 22:10";
paths = (
{
closed = 1;
nodes = (
"741 181 OFFCURVE",
"663 218 CURVE",
"710 385 OFFCURVE",
"687 571 OFFCURVE",
"687 571 CURVE SMOOTH",
"687 571 OFFCURVE",
"674 755 OFFCURVE",
"523 755 CURVE SMOOTH",
"352 755 OFFCURVE",
"401 486 OFFCURVE",
"401 486 CURVE SMOOTH",
"401 486 OFFCURVE",
"236 546 OFFCURVE",
"113 430 CURVE SMOOTH",
"34 355 OFFCURVE",
"31 227 OFFCURVE",
"52 145 CURVE SMOOTH",
"75 55 OFFCURVE",
"160 12 OFFCURVE",
"160 12 CURVE",
"256 -38 OFFCURVE",
"415 -30 OFFCURVE",
"518 23 CURVE",
"518 24 OFFCURVE",
"621 -42 OFFCURVE",
"689 30 CURVE SMOOTH",
"737 81 OFFCURVE"
);
},
{
closed = 1;
nodes = (
"435 257 OFFCURVE",
"435 236 CURVE SMOOTH",
"435 213 OFFCURVE",
"418 199 OFFCURVE",
"396 199 CURVE SMOOTH",
"374 199 OFFCURVE",
"358 208 OFFCURVE",
"356 236 CURVE SMOOTH",
"354 257 OFFCURVE",
"373 278 OFFCURVE",
"396 278 CURVE SMOOTH",
"421 278 OFFCURVE"
);
}
);
width = 754;
}
);
unicode = 0064;
},
{
glyphname = eth;
lastChange = "2019-01-03 19:42:13 +0000";
layers = (
{
components = (
{
name = d;
transform = "{1, 0, 0, 1, -23, 17}";
}
);
layerId = master01;
paths = (
{
closed = 1;
nodes = (
"402 703 LINE",
"376 701 OFFCURVE",
"339 699 OFFCURVE",
"313 696 CURVE SMOOTH",
"208 683 OFFCURVE",
"218 617 OFFCURVE",
"218 617 CURVE SMOOTH",
"218 617 OFFCURVE",
"217 556 OFFCURVE",
"310 550 CURVE",
"330 548 OFFCURVE",
"361 547 OFFCURVE",
"383 546 CURVE"
);
},
{
closed = 1;
nodes = (
"597 550 OFFCURVE",
"629 553 OFFCURVE",
"648 555 CURVE",
"728 567 OFFCURVE",
"719 629 OFFCURVE",
"719 629 CURVE SMOOTH",
"719 629 OFFCURVE",
"722 687 OFFCURVE",
"629 696 CURVE",
"629 696 OFFCURVE",
"585 699 OFFCURVE",
"532 702 CURVE",
"572 549 LINE"
);
}
);
width = 741;
}
);
unicode = 00F0;
},
{
glyphname = e;
lastChange = "2019-02-06 17:05:13 +0000";
layers = (
{
layerId = master01;
paths = (
{
closed = 1;
nodes = (
"264 268 OFFCURVE",
"242 290 OFFCURVE",
"242 317 CURVE",
"242 344 OFFCURVE",
"264 367 OFFCURVE",
"291 367 CURVE",
"318 367 OFFCURVE",
"341 344 OFFCURVE",
"341 317 CURVE",
"341 290 OFFCURVE",
"318 268 OFFCURVE",
"291 268 CURVE"
);
},
{
closed = 1;
nodes = (
"405 -15 OFFCURVE",
"506 43 OFFCURVE",
"506 119 CURVE SMOOTH",
"506 141 OFFCURVE",
"491 165 OFFCURVE",
"457 165 CURVE SMOOTH",
"415 165 OFFCURVE",
"386 128 OFFCURVE",
"329 128 CURVE SMOOTH",
"260 128 OFFCURVE",
"242 193 OFFCURVE",
"242 235 CURVE",
"205 206 LINE",
"236 188 OFFCURVE",
"274 178 OFFCURVE",
"319 178 CURVE SMOOTH",
"453 178 OFFCURVE",
"520 268 OFFCURVE",
"520 357 CURVE SMOOTH",
"520 458 OFFCURVE",
"432 529 OFFCURVE",
"292 529 CURVE SMOOTH",
"117 529 OFFCURVE",
"31 418 OFFCURVE",
"31 263 CURVE SMOOTH",
"31 101 OFFCURVE",
"117 -15 OFFCURVE",
"292 -15 CURVE SMOOTH"
);
}
);
width = 548;
},
{
associatedMasterId = master01;
layerId = "9B5EBF1F-3AC0-4975-8451-58A7DCF740C7";
name = "Jan 3 19, 15:01";
paths = (
{
closed = 1;
nodes = (
"452 189 OFFCURVE",
"558 217 OFFCURVE",
"557 320 CURVE SMOOTH",
"556 412 OFFCURVE",
"501 460 OFFCURVE",
"501 460 CURVE",
"373 574 OFFCURVE",
"197 513 OFFCURVE",
"197 513 CURVE",
"31 453 OFFCURVE",
"31 261 OFFCURVE",
"31 261 CURVE",
"24 75 OFFCURVE",
"168 19 OFFCURVE",
"168 19 CURVE",
"330 -47 OFFCURVE",
"480 5 OFFCURVE",
"480 5 CURVE",
"562 38 OFFCURVE",
"551 108 OFFCURVE",
"551 108 CURVE",
"539 201 OFFCURVE",
"436 145 OFFCURVE",
"359 207 CURVE"
);
},
{
closed = 1;
nodes = (
"358 334 OFFCURVE",
"372 313 OFFCURVE",
"372 292 CURVE SMOOTH",
"372 269 OFFCURVE",
"355 255 OFFCURVE",
"333 255 CURVE SMOOTH",
"311 255 OFFCURVE",
"295 264 OFFCURVE",
"293 292 CURVE SMOOTH",
"291 313 OFFCURVE",
"310 334 OFFCURVE",
"333 334 CURVE SMOOTH"
);
}
);
width = 585;
},
{
associatedMasterId = master01;
layerId = "6C15A9BF-F157-4B53-9DF4-FCB7984405BF";
name = "Jan 3 19, 22:24";
paths = (
{
closed = 1;
nodes = (
"514 38 OFFCURVE",
"504 108 OFFCURVE",
"504 108 CURVE",
"493 201 OFFCURVE",
"399 145 OFFCURVE",
"329 207 CURVE",
"414 189 OFFCURVE",
"510 217 OFFCURVE",
"509 320 CURVE SMOOTH",
"508 412 OFFCURVE",
"458 460 OFFCURVE",
"458 460 CURVE",
"342 574 OFFCURVE",
"182 513 OFFCURVE",
"182 513 CURVE",
"31 453 OFFCURVE",
"31 261 OFFCURVE",
"31 261 CURVE",
"25 75 OFFCURVE",
"155 19 OFFCURVE",
"155 19 CURVE",
"303 -47 OFFCURVE",
"439 5 OFFCURVE",
"439 5 CURVE"
);
},
{
closed = 1;
nodes = (
"278 255 OFFCURVE",
"256 277 OFFCURVE",
"256 304 CURVE",
"256 331 OFFCURVE",
"278 354 OFFCURVE",
"305 354 CURVE",
"332 354 OFFCURVE",
"355 331 OFFCURVE",
"355 304 CURVE",
"355 277 OFFCURVE",
"332 255 OFFCURVE",
"305 255 CURVE"
);
}
);
width = 537;
},
{
associatedMasterId = master01;
layerId = "7D6FD9C6-281E-470F-AC2B-411ABAD8128E";
name = "Jan 15 19, 19:07";
paths = (
{
closed = 1;
nodes = (
"424 -14 OFFCURVE",
"504 16 OFFCURVE",
"504 100 CURVE SMOOTH",
"504 245 OFFCURVE",
"276 55 OFFCURVE",
"276 207 CURVE",
"414 178 OFFCURVE",
"510 217 OFFCURVE",
"509 320 CURVE SMOOTH",
"507 465 OFFCURVE",
"395 529 OFFCURVE",
"282 529 CURVE SMOOTH",
"88 529 OFFCURVE",
"31 372 OFFCURVE",
"31 261 CURVE SMOOTH",
"31 30 OFFCURVE",
"195 -14 OFFCURVE",
"315 -14 CURVE SMOOTH"
);
},
{
closed = 1;
nodes = (
"278 255 OFFCURVE",
"256 277 OFFCURVE",
"256 304 CURVE",
"256 331 OFFCURVE",
"278 354 OFFCURVE",
"305 354 CURVE",
"332 354 OFFCURVE",
"355 331 OFFCURVE",
"355 304 CURVE",
"355 277 OFFCURVE",
"332 255 OFFCURVE",
"305 255 CURVE"
);
}
);
width = 537;
},
{
associatedMasterId = master01;
backgroundImage = {
crop = "{{0, 0}, {155, 144}}";
imagePath = "../../../Dropbox/screenshots/Screenshot 2019-01-15 19.11.56.png";
transform = "{4.86529, 0, 0, 4.86529, -1030, -94}";
};
layerId = "5914DC85-E907-4CF6-B443-830F2526A557";
name = "Jan 15 19, 19:13";
paths = (
{
closed = 1;
nodes = (
"424 -14 OFFCURVE",
"504 16 OFFCURVE",
"504 100 CURVE SMOOTH",
"504 245 OFFCURVE",
"276 55 OFFCURVE",
"276 207 CURVE",
"414 178 OFFCURVE",
"510 217 OFFCURVE",
"509 320 CURVE SMOOTH",
"507 465 OFFCURVE",
"395 529 OFFCURVE",
"282 529 CURVE SMOOTH",
"88 529 OFFCURVE",
"31 372 OFFCURVE",
"31 261 CURVE SMOOTH",
"31 30 OFFCURVE",
"195 -14 OFFCURVE",
"315 -14 CURVE SMOOTH"
);
},
{
closed = 1;
nodes = (
"278 255 OFFCURVE",
"256 277 OFFCURVE",
"256 304 CURVE",
"256 331 OFFCURVE",
"278 354 OFFCURVE",
"305 354 CURVE",
"332 354 OFFCURVE",
"355 331 OFFCURVE",
"355 304 CURVE",
"355 277 OFFCURVE",
"332 255 OFFCURVE",
"305 255 CURVE"
);
}
);
width = 537;
},
{
associatedMasterId = master01;
backgroundImage = {
crop = "{{0, 0}, {155, 144}}";
imagePath = "../../../Dropbox/screenshots/Screenshot 2019-01-15 19.11.56.png";
transform = "{4.86529, 0, 0, 4.86529, -1030, -94}";
};
layerId = "EF8B144B-EB16-4E50-9985-BF40B5BD93C5";
name = "Jan 15 19, 19:14";
paths = (
{
closed = 1;
nodes = (
"424 -14 OFFCURVE",
"504 16 OFFCURVE",
"504 100 CURVE SMOOTH",
"504 245 OFFCURVE",
"276 55 OFFCURVE",
"276 207 CURVE",
"414 178 OFFCURVE",
"510 217 OFFCURVE",
"509 320 CURVE SMOOTH",
"507 465 OFFCURVE",
"395 529 OFFCURVE",
"282 529 CURVE SMOOTH",
"88 529 OFFCURVE",
"31 372 OFFCURVE",
"31 261 CURVE SMOOTH",
"31 30 OFFCURVE",
"195 -14 OFFCURVE",
"315 -14 CURVE SMOOTH"
);
},
{
closed = 1;
nodes = (
"278 255 OFFCURVE",
"256 277 OFFCURVE",
"256 304 CURVE",
"256 331 OFFCURVE",
"278 354 OFFCURVE",
"305 354 CURVE",
"332 354 OFFCURVE",
"355 331 OFFCURVE",
"355 304 CURVE",
"355 277 OFFCURVE",
"332 255 OFFCURVE",
"305 255 CURVE"
);
}
);
width = 537;
},
{
associatedMasterId = master01;
layerId = "38F2FB59-AD78-454D-92FB-62C0756F5B7C";
name = "Feb 2 19, 18:20";
paths = (
{
closed = 1;
nodes = (
"434 -15 OFFCURVE",
"496 79 OFFCURVE",
"496 128 CURVE SMOOTH",
"496 152 OFFCURVE",
"481 178 OFFCURVE",
"446 178 CURVE SMOOTH",
"403 178 OFFCURVE",
"373 138 OFFCURVE",
"315 138 CURVE SMOOTH",
"264 138 OFFCURVE",
"238 169 OFFCURVE",
"238 192 CURVE SMOOTH",
"238 207 OFFCURVE",
"244 217 OFFCURVE",
"250 227 CURVE",
"220 219 LINE",
"240 207 OFFCURVE",
"270 198 OFFCURVE",
"321 198 CURVE SMOOTH",
"432 198 OFFCURVE",
"495 239 OFFCURVE",
"495 337 CURVE SMOOTH",
"495 446 OFFCURVE",
"416 529 OFFCURVE",
"277 529 CURVE SMOOTH",
"117 529 OFFCURVE",
"31 418 OFFCURVE",
"31 263 CURVE",
"31 142 OFFCURVE",
"83 -15 OFFCURVE",
"281 -15 CURVE SMOOTH"
);
},
{
closed = 1;
nodes = (
"278 255 OFFCURVE",
"256 277 OFFCURVE",
"256 304 CURVE",
"256 331 OFFCURVE",
"278 354 OFFCURVE",
"305 354 CURVE",
"332 354 OFFCURVE",
"355 331 OFFCURVE",
"355 304 CURVE",
"355 277 OFFCURVE",
"332 255 OFFCURVE",
"305 255 CURVE"
);
}
);
visible = 1;
width = 537;
},
{
associatedMasterId = master01;
layerId = "51D4B8A1-E0C3-4E2A-A232-BDB3D8520EA1";
name = "Feb 2 19, 18:35";
paths = (
{
closed = 1;
nodes = (
"434 -15 OFFCURVE",
"496 79 OFFCURVE",
"496 128 CURVE SMOOTH",
"496 152 OFFCURVE",
"481 178 OFFCURVE",
"446 178 CURVE SMOOTH",
"403 178 OFFCURVE",
"373 138 OFFCURVE",
"315 138 CURVE SMOOTH",
"246 138 OFFCURVE",
"227 193 OFFCURVE",
"227 235 CURVE",
"193 230 LINE",
"222 208 OFFCURVE",
"266 198 OFFCURVE",
"321 198 CURVE SMOOTH",
"432 198 OFFCURVE",
"495 239 OFFCURVE",
"495 337 CURVE SMOOTH",
"495 446 OFFCURVE",
"416 529 OFFCURVE",
"277 529 CURVE SMOOTH",
"117 529 OFFCURVE",
"31 418 OFFCURVE",
"31 263 CURVE",
"31 142 OFFCURVE",
"83 -15 OFFCURVE",
"281 -15 CURVE SMOOTH"
);
},
{
closed = 1;
nodes = (
"294 255 OFFCURVE",
"272 277 OFFCURVE",
"272 304 CURVE",
"272 331 OFFCURVE",
"294 354 OFFCURVE",
"321 354 CURVE",
"348 354 OFFCURVE",
"371 331 OFFCURVE",
"371 304 CURVE",
"371 277 OFFCURVE",
"348 255 OFFCURVE",
"321 255 CURVE"
);
}
);
width = 537;
},
{
associatedMasterId = master01;
layerId = "73ACAE64-E11B-45A0-8782-D16C960C96C0";
name = "Feb 2 19, 18:44";
paths = (
{
closed = 1;
nodes = (
"245 268 OFFCURVE",
"223 290 OFFCURVE",
"223 317 CURVE",
"223 344 OFFCURVE",
"245 367 OFFCURVE",
"272 367 CURVE",
"299 367 OFFCURVE",
"322 344 OFFCURVE",
"322 317 CURVE",
"322 290 OFFCURVE",
"299 268 OFFCURVE",
"272 268 CURVE"
);
},
{
closed = 1;
nodes = (
"190 226 LINE",
"221 208 OFFCURVE",
"259 198 OFFCURVE",
"304 198 CURVE SMOOTH",
"418 198 OFFCURVE",
"495 262 OFFCURVE",
"495 357 CURVE SMOOTH",
"495 456 OFFCURVE",
"407 529 OFFCURVE",
"277 529 CURVE SMOOTH",
"117 529 OFFCURVE",
"31 418 OFFCURVE",
"31 263 CURVE",
"31 142 OFFCURVE",
"83 -15 OFFCURVE",
"281 -15 CURVE SMOOTH",
"434 -15 OFFCURVE",
"496 79 OFFCURVE",
"496 128 CURVE SMOOTH",
"496 152 OFFCURVE",
"481 178 OFFCURVE",
"446 178 CURVE SMOOTH",
"403 178 OFFCURVE",
"373 138 OFFCURVE",
"315 138 CURVE SMOOTH",
"246 138 OFFCURVE",
"227 193 OFFCURVE",
"227 235 CURVE"
);
}
);
width = 537;
},
{
associatedMasterId = master01;
layerId = "9AD3E677-E216-4921-8C8A-18FA6B19CA62";
name = "Feb 2 19, 18:54";
paths = (
{
closed = 1;
nodes = (
"245 268 OFFCURVE",
"223 290 OFFCURVE",
"223 317 CURVE",
"223 344 OFFCURVE",
"245 367 OFFCURVE",
"272 367 CURVE",
"299 367 OFFCURVE",
"322 344 OFFCURVE",
"322 317 CURVE",
"322 290 OFFCURVE",
"299 268 OFFCURVE",
"272 268 CURVE"
);
},
{
closed = 1;
nodes = (
"496 152 OFFCURVE",
"481 178 OFFCURVE",
"446 178 CURVE SMOOTH",
"403 178 OFFCURVE",
"373 138 OFFCURVE",
"315 138 CURVE SMOOTH",
"246 138 OFFCURVE",
"227 193 OFFCURVE",
"227 235 CURVE",
"190 226 LINE",
"221 208 OFFCURVE",
"259 198 OFFCURVE",
"304 198 CURVE SMOOTH",
"418 198 OFFCURVE",
"495 262 OFFCURVE",
"495 357 CURVE SMOOTH",
"495 456 OFFCURVE",
"407 529 OFFCURVE",
"277 529 CURVE SMOOTH",
"117 529 OFFCURVE",
"31 418 OFFCURVE",
"31 263 CURVE SMOOTH",
"31 101 OFFCURVE",
"117 -15 OFFCURVE",
"277 -15 CURVE SMOOTH",
"393 -15 OFFCURVE",
"496 47 OFFCURVE",
"496 128 CURVE SMOOTH"
);
}
);
width = 537;
},
{
associatedMasterId = master01;
layerId = "0B6209F0-C235-495C-9399-EE1DF18CABD9";
name = "Feb 6 19, 18:54";
paths = (
{
closed = 1;
nodes = (
"245 268 OFFCURVE",
"223 290 OFFCURVE",
"223 317 CURVE",
"223 344 OFFCURVE",
"245 367 OFFCURVE",
"272 367 CURVE",
"299 367 OFFCURVE",
"322 344 OFFCURVE",
"322 317 CURVE",
"322 290 OFFCURVE",
"299 268 OFFCURVE",
"272 268 CURVE"
);
},
{
closed = 1;
nodes = (
"496 152 OFFCURVE",
"481 178 OFFCURVE",
"446 178 CURVE SMOOTH",
"403 178 OFFCURVE",
"373 138 OFFCURVE",
"315 138 CURVE SMOOTH",
"246 138 OFFCURVE",
"227 193 OFFCURVE",
"227 235 CURVE",
"190 226 LINE",
"221 208 OFFCURVE",
"259 198 OFFCURVE",
"304 198 CURVE SMOOTH",
"418 198 OFFCURVE",
"495 262 OFFCURVE",
"495 357 CURVE SMOOTH",
"495 456 OFFCURVE",
"407 529 OFFCURVE",
"277 529 CURVE SMOOTH",
"117 529 OFFCURVE",
"31 418 OFFCURVE",
"31 263 CURVE SMOOTH",
"31 101 OFFCURVE",
"117 -15 OFFCURVE",
"277 -15 CURVE SMOOTH",
"393 -15 OFFCURVE",
"496 47 OFFCURVE",
"496 128 CURVE SMOOTH"
);
}
);
width = 537;
},
{
associatedMasterId = master01;
layerId = "F81087CB-2EF7-4CEE-80A8-23E9EF911F95";
name = "Feb 6 19, 18:59";
paths = (
{
closed = 1;
nodes = (
"511 152 OFFCURVE",
"496 178 OFFCURVE",
"461 178 CURVE SMOOTH",
"418 178 OFFCURVE",
"388 138 OFFCURVE",
"330 138 CURVE SMOOTH",
"261 138 OFFCURVE",
"242 193 OFFCURVE",
"242 235 CURVE",
"205 226 LINE",
"236 208 OFFCURVE",
"274 198 OFFCURVE",
"319 198 CURVE SMOOTH",
"443 198 OFFCURVE",
"520 262 OFFCURVE",
"520 357 CURVE SMOOTH",
"520 456 OFFCURVE",
"432 529 OFFCURVE",
"292 529 CURVE SMOOTH",
"117 529 OFFCURVE",
"31 418 OFFCURVE",
"31 263 CURVE SMOOTH",
"31 101 OFFCURVE",
"117 -15 OFFCURVE",
"292 -15 CURVE SMOOTH",
"408 -15 OFFCURVE",
"511 47 OFFCURVE",
"511 128 CURVE SMOOTH"
);
},
{
closed = 1;
nodes = (
"264 268 OFFCURVE",
"242 290 OFFCURVE",
"242 317 CURVE",
"242 344 OFFCURVE",
"264 367 OFFCURVE",
"291 367 CURVE",
"318 367 OFFCURVE",
"341 344 OFFCURVE",
"341 317 CURVE",
"341 290 OFFCURVE",
"318 268 OFFCURVE",
"291 268 CURVE"
);
}
);
width = 548;
}
);
unicode = 0065;
},
{
glyphname = edieresis;
lastChange = "2019-01-03 19:42:13 +0000";
layers = (
{
components = (
{
name = e;
}
);
layerId = master01;
paths = (
{
closed = 1;
nodes = (
"431 550 OFFCURVE",
"458 585 OFFCURVE",
"458 628 CURVE SMOOTH",
"458 670 OFFCURVE",
"431 705 OFFCURVE",
"381 705 CURVE SMOOTH",
"331 705 OFFCURVE",
"304 670 OFFCURVE",
"304 628 CURVE SMOOTH",
"304 585 OFFCURVE",
"331 550 OFFCURVE",
"381 550 CURVE SMOOTH"
);
},
{
closed = 1;
nodes = (
"248 550 OFFCURVE",
"275 585 OFFCURVE",
"275 628 CURVE SMOOTH",
"275 670 OFFCURVE",
"248 705 OFFCURVE",
"198 705 CURVE SMOOTH",
"148 705 OFFCURVE",
"121 670 OFFCURVE",
"121 628 CURVE SMOOTH",
"121 585 OFFCURVE",
"148 550 OFFCURVE",
"198 550 CURVE SMOOTH"
);
}
);
width = 537;
}
);
unicode = 00EB;
},
{
glyphname = f;
lastChange = "2019-01-03 19:42:13 +0000";
layers = (
{
layerId = master01;
paths = (
{
closed = 1;
nodes = (
"492 -8 OFFCURVE",
"437 363 OFFCURVE",
"437 363 CURVE SMOOTH",
"437 363 OFFCURVE",
"555 341 OFFCURVE",
"550 448 CURVE SMOOTH",
"546 558 OFFCURVE",
"417 513 OFFCURVE",
"417 513 CURVE",
"415 550 OFFCURVE",
"421 566 OFFCURVE",
"421 566 CURVE",
"433 602 OFFCURVE",
"476 601 OFFCURVE",
"476 601 CURVE",
"536 599 OFFCURVE",
"537 663 OFFCURVE",
"537 663 CURVE",
"546 733 OFFCURVE",
"470 755 OFFCURVE",
"470 755 CURVE",
"286 810 OFFCURVE",
"210 695 OFFCURVE",
"210 695 CURVE",
"150 610 OFFCURVE",
"161 515 OFFCURVE",
"161 515 CURVE",
"115 527 OFFCURVE",
"30 516 OFFCURVE",
"33 436 CURVE SMOOTH",
"38 321 OFFCURVE",
"161 363 OFFCURVE",
"161 363 CURVE",
"157 127 OFFCURVE",
"157 -24 OFFCURVE",
"313 -16 CURVE SMOOTH"
);
}
);
width = 589;
},
{
associatedMasterId = master01;
layerId = "F2D8B779-C205-44CD-A0A5-76E528F34C89";
name = "Jan 3 19, 15:03";
paths = (
{
closed = 1;
nodes = (
"460 566 OFFCURVE",
"460 566 CURVE",
"473 602 OFFCURVE",
"520 601 OFFCURVE",
"520 601 CURVE",
"586 599 OFFCURVE",
"588 663 OFFCURVE",
"588 663 CURVE",
"597 733 OFFCURVE",
"514 755 OFFCURVE",
"514 755 CURVE",
"311 810 OFFCURVE",
"228 695 OFFCURVE",
"228 695 CURVE",
"162 610 OFFCURVE",
"174 515 OFFCURVE",
"174 515 CURVE",
"123 527 OFFCURVE",
"30 516 OFFCURVE",
"33 436 CURVE SMOOTH",
"39 321 OFFCURVE",
"174 363 OFFCURVE",
"174 363 CURVE",
"170 127 OFFCURVE",
"169 -24 OFFCURVE",
"341 -16 CURVE SMOOTH",
"538 -8 OFFCURVE",
"477 363 OFFCURVE",
"477 363 CURVE SMOOTH",
"477 363 OFFCURVE",
"607 341 OFFCURVE",
"602 448 CURVE SMOOTH",
"597 558 OFFCURVE",
"455 513 OFFCURVE",
"455 513 CURVE",
"453 550 OFFCURVE"
);
}
);
width = 641;
}
);
unicode = 0066;
},
{
glyphname = g;
lastChange = "2019-01-04 13:08:03 +0000";
layers = (
{
layerId = master01;
paths = (
{
closed = 1;
nodes = (
"536 -280 OFFCURVE",
"609 -92 OFFCURVE",
"609 130 CURVE SMOOTH",
"609 386 OFFCURVE",
"608 514 OFFCURVE",
"490 514 CURVE SMOOTH",
"433 514 OFFCURVE",
"409 472 OFFCURVE",
"406 441 CURVE",
"442 461 LINE",
"418 494 OFFCURVE",
"369 514 OFFCURVE",
"305 514 CURVE SMOOTH",
"184 514 OFFCURVE",
"47 417 OFFCURVE",
"47 245 CURVE SMOOTH",
"47 102 OFFCURVE",
"124 -2 OFFCURVE",
"265 -2 CURVE SMOOTH",
"351 -2 OFFCURVE",
"439 38 OFFCURVE",
"484 84 CURVE",
"362 35 LINE",
"375 0 OFFCURVE",
"398 -68 OFFCURVE",
"245 -68 CURVE SMOOTH",
"161 -68 OFFCURVE",
"126 -102 OFFCURVE",
"126 -165 CURVE SMOOTH",
"126 -245 OFFCURVE",
"206 -280 OFFCURVE",
"309 -280 CURVE SMOOTH"
);
},
{
closed = 1;
nodes = (
"307 168 OFFCURVE",
"285 190 OFFCURVE",
"285 217 CURVE",
"285 244 OFFCURVE",
"307 267 OFFCURVE",
"334 267 CURVE",
"361 267 OFFCURVE",
"384 244 OFFCURVE",
"384 217 CURVE",
"384 190 OFFCURVE",
"361 168 OFFCURVE",
"334 168 CURVE"
);
}
);
width = 624;
},
{
associatedMasterId = master01;
layerId = "5D4A2ECB-81B8-44EB-AA9A-FC712BC6CB29";
name = "Jan 3 19, 15:03";
paths = (
{
closed = 1;
nodes = (
"589 -369 OFFCURVE",
"653 -6 CURVE",
"653 -6 OFFCURVE",
"714 287 OFFCURVE",
"564 429 CURVE SMOOTH",
"476 512 OFFCURVE",
"299 549 OFFCURVE",
"167 471 CURVE",
"167 471 OFFCURVE",
"96 429 OFFCURVE",
"60 329 CURVE SMOOTH",
"31 246 OFFCURVE",
"50 129 OFFCURVE",
"109 67 CURVE SMOOTH",
"205 -35 OFFCURVE",
"376 8 OFFCURVE",
"376 8 CURVE SMOOTH",
"376 8 OFFCURVE",
"383 -63 OFFCURVE",
"265 -68 CURVE",
"265 -68 OFFCURVE",
"174 -54 OFFCURVE",
"145 -118 CURVE",
"145 -118 OFFCURVE",
"91 -219 OFFCURVE",
"223 -266 CURVE",
"223 -266 OFFCURVE"
);
},
{
closed = 1;
nodes = (
"402 238 OFFCURVE",
"402 217 CURVE SMOOTH",
"402 194 OFFCURVE",
"385 180 OFFCURVE",
"363 180 CURVE SMOOTH",
"341 180 OFFCURVE",
"325 189 OFFCURVE",
"323 217 CURVE SMOOTH",
"321 238 OFFCURVE",
"340 259 OFFCURVE",
"363 259 CURVE SMOOTH",
"388 259 OFFCURVE"
);
}
);
width = 680;
},
{
associatedMasterId = master01;
layerId = "D4F57452-D1C3-4725-9EF0-82941885D98C";
name = "Jan 3 19, 22:56";
paths = (
{
closed = 1;
nodes = (
"207 -266 OFFCURVE",
"251 -280 OFFCURVE",
"309 -280 CURVE SMOOTH",
"412 -280 OFFCURVE",
"561 -238 OFFCURVE",
"598 -6 CURVE",
"598 -6 OFFCURVE",
"609 53 OFFCURVE",
"609 130 CURVE SMOOTH",
"609 226 OFFCURVE",
"592 350 OFFCURVE",
"517 429 CURVE SMOOTH",
"468 480 OFFCURVE",
"387 514 OFFCURVE",
"305 514 CURVE SMOOTH",
"254 514 OFFCURVE",
"202 501 OFFCURVE",
"156 471 CURVE",
"156 471 OFFCURVE",
"92 429 OFFCURVE",
"59 329 CURVE SMOOTH",
"51 303 OFFCURVE",
"47 274 OFFCURVE",
"47 245 CURVE SMOOTH",
"47 179 OFFCURVE",
"66 110 OFFCURVE",
"103 67 CURVE SMOOTH",
"146 18 OFFCURVE",
"205 -2 OFFCURVE",
"265 -2 CURVE SMOOTH",
"351 -2 OFFCURVE",
"439 38 OFFCURVE",
"484 84 CURVE",
"362 35 LINE",
"375 0 OFFCURVE",
"398 -68 OFFCURVE",
"245 -68 CURVE SMOOTH",
"245 -68 OFFCURVE",
"160 -62 OFFCURVE",
"136 -118 CURVE",
"136 -118 OFFCURVE",
"87 -219 OFFCURVE",
"207 -266 CURVE"
);
},
{
closed = 1;
nodes = (
"307 168 OFFCURVE",
"285 190 OFFCURVE",
"285 217 CURVE",
"285 244 OFFCURVE",
"307 267 OFFCURVE",
"334 267 CURVE",
"361 267 OFFCURVE",
"384 244 OFFCURVE",
"384 217 CURVE",
"384 190 OFFCURVE",
"361 168 OFFCURVE",
"334 168 CURVE"
);
}
);
visible = 1;
width = 624;
}
);
unicode = 0067;
},
{
glyphname = h;
lastChange = "2019-01-04 13:08:03 +0000";
layers = (
{
layerId = master01;
paths = (
{
closed = 1;
nodes = (
"323 -8 OFFCURVE",
"323 139 OFFCURVE",
"323 193 CURVE SMOOTH",
"323 214 OFFCURVE",
"322 242 OFFCURVE",
"320 274 CURVE",
"368 274 OFFCURVE",
"376 254 OFFCURVE",
"376 133 CURVE SMOOTH",
"376 8 OFFCURVE",
"473 -6 OFFCURVE",
"514 -6 CURVE SMOOTH",
"627 -6 OFFCURVE",
"661 124 OFFCURVE",
"661 212 CURVE SMOOTH",
"661 384 OFFCURVE",
"591 506 OFFCURVE",
"467 506 CURVE SMOOTH",
"398 506 OFFCURVE",
"332 471 OFFCURVE",
"332 471 CURVE",
"340 644 OFFCURVE",
"296 755 OFFCURVE",
"185 755 CURVE SMOOTH",
"27 755 OFFCURVE",
"35 552 OFFCURVE",
"35 358 CURVE SMOOTH",
"35 187 OFFCURVE",
"30 -8 OFFCURVE",
"185 -8 CURVE SMOOTH"
);
}
);
width = 695;
},
{
associatedMasterId = master01;
layerId = "5A5255CB-6163-48F7-AADF-0AB82A469DE2";
name = "Jan 3 19, 15:06";
paths = (
{
closed = 1;
nodes = (
"363 471 OFFCURVE",
"363 471 CURVE",
"371 644 OFFCURVE",
"323 753 OFFCURVE",
"201 755 CURVE SMOOTH",
"56 757 OFFCURVE",
"49 597 OFFCURVE",
"49 597 CURVE",
"18 330 OFFCURVE",
"49 131 OFFCURVE",
"49 131 CURVE SMOOTH",
"49 131 OFFCURVE",
"63 -8 OFFCURVE",
"201 -8 CURVE SMOOTH",
"339 -8 OFFCURVE",
"350 126 OFFCURVE",
"350 126 CURVE SMOOTH",
"350 126 OFFCURVE",
"357 177 OFFCURVE",
"349 274 CURVE",
"375 274 OFFCURVE",
"384 133 OFFCURVE",
"384 133 CURVE",
"391 -28 OFFCURVE",
"556 -5 OFFCURVE",
"555 -5 CURVE",
"714 23 OFFCURVE",
"696 230 OFFCURVE",
"696 230 CURVE",
"667 641 OFFCURVE"
);
}
);
width = 731;
},
{
associatedMasterId = master01;
layerId = "78E9725F-9DB3-4A8D-AB72-41D1183F6A98";
name = "Jan 3 19, 22:15";
paths = (
{
closed = 1;
nodes = (
"310 -8 OFFCURVE",
"320 126 OFFCURVE",
"320 126 CURVE SMOOTH",
"320 126 OFFCURVE",
"327 177 OFFCURVE",
"320 274 CURVE",
"363 274 OFFCURVE",
"371 270 OFFCURVE",
"371 133 CURVE",
"378 -28 OFFCURVE",
"528 -5 OFFCURVE",
"527 -5 CURVE",
"671 23 OFFCURVE",
"655 230 OFFCURVE",
"655 230 CURVE",
"629 641 OFFCURVE",
"332 471 OFFCURVE",
"332 471 CURVE",
"340 644 OFFCURVE",
"296 753 OFFCURVE",
"185 755 CURVE SMOOTH",
"53 757 OFFCURVE",
"47 597 OFFCURVE",
"47 597 CURVE",
"19 330 OFFCURVE",
"47 131 OFFCURVE",
"47 131 CURVE SMOOTH",
"47 131 OFFCURVE",
"60 -8 OFFCURVE",
"185 -8 CURVE SMOOTH"
);
}
);
visible = 1;
width = 690;
}
);
unicode = 0068;
},
{
glyphname = i;
lastChange = "2019-01-03 19:42:13 +0000";
layers = (
{
components = (
{
name = dotlessi;
transform = "{1, 0, 0, 1, 0, -4}";
}
);
layerId = master01;
paths = (
{
closed = 1;
nodes = (
"261 549 OFFCURVE",
"310 604 OFFCURVE",
"304 663 CURVE SMOOTH",
"298 723 OFFCURVE",
"238 766 OFFCURVE",
"172 759 CURVE SMOOTH",
"105 752 OFFCURVE",
"56 697 OFFCURVE",
"62 638 CURVE SMOOTH",
"69 578 OFFCURVE",
"127 535 OFFCURVE",
"195 542 CURVE SMOOTH"
);
}
);
width = 360;
}
);
unicode = 0069;
},
{
glyphname = dotlessi;
lastChange = "2019-01-03 19:42:13 +0000";
layers = (
{
layerId = master01;
paths = (
{
closed = 1;
nodes = (
"190 -11 OFFCURVE",
"300 -14 OFFCURVE",
"319 106 CURVE SMOOTH",
"348 296 OFFCURVE",
"319 403 OFFCURVE",
"319 403 CURVE SMOOTH",
"319 403 OFFCURVE",
"297 529 OFFCURVE",
"184 522 CURVE",
"184 522 OFFCURVE",
"87 527 OFFCURVE",
"56 404 CURVE",
"56 404 OFFCURVE",
"11 223 OFFCURVE",
"59 77 CURVE",
"59 77 OFFCURVE",
"87 -15 OFFCURVE",
"190 -11 CURVE"
);
}
);
width = 360;
},
{
associatedMasterId = master01;
layerId = "E5A7B740-9775-431B-A0C5-E3136DB59D0B";
name = "Jan 3 19, 15:07";
paths = (
{
closed = 1;
nodes = (
"348 403 OFFCURVE",
"348 403 CURVE SMOOTH",
"348 403 OFFCURVE",
"323 529 OFFCURVE",
"199 522 CURVE",
"199 522 OFFCURVE",
"92 527 OFFCURVE",
"58 404 CURVE",
"58 404 OFFCURVE",
"9 223 OFFCURVE",
"62 77 CURVE",
"62 77 OFFCURVE",
"92 -15 OFFCURVE",
"206 -11 CURVE",
"206 -11 OFFCURVE",
"327 -14 OFFCURVE",
"347 106 CURVE SMOOTH",
"379 296 OFFCURVE"
);
}
);
width = 389;
}
);
unicode = 0131;
},
{
glyphname = idieresis;
lastChange = "2019-01-03 19:42:13 +0000";
layers = (
{
components = (
{
name = dotlessi;
transform = "{1, 0, 0, 1, 6, 0}";
}
);
layerId = master01;
paths = (
{
closed = 1;
nodes = (
"335 550 OFFCURVE",
"362 585 OFFCURVE",
"362 628 CURVE SMOOTH",
"362 670 OFFCURVE",
"335 705 OFFCURVE",
"285 705 CURVE SMOOTH",
"235 705 OFFCURVE",
"208 670 OFFCURVE",
"208 628 CURVE SMOOTH",
"208 585 OFFCURVE",
"235 550 OFFCURVE",
"285 550 CURVE SMOOTH"
);
},
{
closed = 1;
nodes = (
"152 550 OFFCURVE",
"179 585 OFFCURVE",
"179 628 CURVE SMOOTH",
"179 670 OFFCURVE",
"152 705 OFFCURVE",
"102 705 CURVE SMOOTH",
"52 705 OFFCURVE",
"25 670 OFFCURVE",
"25 628 CURVE SMOOTH",
"25 585 OFFCURVE",
"52 550 OFFCURVE",
"102 550 CURVE SMOOTH"
);
}
);
width = 387;
}
);
unicode = 00EF;
},
{
glyphname = j;
lastChange = "2019-01-03 19:42:13 +0000";
layers = (
{
layerId = master01;
paths = (
{
closed = 1;
nodes = (
"128 -285 OFFCURVE",
"266 -311 OFFCURVE",
"344 -227 CURVE SMOOTH",
"404 -163 OFFCURVE",
"418 -69 OFFCURVE",
"418 -69 CURVE",
"455 180 OFFCURVE",
"424 388 OFFCURVE",
"424 388 CURVE SMOOTH",
"424 388 OFFCURVE",
"420 509 OFFCURVE",
"281 509 CURVE SMOOTH",
"281 509 OFFCURVE",
"158 515 OFFCURVE",
"153 390 CURVE SMOOTH",
"143 167 OFFCURVE",
"149 88 OFFCURVE",
"144 28 CURVE",
"144 28 OFFCURVE",
"149 -101 OFFCURVE",
"97 -109 CURVE",
"97 -109 OFFCURVE",
"34 -119 OFFCURVE",
"42 -198 CURVE",
"42 -198 OFFCURVE",
"42 -271 OFFCURVE",
"128 -285 CURVE"
);
},
{
closed = 1;
nodes = (
"343 536 OFFCURVE",
"398 584 OFFCURVE",
"401 646 CURVE SMOOTH",
"404 708 OFFCURVE",
"354 762 OFFCURVE",
"288 765 CURVE SMOOTH",
"224 769 OFFCURVE",
"169 721 OFFCURVE",
"165 659 CURVE SMOOTH",
"163 596 OFFCURVE",
"214 543 OFFCURVE",
"278 539 CURVE SMOOTH"
);
}
);
width = 474;
},
{
associatedMasterId = master01;
layerId = "35CBBDCF-DF0E-49C3-9148-C54A0FDC1364";
name = "Jan 3 19, 15:09";
paths = (
{
closed = 1;
nodes = (
"385 762 OFFCURVE",
"313 765 CURVE SMOOTH",
"242 769 OFFCURVE",
"182 721 OFFCURVE",
"178 659 CURVE SMOOTH",
"175 596 OFFCURVE",
"231 543 OFFCURVE",
"302 539 CURVE SMOOTH",
"373 536 OFFCURVE",
"434 584 OFFCURVE",
"437 646 CURVE SMOOTH",
"440 708 OFFCURVE"
);
},
{
closed = 1;
nodes = (
"462 388 OFFCURVE",
"462 388 CURVE SMOOTH",
"462 388 OFFCURVE",
"458 509 OFFCURVE",
"305 509 CURVE SMOOTH",
"305 509 OFFCURVE",
"170 515 OFFCURVE",
"164 390 CURVE SMOOTH",
"153 167 OFFCURVE",
"160 88 OFFCURVE",
"155 28 CURVE",
"155 28 OFFCURVE",
"160 -101 OFFCURVE",
"103 -109 CURVE",
"103 -109 OFFCURVE",
"34 -119 OFFCURVE",
"42 -198 CURVE",
"42 -198 OFFCURVE",
"42 -271 OFFCURVE",
"137 -285 CURVE",
"137 -285 OFFCURVE",
"289 -311 OFFCURVE",
"375 -227 CURVE SMOOTH",
"441 -163 OFFCURVE",
"456 -69 OFFCURVE",
"456 -69 CURVE",
"497 180 OFFCURVE"
);
}
);
width = 514;
}
);
unicode = 006A;
},
{
glyphname = k;
lastChange = "2019-01-03 20:35:26 +0000";
layers = (
{
layerId = master01;
paths = (
{
closed = 1;
nodes = (
"351 -26 OFFCURVE",
"330 236 OFFCURVE",
"330 236 CURVE SMOOTH",
"330 236 OFFCURVE",
"400 -11 OFFCURVE",
"522 -11 CURVE SMOOTH",
"579 -11 OFFCURVE",
"644 37 OFFCURVE",
"644 113 CURVE SMOOTH",
"644 197 OFFCURVE",
"558 299 OFFCURVE",
"489 347 CURVE",
"489 347 OFFCURVE",
"581 424 OFFCURVE",
"580 506 CURVE SMOOTH",
"580 565 OFFCURVE",
"533 632 OFFCURVE",
"459 632 CURVE SMOOTH",
"423 632 OFFCURVE",
"367 596 OFFCURVE",
"332 523 CURVE",
"332 523 OFFCURVE",
"339 756 OFFCURVE",
"186 749 CURVE SMOOTH",
"53 743 OFFCURVE",
"40 540 OFFCURVE",
"40 348 CURVE SMOOTH",
"40 224 OFFCURVE",
"50 -4 OFFCURVE",
"184 -14 CURVE SMOOTH"
);
}
);
width = 687;
},
{
associatedMasterId = master01;
layerId = "6158C62B-8D28-484F-B33A-CD813B152D53";
name = "Jan 3 19, 22:32";
paths = (
{
closed = 1;
nodes = (
"382 -26 OFFCURVE",
"359 216 OFFCURVE",
"359 216 CURVE SMOOTH",
"359 216 OFFCURVE",
"469 -108 OFFCURVE",
"654 18 CURVE SMOOTH",
"767 95 OFFCURVE",
"666 277 OFFCURVE",
"556 347 CURVE",
"556 347 OFFCURVE",
"698 486 OFFCURVE",
"600 589 CURVE",
"600 589 OFFCURVE",
"485 712 OFFCURVE",
"361 543 CURVE",
"361 543 OFFCURVE",
"369 756 OFFCURVE",
"200 749 CURVE SMOOTH",
"97 745 OFFCURVE",
"77 662 OFFCURVE",
"63 608 CURVE",
"63 608 OFFCURVE",
"9 339 OFFCURVE",
"65 117 CURVE",
"65 117 OFFCURVE",
"97 -7 OFFCURVE",
"198 -14 CURVE SMOOTH"
);
}
);
visible = 1;
width = 738;
}
);
unicode = 006B;
},
{
glyphname = l;
lastChange = "2019-01-03 20:13:17 +0000";
layers = (
{
layerId = master01;
paths = (
{
closed = 1;
nodes = (
"314 -18 OFFCURVE",
"322 137 OFFCURVE",
"322 137 CURVE SMOOTH",
"322 137 OFFCURVE",
"342 334 OFFCURVE",
"327 545 CURVE SMOOTH",
"310 766 OFFCURVE",
"186 758 OFFCURVE",
"186 758 CURVE SMOOTH",
"54 758 OFFCURVE",
"43 560 OFFCURVE",
"43 560 CURVE SMOOTH",
"43 560 OFFCURVE",
"22 353 OFFCURVE",
"38 202 CURVE",
"38 202 OFFCURVE",
"50 -10 OFFCURVE",
"177 -14 CURVE SMOOTH"
);
}
);
width = 365;
},
{
associatedMasterId = master01;
layerId = "D241715B-52AC-4600-B076-29AF65F6AAF7";
name = "Jan 3 19, 22:12";
paths = (
{
closed = 1;
nodes = (
"342 -18 OFFCURVE",
"351 137 OFFCURVE",
"351 137 CURVE SMOOTH",
"351 137 OFFCURVE",
"373 334 OFFCURVE",
"356 545 CURVE SMOOTH",
"338 766 OFFCURVE",
"201 758 OFFCURVE",
"201 758 CURVE SMOOTH",
"56 758 OFFCURVE",
"44 560 OFFCURVE",
"44 560 CURVE SMOOTH",
"44 560 OFFCURVE",
"21 353 OFFCURVE",
"39 202 CURVE",
"39 202 OFFCURVE",
"52 -10 OFFCURVE",
"192 -14 CURVE SMOOTH"
);
}
);
width = 394;
}
);
unicode = 006C;
},
{
glyphname = m;
lastChange = "2019-01-03 20:39:45 +0000";
layers = (
{
layerId = master01;
paths = (
{
closed = 1;
nodes = (
"317 -8 OFFCURVE",
"324 126 OFFCURVE",
"324 126 CURVE SMOOTH",
"324 126 OFFCURVE",
"334 200 OFFCURVE",
"313 338 CURVE",
"286 273 LINE",
"363 278 OFFCURVE",
"375 275 OFFCURVE",
"375 133 CURVE SMOOTH",
"375 8 OFFCURVE",
"472 -6 OFFCURVE",
"513 -6 CURVE SMOOTH",
"626 -6 OFFCURVE",
"660 124 OFFCURVE",
"660 212 CURVE SMOOTH",
"660 384 OFFCURVE",
"590 506 OFFCURVE",
"466 506 CURVE SMOOTH",
"385 506 OFFCURVE",
"291 448 OFFCURVE",
"303 439 CURVE",
"311 429 LINE",
"317 458 OFFCURVE",
"290 519 OFFCURVE",
"197 519 CURVE SMOOTH",
"39 519 OFFCURVE",
"37 354 OFFCURVE",
"37 283 CURVE SMOOTH",
"37 168 OFFCURVE",
"51 -8 OFFCURVE",
"189 -8 CURVE SMOOTH"
);
},
{
closed = 1;
nodes = (
"961 -6 OFFCURVE",
"995 124 OFFCURVE",
"995 212 CURVE SMOOTH",
"995 384 OFFCURVE",
"933 506 OFFCURVE",
"779 506 CURVE SMOOTH",
"681 506 OFFCURVE",
"593 464 OFFCURVE",
"561 420 CURVE",
"652 274 LINE",
"702 274 OFFCURVE",
"710 254 OFFCURVE",
"710 133 CURVE SMOOTH",
"710 8 OFFCURVE",
"807 -6 OFFCURVE",
"848 -6 CURVE SMOOTH"
);
}
);
width = 1034;
},
{
associatedMasterId = master01;
layerId = "70D85176-B6FF-4D83-92B4-3FB3A4D73093";
name = "Jan 3 19, 22:36";
paths = (
{
closed = 1;
nodes = (
"646 -17 OFFCURVE",
"659 184 OFFCURVE",
"660 201 CURVE",
"659 185 OFFCURVE",
"662 -14 OFFCURVE",
"813 -14 CURVE SMOOTH",
"921 -14 OFFCURVE",
"945 105 OFFCURVE",
"945 105 CURVE SMOOTH",
"945 105 OFFCURVE",
"1009 437 OFFCURVE",
"813 500 CURVE SMOOTH",
"591 571 OFFCURVE",
"505 377 OFFCURVE",
"493 332 CURVE",
"482 377 OFFCURVE",
"390 584 OFFCURVE",
"165 500 CURVE SMOOTH",
"2 439 OFFCURVE",
"43 112 OFFCURVE",
"43 112 CURVE SMOOTH",
"43 112 OFFCURVE",
"57 -14 OFFCURVE",
"179 -14 CURVE SMOOTH",
"317 -14 OFFCURVE",
"323 189 OFFCURVE",
"322 205 CURVE",
"323 188 OFFCURVE",
"340 -17 OFFCURVE",
"493 -17 CURVE",
"493 -17 LINE"
);
}
);
width = 994;
},
{
associatedMasterId = master01;
layerId = "FF74DA95-C1A5-4C46-A499-98871B9E53B6";
name = "Jan 3 19, 22:37";
paths = (
{
closed = 1;
nodes = (
"871 134 OFFCURVE",
"871 223 CURVE SMOOTH",
"871 392 OFFCURVE",
"817 515 OFFCURVE",
"659 515 CURVE SMOOTH",
"519 515 OFFCURVE",
"460 370 OFFCURVE",
"451 332 CURVE",
"443 370 OFFCURVE",
"383 520 OFFCURVE",
"245 520 CURVE SMOOTH",
"79 520 OFFCURVE",
"38 373 OFFCURVE",
"38 200 CURVE SMOOTH",
"38 136 OFFCURVE",
"38 -14 OFFCURVE",
"166 -14 CURVE SMOOTH",
"291 -14 OFFCURVE",
"297 189 OFFCURVE",
"296 205 CURVE",
"297 188 OFFCURVE",
"312 -17 OFFCURVE",
"451 -17 CURVE SMOOTH",
"590 -17 OFFCURVE",
"602 184 OFFCURVE",
"603 201 CURVE",
"602 185 OFFCURVE",
"605 -14 OFFCURVE",
"742 -14 CURVE SMOOTH",
"861 -14 OFFCURVE"
);
}
);
width = 910;
},
{
associatedMasterId = master01;
layerId = "4FC071C5-3C69-40DC-9B24-45D31329F0E2";
name = "Jan 3 19, 22:38";
paths = (
{
closed = 1;
nodes = (
"317 -8 OFFCURVE",
"324 126 OFFCURVE",
"324 126 CURVE SMOOTH",
"324 126 OFFCURVE",
"331 177 OFFCURVE",
"321 274 CURVE",
"371 274 OFFCURVE",
"379 254 OFFCURVE",
"379 133 CURVE SMOOTH",
"379 8 OFFCURVE",
"476 -6 OFFCURVE",
"517 -6 CURVE SMOOTH",
"630 -6 OFFCURVE",
"664 124 OFFCURVE",
"664 212 CURVE SMOOTH",
"664 384 OFFCURVE",
"594 506 OFFCURVE",
"470 506 CURVE SMOOTH",
"401 506 OFFCURVE",
"325 464 OFFCURVE",
"311 446 CURVE",
"306 477 OFFCURVE",
"274 519 OFFCURVE",
"197 519 CURVE SMOOTH",
"39 519 OFFCURVE",
"37 354 OFFCURVE",
"37 283 CURVE SMOOTH",
"37 168 OFFCURVE",
"51 -8 OFFCURVE",
"189 -8 CURVE SMOOTH"
);
},
{
closed = 1;
nodes = (
"965 -6 OFFCURVE",
"999 124 OFFCURVE",
"999 212 CURVE SMOOTH",
"999 384 OFFCURVE",
"929 506 OFFCURVE",
"805 506 CURVE SMOOTH",
"707 506 OFFCURVE",
"597 464 OFFCURVE",
"565 420 CURVE",
"656 274 LINE",
"706 274 OFFCURVE",
"714 254 OFFCURVE",
"714 133 CURVE SMOOTH",
"714 8 OFFCURVE",
"811 -6 OFFCURVE",
"852 -6 CURVE SMOOTH"
);
}
);
visible = 1;
width = 910;
}
);
unicode = 006D;
},
{
glyphname = n;
lastChange = "2019-01-04 13:08:03 +0000";
layers = (
{
layerId = master01;
paths = (
{
closed = 1;
nodes = (
"317 -8 OFFCURVE",
"324 126 OFFCURVE",
"324 126 CURVE SMOOTH",
"324 126 OFFCURVE",
"331 177 OFFCURVE",
"321 274 CURVE",
"371 274 OFFCURVE",
"379 254 OFFCURVE",
"379 133 CURVE SMOOTH",
"379 8 OFFCURVE",
"476 -6 OFFCURVE",
"517 -6 CURVE SMOOTH",
"630 -6 OFFCURVE",
"664 124 OFFCURVE",
"664 212 CURVE SMOOTH",
"664 384 OFFCURVE",
"594 506 OFFCURVE",
"470 506 CURVE SMOOTH",
"401 506 OFFCURVE",
"325 464 OFFCURVE",
"311 446 CURVE",
"306 477 OFFCURVE",
"274 519 OFFCURVE",
"197 519 CURVE SMOOTH",
"39 519 OFFCURVE",
"37 354 OFFCURVE",
"37 283 CURVE SMOOTH",
"37 168 OFFCURVE",
"51 -8 OFFCURVE",
"189 -8 CURVE SMOOTH"
);
}
);
width = 680;
},
{
associatedMasterId = master01;
layerId = "6C217F27-92F1-4502-ABB1-23E432588171";
name = "Jan 3 19, 22:13";
paths = (
{
closed = 1;
nodes = (
"342 -6 OFFCURVE",
"353 126 OFFCURVE",
"353 126 CURVE SMOOTH",
"353 126 OFFCURVE",
"360 177 OFFCURVE",
"352 274 CURVE",
"378 274 OFFCURVE",
"387 133 OFFCURVE",
"387 133 CURVE",
"394 -28 OFFCURVE",
"559 -5 OFFCURVE",
"558 -5 CURVE",
"717 23 OFFCURVE",
"699 230 OFFCURVE",
"699 230 CURVE",
"670 641 OFFCURVE",
"349 446 OFFCURVE",
"349 446 CURVE",
"331 477 OFFCURVE",
"303 526 OFFCURVE",
"186 519 CURVE SMOOTH",
"52 511 OFFCURVE",
"40 361 OFFCURVE",
"40 361 CURVE",
"28 220 OFFCURVE",
"52 131 OFFCURVE",
"52 131 CURVE SMOOTH",
"52 131 OFFCURVE",
"73 -10 OFFCURVE",
"204 -8 CURVE SMOOTH"
);
}
);
width = 716;
},
{
associatedMasterId = master01;
layerId = "F1D0CA7B-354E-4EE1-B225-2174446B946A";
name = "Jan 3 19, 22:14";
paths = (
{
closed = 1;
nodes = (
"581 492 OFFCURVE",
"464 492 CURVE SMOOTH",
"390 492 OFFCURVE",
"321 446 OFFCURVE",
"321 446 CURVE",
"304 477 OFFCURVE",
"279 526 OFFCURVE",
"173 519 CURVE SMOOTH",
"51 511 OFFCURVE",
"40 361 OFFCURVE",
"40 361 CURVE",
"29 220 OFFCURVE",
"51 131 OFFCURVE",
"51 131 CURVE SMOOTH",
"51 131 OFFCURVE",
"70 -10 OFFCURVE",
"189 -8 CURVE SMOOTH",
"314 -6 OFFCURVE",
"324 126 OFFCURVE",
"324 126 CURVE SMOOTH",
"324 126 OFFCURVE",
"331 177 OFFCURVE",
"323 274 CURVE",
"347 274 OFFCURVE",
"355 133 OFFCURVE",
"355 133 CURVE",
"362 -28 OFFCURVE",
"512 -5 OFFCURVE",
"511 -5 CURVE",
"629 18 OFFCURVE",
"640 161 OFFCURVE",
"640 212 CURVE SMOOTH",
"640 368 OFFCURVE"
);
}
);
visible = 1;
width = 656;
},
{
associatedMasterId = master01;
layerId = "EFD4222C-9B7C-42B8-9B03-78002E241B4D";
name = "Jan 3 19, 22:19";
paths = (
{
closed = 1;
nodes = (
"44 519 OFFCURVE",
"37 330 OFFCURVE",
"37 283 CURVE SMOOTH",
"37 188 OFFCURVE",
"51 131 OFFCURVE",
"51 131 CURVE SMOOTH",
"51 131 OFFCURVE",
"70 -8 OFFCURVE",
"189 -8 CURVE SMOOTH",
"317 -8 OFFCURVE",
"324 126 OFFCURVE",
"324 126 CURVE SMOOTH",
"324 126 OFFCURVE",
"331 177 OFFCURVE",
"323 274 CURVE",
"347 274 OFFCURVE",
"355 133 OFFCURVE",
"355 133 CURVE",
"360 8 OFFCURVE",
"452 -6 OFFCURVE",
"493 -6 CURVE SMOOTH",
"606 -6 OFFCURVE",
"640 124 OFFCURVE",
"640 212 CURVE SMOOTH",
"640 368 OFFCURVE",
"581 492 OFFCURVE",
"464 492 CURVE SMOOTH",
"390 492 OFFCURVE",
"321 446 OFFCURVE",
"321 446 CURVE",
"304 477 OFFCURVE",
"279 519 OFFCURVE",
"173 519 CURVE SMOOTH"
);
}
);
width = 656;
}
);
unicode = 006E;
},
{
glyphname = o;
lastChange = "2019-01-04 13:08:03 +0000";
layers = (
{
layerId = master01;
paths = (
{
closed = 1;
nodes = (
"452 -19 OFFCURVE",
"521 130 OFFCURVE",
"521 263 CURVE SMOOTH",
"521 305 OFFCURVE",
"499 516 OFFCURVE",
"286 516 CURVE SMOOTH",
"169 516 OFFCURVE",
"21 471 OFFCURVE",
"21 235 CURVE SMOOTH",
"21 184 OFFCURVE",
"51 -19 OFFCURVE",
"286 -19 CURVE SMOOTH"
);
},
{
closed = 1;
nodes = (
"254 195 OFFCURVE",
"232 217 OFFCURVE",
"232 244 CURVE",
"232 271 OFFCURVE",
"254 294 OFFCURVE",
"281 294 CURVE",
"308 294 OFFCURVE",
"331 271 OFFCURVE",
"331 244 CURVE",
"331 217 OFFCURVE",
"308 195 OFFCURVE",
"281 195 CURVE"
);
}
);
width = 536;
},
{
associatedMasterId = master01;
layerId = "C454BCE5-6833-4126-9760-C5058307CACA";
name = "Jan 3 19, 22:29";
paths = (
{
closed = 1;
nodes = (
"313 -19 OFFCURVE",
"360 -19 OFFCURVE",
"414 3 CURVE",
"414 3 OFFCURVE",
"498 38 OFFCURVE",
"540 116 CURVE SMOOTH",
"559 153 OFFCURVE",
"571 201 OFFCURVE",
"571 263 CURVE",
"571 263 OFFCURVE",
"571 516 OFFCURVE",
"313 516 CURVE SMOOTH",
"313 516 OFFCURVE",
"21 544 OFFCURVE",
"21 235 CURVE",
"21 235 OFFCURVE",
"21 -19 OFFCURVE",
"313 -19 CURVE"
);
},
{
closed = 1;
nodes = (
"285 195 OFFCURVE",
"269 204 OFFCURVE",
"267 232 CURVE SMOOTH",
"265 253 OFFCURVE",
"284 274 OFFCURVE",
"307 274 CURVE SMOOTH",
"332 274 OFFCURVE",
"346 253 OFFCURVE",
"346 232 CURVE SMOOTH",
"346 209 OFFCURVE",
"329 195 OFFCURVE",
"307 195 CURVE SMOOTH"
);
}
);
width = 586;
},
{
associatedMasterId = master01;
layerId = "6A91B4D2-7566-4607-9C16-9C7F5C51F6D1";
name = "Jan 3 19, 22:29";
paths = (
{
closed = 1;
nodes = (
"311 -19 OFFCURVE",
"354 -19 OFFCURVE",
"403 3 CURVE",
"403 3 OFFCURVE",
"480 38 OFFCURVE",
"518 116 CURVE SMOOTH",
"535 153 OFFCURVE",
"546 201 OFFCURVE",
"546 263 CURVE",
"546 263 OFFCURVE",
"546 516 OFFCURVE",
"311 516 CURVE SMOOTH",
"311 516 OFFCURVE",
"46 544 OFFCURVE",
"46 235 CURVE",
"46 235 OFFCURVE",
"46 -19 OFFCURVE",
"311 -19 CURVE"
);
},
{
closed = 1;
nodes = (
"286 195 OFFCURVE",
"271 204 OFFCURVE",
"270 232 CURVE SMOOTH",
"268 253 OFFCURVE",
"285 274 OFFCURVE",
"306 274 CURVE SMOOTH",
"329 274 OFFCURVE",
"341 253 OFFCURVE",
"341 232 CURVE SMOOTH",
"341 209 OFFCURVE",
"326 195 OFFCURVE",
"306 195 CURVE SMOOTH"
);
}
);
visible = 1;
width = 586;
}
);
unicode = 006F;
},
{
glyphname = odieresis;
lastChange = "2019-01-03 20:31:29 +0000";
layers = (
{
components = (
{
name = o;
}
);
layerId = master01;
paths = (
{
closed = 1;
nodes = (
"410 557 OFFCURVE",
"437 592 OFFCURVE",
"437 635 CURVE SMOOTH",
"437 677 OFFCURVE",
"410 712 OFFCURVE",
"360 712 CURVE SMOOTH",
"310 712 OFFCURVE",
"283 677 OFFCURVE",
"283 635 CURVE SMOOTH",
"283 592 OFFCURVE",
"310 557 OFFCURVE",
"360 557 CURVE SMOOTH"
);
},
{
closed = 1;
nodes = (
"227 557 OFFCURVE",
"254 592 OFFCURVE",
"254 635 CURVE SMOOTH",
"254 677 OFFCURVE",
"227 712 OFFCURVE",
"177 712 CURVE SMOOTH",
"127 712 OFFCURVE",
"100 677 OFFCURVE",
"100 635 CURVE SMOOTH",
"100 592 OFFCURVE",
"127 557 OFFCURVE",
"177 557 CURVE SMOOTH"
);
}
);
width = 536;
}
);
unicode = 00F6;
},
{
glyphname = oslash;
lastChange = "2019-01-03 20:31:44 +0000";
layers = (
{
components = (
{
name = o;
}
);
layerId = master01;
paths = (
{
closed = 1;
nodes = (
"458 462 OFFCURVE",
"464 494 OFFCURVE",
"470 512 CURVE SMOOTH",
"501 606 OFFCURVE",
"436 619 OFFCURVE",
"436 619 CURVE SMOOTH",
"436 619 OFFCURVE",
"367 655 OFFCURVE",
"316 575 CURVE SMOOTH",
"307 561 OFFCURVE",
"285 523 OFFCURVE",
"272 500 CURVE",
"451 443 LINE"
);
},
{
closed = 1;
nodes = (
"150 -123 OFFCURVE",
"209 -148 OFFCURVE",
"249 -81 CURVE",
"249 -81 OFFCURVE",
"262 -56 OFFCURVE",
"283 -16 CURVE",
"121 39 LINE",
"113 15 OFFCURVE",
"108 -7 OFFCURVE",
"104 -24 CURVE",
"88 -106 OFFCURVE",
"150 -123 OFFCURVE",
"150 -123 CURVE SMOOTH"
);
}
);
width = 536;
}
);
unicode = 00F8;
},
{
glyphname = p;
lastChange = "2019-01-04 13:08:03 +0000";
layers = (
{
layerId = master01;
paths = (
{
closed = 1;
nodes = (
"347 -251 OFFCURVE",
"294 18 OFFCURVE",
"294 18 CURVE SMOOTH",
"294 18 OFFCURVE",
"340 -8 OFFCURVE",
"401 -8 CURVE SMOOTH",
"542 -8 OFFCURVE",
"615 103 OFFCURVE",
"615 261 CURVE SMOOTH",
"615 421 OFFCURVE",
"515 527 OFFCURVE",
"342 527 CURVE SMOOTH",
"285 527 OFFCURVE",
"238 513 OFFCURVE",
"201 488 CURVE",
"248 433 LINE",
"212 516 OFFCURVE",
"188 527 OFFCURVE",
"155 527 CURVE SMOOTH",
"85 527 OFFCURVE",
"28 490 OFFCURVE",
"28 53 CURVE SMOOTH",
"28 -36 OFFCURVE",
"30 -251 OFFCURVE",
"182 -251 CURVE SMOOTH"
);
},
{
closed = 1;
nodes = (
"310 195 OFFCURVE",
"288 217 OFFCURVE",
"288 244 CURVE",
"288 271 OFFCURVE",
"310 294 OFFCURVE",
"337 294 CURVE",
"364 294 OFFCURVE",
"387 271 OFFCURVE",
"387 244 CURVE",
"387 217 OFFCURVE",
"364 195 OFFCURVE",
"337 195 CURVE"
);
}
);
width = 627;
},
{
associatedMasterId = master01;
layerId = "356A9B93-7FBD-4703-BCCC-FE1CF80589AF";
name = "Jan 3 19, 22:41";
paths = (
{
closed = 1;
nodes = (
"379 -251 OFFCURVE",
"320 18 OFFCURVE",
"320 18 CURVE SMOOTH",
"320 18 OFFCURVE",
"468 -57 OFFCURVE",
"598 50 CURVE SMOOTH",
"668 108 OFFCURVE",
"687 252 OFFCURVE",
"665 338 CURVE SMOOTH",
"640 434 OFFCURVE",
"557 482 OFFCURVE",
"557 482 CURVE",
"428 554 OFFCURVE",
"226 540 OFFCURVE",
"132 432 CURVE SMOOTH",
"-12 266 OFFCURVE",
"35 -76 OFFCURVE",
"35 -76 CURVE SMOOTH",
"35 -76 OFFCURVE",
"54 -251 OFFCURVE",
"197 -251 CURVE SMOOTH"
);
},
{
closed = 1;
nodes = (
"345 195 OFFCURVE",
"329 204 OFFCURVE",
"327 232 CURVE SMOOTH",
"325 253 OFFCURVE",
"344 274 OFFCURVE",
"367 274 CURVE SMOOTH",
"392 274 OFFCURVE",
"406 253 OFFCURVE",
"406 232 CURVE SMOOTH",
"406 209 OFFCURVE",
"389 195 OFFCURVE",
"367 195 CURVE SMOOTH"
);
}
);
width = 686;
},
{
associatedMasterId = master01;
layerId = "C24E0B9F-5EA7-46E7-AC0B-99C287DE7701";
name = "Jan 3 19, 22:44";
paths = (
{
closed = 1;
nodes = (
"376 -251 OFFCURVE",
"323 18 OFFCURVE",
"323 18 CURVE SMOOTH",
"323 18 OFFCURVE",
"457 -57 OFFCURVE",
"576 50 CURVE SMOOTH",
"639 108 OFFCURVE",
"656 252 OFFCURVE",
"636 338 CURVE SMOOTH",
"614 434 OFFCURVE",
"538 482 OFFCURVE",
"538 482 CURVE",
"421 554 OFFCURVE",
"237 540 OFFCURVE",
"152 432 CURVE SMOOTH",
"21 266 OFFCURVE",
"64 -76 OFFCURVE",
"64 -76 CURVE SMOOTH",
"64 -76 OFFCURVE",
"81 -251 OFFCURVE",
"211 -251 CURVE SMOOTH"
);
},
{
closed = 1;
nodes = (
"339 195 OFFCURVE",
"317 217 OFFCURVE",
"317 244 CURVE",
"317 271 OFFCURVE",
"339 294 OFFCURVE",
"366 294 CURVE",
"393 294 OFFCURVE",
"416 271 OFFCURVE",
"416 244 CURVE",
"416 217 OFFCURVE",
"393 195 OFFCURVE",
"366 195 CURVE"
);
}
);
width = 686;
},
{
associatedMasterId = master01;
layerId = "50B7C56E-533F-42AA-A22B-896572DFC317";
name = "Jan 3 19, 22:45";
paths = (
{
closed = 1;
nodes = (
"59 -251 OFFCURVE",
"211 -251 CURVE SMOOTH",
"376 -251 OFFCURVE",
"323 18 OFFCURVE",
"323 18 CURVE SMOOTH",
"323 18 OFFCURVE",
"369 -8 OFFCURVE",
"430 -8 CURVE SMOOTH",
"571 -8 OFFCURVE",
"644 103 OFFCURVE",
"644 261 CURVE SMOOTH",
"644 421 OFFCURVE",
"544 527 OFFCURVE",
"371 527 CURVE SMOOTH",
"127 527 OFFCURVE",
"57 311 OFFCURVE",
"57 53 CURVE SMOOTH",
"57 -36 OFFCURVE"
);
},
{
closed = 1;
nodes = (
"339 195 OFFCURVE",
"317 217 OFFCURVE",
"317 244 CURVE",
"317 271 OFFCURVE",
"339 294 OFFCURVE",
"366 294 CURVE",
"393 294 OFFCURVE",
"416 271 OFFCURVE",
"416 244 CURVE",
"416 217 OFFCURVE",
"393 195 OFFCURVE",
"366 195 CURVE"
);
},
{
closed = 0;
nodes = (
"277 433 LINE",
"264 534 OFFCURVE",
"174 527 OFFCURVE",
"174 527 CURVE SMOOTH",
"129 527 OFFCURVE",
"57 490 OFFCURVE",
"57 240 CURVE SMOOTH"
);
}
);
visible = 1;
width = 686;
}
);
unicode = 0070;
},
{
glyphname = thorn;
lastChange = "2019-01-04 13:08:03 +0000";
layers = (
{
layerId = master01;
paths = (
{
closed = 1;
nodes = (
"340 -265 OFFCURVE",
"316 -48 OFFCURVE",
"308 3 CURVE",
"333 0 OFFCURVE",
"358 -3 OFFCURVE",
"384 -3 CURVE SMOOTH",
"520 -3 OFFCURVE",
"603 122 OFFCURVE",
"603 263 CURVE SMOOTH",
"603 403 OFFCURVE",
"533 512 OFFCURVE",
"394 512 CURVE SMOOTH",
"344 512 OFFCURVE",
"306 498 OFFCURVE",
"306 498 CURVE SMOOTH",
"306 498 OFFCURVE",
"360 768 OFFCURVE",
"205 778 CURVE SMOOTH",
"43 787 OFFCURVE",
"24 474 OFFCURVE",
"24 253 CURVE SMOOTH",
"17 20 OFFCURVE",
"56 -265 OFFCURVE",
"205 -265 CURVE SMOOTH"
);
},
{
closed = 1;
nodes = (
"327 183 OFFCURVE",
"305 205 OFFCURVE",
"305 232 CURVE",
"305 259 OFFCURVE",
"327 282 OFFCURVE",
"354 282 CURVE",
"381 282 OFFCURVE",
"404 259 OFFCURVE",
"404 232 CURVE",
"404 205 OFFCURVE",
"381 183 OFFCURVE",
"354 183 CURVE"
);
}
);
width = 623;
},
{
associatedMasterId = master01;
layerId = "DA286194-4632-4A16-B96D-7520C49A6C31";
name = "Jan 3 19, 22:46";
paths = (
{
closed = 1;
nodes = (
"372 -256 OFFCURVE",
"345 -48 OFFCURVE",
"336 3 CURVE",
"394 -3 OFFCURVE",
"454 -12 OFFCURVE",
"514 15 CURVE",
"514 15 OFFCURVE",
"591 43 OFFCURVE",
"636 140 CURVE SMOOTH",
"674 221 OFFCURVE",
"669 351 OFFCURVE",
"615 426 CURVE SMOOTH",
"518 559 OFFCURVE",
"334 498 OFFCURVE",
"334 498 CURVE SMOOTH",
"334 498 OFFCURVE",
"394 768 OFFCURVE",
"223 778 CURVE SMOOTH",
"82 785 OFFCURVE",
"63 617 OFFCURVE",
"63 617 CURVE SMOOTH",
"63 617 OFFCURVE",
"24 433 OFFCURVE",
"24 253 CURVE SMOOTH",
"17 44 OFFCURVE",
"63 -104 OFFCURVE",
"63 -104 CURVE SMOOTH",
"63 -104 OFFCURVE",
"96 -273 OFFCURVE",
"223 -265 CURVE SMOOTH"
);
},
{
closed = 1;
nodes = (
"365 195 OFFCURVE",
"349 204 OFFCURVE",
"347 232 CURVE SMOOTH",
"345 253 OFFCURVE",
"364 274 OFFCURVE",
"387 274 CURVE SMOOTH",
"412 274 OFFCURVE",
"426 253 OFFCURVE",
"426 232 CURVE SMOOTH",
"426 209 OFFCURVE",
"409 195 OFFCURVE",
"387 195 CURVE SMOOTH"
);
}
);
width = 681;
},
{
associatedMasterId = master01;
layerId = "6C4BC2EB-B942-46F8-8A26-4F695CDDEDA4";
name = "Jan 3 19, 22:47";
paths = (
{
closed = 1;
nodes = (
"340 -256 OFFCURVE",
"316 -48 OFFCURVE",
"308 3 CURVE",
"360 -3 OFFCURVE",
"415 -12 OFFCURVE",
"469 15 CURVE",
"469 15 OFFCURVE",
"539 43 OFFCURVE",
"580 140 CURVE SMOOTH",
"615 221 OFFCURVE",
"610 351 OFFCURVE",
"561 426 CURVE SMOOTH",
"473 559 OFFCURVE",
"306 498 OFFCURVE",
"306 498 CURVE SMOOTH",
"306 498 OFFCURVE",
"360 768 OFFCURVE",
"205 778 CURVE SMOOTH",
"77 785 OFFCURVE",
"59 617 OFFCURVE",
"59 617 CURVE SMOOTH",
"59 617 OFFCURVE",
"24 433 OFFCURVE",
"24 253 CURVE SMOOTH",
"18 44 OFFCURVE",
"59 -104 OFFCURVE",
"59 -104 CURVE SMOOTH",
"59 -104 OFFCURVE",
"89 -273 OFFCURVE",
"205 -265 CURVE SMOOTH"
);
},
{
closed = 1;
nodes = (
"327 183 OFFCURVE",
"305 205 OFFCURVE",
"305 232 CURVE",
"305 259 OFFCURVE",
"327 282 OFFCURVE",
"354 282 CURVE",
"381 282 OFFCURVE",
"404 259 OFFCURVE",
"404 232 CURVE",
"404 205 OFFCURVE",
"381 183 OFFCURVE",
"354 183 CURVE"
);
}
);
width = 623;
}
);
unicode = 00FE;
},
{
glyphname = q;
lastChange = "2019-01-03 20:53:07 +0000";
layers = (
{
layerId = master01;
paths = (
{
closed = 1;
nodes = (
"647 -244 OFFCURVE",
"654 -47 OFFCURVE",
"654 84 CURVE SMOOTH",
"654 500 OFFCURVE",
"597 536 OFFCURVE",
"527 536 CURVE SMOOTH",
"494 536 OFFCURVE",
"462 514 OFFCURVE",
"448 442 CURVE",
"474 481 LINE",
"452 512 OFFCURVE",
"401 536 OFFCURVE",
"334 536 CURVE SMOOTH",
"163 536 OFFCURVE",
"44 427 OFFCURVE",
"44 249 CURVE SMOOTH",
"44 98 OFFCURVE",
"129 -5 OFFCURVE",
"255 -5 CURVE SMOOTH",
"321 -5 OFFCURVE",
"371 25 OFFCURVE",
"371 25 CURVE SMOOTH",
"371 25 OFFCURVE",
"340 -244 OFFCURVE",
"496 -244 CURVE SMOOTH"
);
},
{
closed = 1;
nodes = (
"320 183 OFFCURVE",
"298 205 OFFCURVE",
"298 232 CURVE",
"298 259 OFFCURVE",
"320 282 OFFCURVE",
"347 282 CURVE",
"374 282 OFFCURVE",
"397 259 OFFCURVE",
"397 232 CURVE",
"397 205 OFFCURVE",
"374 183 OFFCURVE",
"347 183 CURVE"
);
}
);
width = 662;
},
{
associatedMasterId = master01;
layerId = "5E314695-F281-4FED-8956-25037ACA78C5";
name = "Jan 3 19, 22:50";
paths = (
{
closed = 1;
nodes = (
"685 -244 OFFCURVE",
"703 -89 OFFCURVE",
"703 -89 CURVE SMOOTH",
"703 -89 OFFCURVE",
"753 260 OFFCURVE",
"638 422 CURVE SMOOTH",
"559 534 OFFCURVE",
"331 573 OFFCURVE",
"182 495 CURVE",
"182 495 OFFCURVE",
"90 445 OFFCURVE",
"58 345 CURVE SMOOTH",
"29 253 OFFCURVE",
"43 115 OFFCURVE",
"123 50 CURVE SMOOTH",
"253 -57 OFFCURVE",
"403 25 OFFCURVE",
"403 25 CURVE SMOOTH",
"403 25 OFFCURVE",
"369 -244 OFFCURVE",
"541 -244 CURVE SMOOTH"
);
},
{
closed = 1;
nodes = (
"355 195 OFFCURVE",
"339 204 OFFCURVE",
"337 232 CURVE SMOOTH",
"335 253 OFFCURVE",
"354 274 OFFCURVE",
"377 274 CURVE SMOOTH",
"402 274 OFFCURVE",
"416 253 OFFCURVE",
"416 232 CURVE SMOOTH",
"416 209 OFFCURVE",
"399 195 OFFCURVE",
"377 195 CURVE SMOOTH"
);
}
);
width = 722;
}
);
unicode = 0071;
},
{
glyphname = r;
lastChange = "2019-01-03 20:54:27 +0000";
layers = (
{
layerId = master01;
paths = (
{
closed = 1;
nodes = (
"180 -7 OFFCURVE",
"365 -29 OFFCURVE",
"325 293 CURVE",
"325 293 OFFCURVE",
"368 256 OFFCURVE",
"422 256 CURVE SMOOTH",
"469 256 OFFCURVE",
"536 293 OFFCURVE",
"536 395 CURVE SMOOTH",
"536 468 OFFCURVE",
"489 522 OFFCURVE",
"417 522 CURVE SMOOTH",
"384 522 OFFCURVE",
"331 510 OFFCURVE",
"291 448 CURVE",
"291 448 OFFCURVE",
"273 542 OFFCURVE",
"171 538 CURVE",
"83 538 OFFCURVE",
"24 484 OFFCURVE",
"24 284 CURVE SMOOTH",
"24 174 OFFCURVE",
"34 -11 OFFCURVE",
"180 -7 CURVE"
);
}
);
width = 558;
},
{
associatedMasterId = master01;
layerId = "2F99B30A-3668-4507-83C3-5FBCB1697A43";
name = "Jan 3 19, 22:53";
paths = (
{
closed = 1;
nodes = (
"195 -7 OFFCURVE",
"398 -29 OFFCURVE",
"354 293 CURVE",
"354 293 OFFCURVE",
"443 225 OFFCURVE",
"527 274 CURVE",
"527 274 OFFCURVE",
"590 309 OFFCURVE",
"587 395 CURVE SMOOTH",
"586 430 OFFCURVE",
"572 497 OFFCURVE",
"491 518 CURVE",
"491 518 OFFCURVE",
"386 546 OFFCURVE",
"317 448 CURVE",
"317 448 OFFCURVE",
"297 542 OFFCURVE",
"185 538 CURVE",
"185 538 OFFCURVE",
"61 545 OFFCURVE",
"33 418 CURVE",
"33 418 OFFCURVE",
"3 233 OFFCURVE",
"51 90 CURVE",
"51 90 OFFCURVE",
"82 -10 OFFCURVE",
"195 -7 CURVE"
);
}
);
width = 609;
},
{
associatedMasterId = master01;
layerId = "FF7C6AA6-7767-4513-A875-BD385C5F5425";
name = "Jan 3 19, 22:53";
paths = (
{
closed = 1;
nodes = (
"205 -7 OFFCURVE",
"390 -29 OFFCURVE",
"350 293 CURVE",
"350 293 OFFCURVE",
"393 256 OFFCURVE",
"447 256 CURVE SMOOTH",
"466 256 OFFCURVE",
"487 261 OFFCURVE",
"507 274 CURVE",
"507 274 OFFCURVE",
"564 309 OFFCURVE",
"561 395 CURVE SMOOTH",
"560 430 OFFCURVE",
"548 497 OFFCURVE",
"474 518 CURVE",
"474 518 OFFCURVE",
"461 522 OFFCURVE",
"442 522 CURVE SMOOTH",
"409 522 OFFCURVE",
"356 510 OFFCURVE",
"316 448 CURVE",
"316 448 OFFCURVE",
"298 542 OFFCURVE",
"196 538 CURVE",
"196 538 OFFCURVE",
"83 545 OFFCURVE",
"58 418 CURVE",
"58 418 OFFCURVE",
"49 360 OFFCURVE",
"49 284 CURVE SMOOTH",
"49 224 OFFCURVE",
"55 153 OFFCURVE",
"74 90 CURVE",
"74 90 OFFCURVE",
"102 -10 OFFCURVE",
"205 -7 CURVE"
);
}
);
visible = 1;
width = 609;
}
);
unicode = 0072;
},
{
glyphname = s;
lastChange = "2019-01-04 13:08:03 +0000";
layers = (
{
layerId = master01;
paths = (
{
closed = 1;
nodes = (
"342 -31 OFFCURVE",
"502 -6 OFFCURVE",
"502 150 CURVE SMOOTH",
"502 302 OFFCURVE",
"304 296 OFFCURVE",
"304 341 CURVE SMOOTH",
"304 394 OFFCURVE",
"499 234 OFFCURVE",
"499 411 CURVE SMOOTH",
"499 474 OFFCURVE",
"469 532 OFFCURVE",
"299 532 CURVE SMOOTH",
"264 532 OFFCURVE",
"66 521 OFFCURVE",
"66 368 CURVE SMOOTH",
"66 249 OFFCURVE",
"221 231 OFFCURVE",
"221 189 CURVE SMOOTH",
"221 133 OFFCURVE",
"49 295 OFFCURVE",
"49 90 CURVE SMOOTH",
"49 41 OFFCURVE",
"78 -31 OFFCURVE",
"304 -31 CURVE SMOOTH"
);
}
);
width = 515;
},
{
associatedMasterId = master01;
layerId = "BC257946-6A32-4922-9CA0-858C9E9CBA21";
name = "Jan 3 19, 23:14";
paths = (
{
closed = 1;
nodes = (
"330 -31 OFFCURVE",
"548 -25 OFFCURVE",
"548 150 CURVE",
"548 150 OFFCURVE",
"563 289 OFFCURVE",
"330 318 CURVE",
"330 318 OFFCURVE",
"538 291 OFFCURVE",
"544 411 CURVE SMOOTH",
"547 476 OFFCURVE",
"511 528 OFFCURVE",
"324 532 CURVE SMOOTH",
"324 532 OFFCURVE",
"76 538 OFFCURVE",
"68 368 CURVE",
"68 368 OFFCURVE",
"60 264 OFFCURVE",
"239 222 CURVE",
"239 222 OFFCURVE",
"44 223 OFFCURVE",
"49 90 CURVE",
"49 90 OFFCURVE",
"34 -43 OFFCURVE",
"330 -31 CURVE"
);
}
);
width = 561;
},
{
associatedMasterId = master01;
layerId = "1637052F-D70A-4827-95E6-EFF0EC9CD9E3";
name = "Jan 3 19, 23:15";
paths = (
{
closed = 1;
nodes = (
"304 -31 OFFCURVE",
"502 -25 OFFCURVE",
"502 150 CURVE",
"502 150 OFFCURVE",
"516 289 OFFCURVE",
"304 318 CURVE",
"304 318 OFFCURVE",
"499 291 OFFCURVE",
"499 411 CURVE SMOOTH",
"499 474 OFFCURVE",
"469 528 OFFCURVE",
"299 532 CURVE SMOOTH",
"299 532 OFFCURVE",
"73 538 OFFCURVE",
"66 368 CURVE",
"66 368 OFFCURVE",
"59 264 OFFCURVE",
"221 222 CURVE",
"221 222 OFFCURVE",
"44 223 OFFCURVE",
"49 90 CURVE",
"49 90 OFFCURVE",
"35 -43 OFFCURVE",
"304 -31 CURVE"
);
}
);
visible = 1;
width = 515;
}
);
unicode = 0073;
},
{
glyphname = germandbls;
lastChange = "2019-01-04 13:08:03 +0000";
layers = (
{
layerId = master01;
paths = (
{
closed = 1;
nodes = (
"531 -5 OFFCURVE",
"584 102 OFFCURVE",
"584 215 CURVE SMOOTH",
"584 247 OFFCURVE",
"583 346 OFFCURVE",
"475 385 CURVE",
"475 385 OFFCURVE",
"530 432 OFFCURVE",
"530 516 CURVE SMOOTH",
"530 576 OFFCURVE",
"485 722 OFFCURVE",
"301 722 CURVE SMOOTH",
"141 722 OFFCURVE",
"30 641 OFFCURVE",
"30 322 CURVE SMOOTH",
"30 56 OFFCURVE",
"112 5 OFFCURVE",
"170 5 CURVE SMOOTH",
"284 5 OFFCURVE",
"282 123 OFFCURVE",
"282 250 CURVE SMOOTH",
"282 279 OFFCURVE",
"297 294 OFFCURVE",
"318 294 CURVE SMOOTH",
"353 294 OFFCURVE",
"362 272 OFFCURVE",
"362 247 CURVE SMOOTH",
"362 187 OFFCURVE",
"294 215 OFFCURVE",
"294 118 CURVE SMOOTH",
"294 64 OFFCURVE",
"341 -5 OFFCURVE",
"417 -5 CURVE SMOOTH"
);
},
{
closed = 1;
nodes = (
"288 435 OFFCURVE",
"266 457 OFFCURVE",
"266 484 CURVE",
"266 511 OFFCURVE",
"288 534 OFFCURVE",
"315 534 CURVE",
"342 534 OFFCURVE",
"365 511 OFFCURVE",
"365 484 CURVE",
"365 457 OFFCURVE",
"342 435 OFFCURVE",
"315 435 CURVE"
);
}
);
width = 600;
},
{
associatedMasterId = master01;
layerId = "CB4B5D2D-6921-46D3-B5BA-C8E0F2143772";
name = "Jan 3 19, 23:01";
paths = (
{
closed = 1;
nodes = (
"235 5 OFFCURVE",
"285 20 OFFCURVE",
"300 113 CURVE SMOOTH",
"314 206 OFFCURVE",
"307 190 OFFCURVE",
"307 250 CURVE SMOOTH",
"307 279 OFFCURVE",
"324 294 OFFCURVE",
"347 294 CURVE SMOOTH",
"372 294 OFFCURVE",
"386 286 OFFCURVE",
"393 265 CURVE",
"393 265 OFFCURVE",
"408 221 OFFCURVE",
"369 206 CURVE SMOOTH",
"327 189 OFFCURVE",
"305 118 OFFCURVE",
"333 69 CURVE SMOOTH",
"362 19 OFFCURVE",
"430 -35 OFFCURVE",
"535 14 CURVE SMOOTH",
"666 75 OFFCURVE",
"638 257 OFFCURVE",
"638 257 CURVE SMOOTH",
"638 257 OFFCURVE",
"624 351 OFFCURVE",
"520 385 CURVE",
"520 385 OFFCURVE",
"616 459 OFFCURVE",
"566 589 CURVE",
"566 589 OFFCURVE",
"517 715 OFFCURVE",
"328 722 CURVE",
"328 722 OFFCURVE",
"125 739 OFFCURVE",
"59 553 CURVE",
"59 553 OFFCURVE",
"30 466 OFFCURVE",
"30 322 CURVE SMOOTH",
"30 56 OFFCURVE",
"120 5 OFFCURVE",
"184 5 CURVE SMOOTH"
);
},
{
closed = 1;
nodes = (
"314 441 OFFCURVE",
"304 463 OFFCURVE",
"304 484 CURVE SMOOTH",
"304 506 OFFCURVE",
"322 522 OFFCURVE",
"344 522 CURVE",
"344 522 LINE",
"376 522 OFFCURVE",
"384 504 OFFCURVE",
"384 484 CURVE SMOOTH",
"384 463 OFFCURVE",
"370 441 OFFCURVE",
"344 441 CURVE SMOOTH"
);
}
);
width = 657;
},
{
associatedMasterId = master01;
layerId = "02643EF7-2045-4467-AECF-97A1BBF1DF06";
name = "Jan 3 19, 23:01";
paths = (
{
closed = 1;
nodes = (
"216 5 OFFCURVE",
"262 20 OFFCURVE",
"275 113 CURVE SMOOTH",
"288 206 OFFCURVE",
"282 190 OFFCURVE",
"282 250 CURVE SMOOTH",
"282 279 OFFCURVE",
"297 294 OFFCURVE",
"318 294 CURVE SMOOTH",
"341 294 OFFCURVE",
"353 286 OFFCURVE",
"360 265 CURVE",
"360 265 OFFCURVE",
"373 221 OFFCURVE",
"338 206 CURVE SMOOTH",
"300 189 OFFCURVE",
"280 118 OFFCURVE",
"305 69 CURVE SMOOTH",
"332 19 OFFCURVE",
"393 -35 OFFCURVE",
"489 14 CURVE SMOOTH",
"608 75 OFFCURVE",
"582 257 OFFCURVE",
"582 257 CURVE SMOOTH",
"582 257 OFFCURVE",
"570 351 OFFCURVE",
"475 385 CURVE",
"475 385 OFFCURVE",
"562 459 OFFCURVE",
"517 589 CURVE",
"517 589 OFFCURVE",
"472 715 OFFCURVE",
"301 722 CURVE",
"301 722 OFFCURVE",
"116 739 OFFCURVE",
"56 553 CURVE",
"56 553 OFFCURVE",
"30 466 OFFCURVE",
"30 322 CURVE SMOOTH",
"30 56 OFFCURVE",
"112 5 OFFCURVE",
"170 5 CURVE SMOOTH"
);
},
{
closed = 1;
nodes = (
"288 435 OFFCURVE",
"266 457 OFFCURVE",
"266 484 CURVE",
"266 511 OFFCURVE",
"288 534 OFFCURVE",
"315 534 CURVE",
"342 534 OFFCURVE",
"365 511 OFFCURVE",
"365 484 CURVE",
"365 457 OFFCURVE",
"342 435 OFFCURVE",
"315 435 CURVE"
);
}
);
visible = 1;
width = 600;
}
);
unicode = 00DF;
},
{
glyphname = t;
lastChange = "2019-01-03 21:03:56 +0000";
layers = (
{
layerId = master01;
paths = (
{
closed = 1;
nodes = (
"494 -12 OFFCURVE",
"455 321 OFFCURVE",
"455 321 CURVE SMOOTH",
"455 321 OFFCURVE",
"616 305 OFFCURVE",
"616 448 CURVE SMOOTH",
"616 602 OFFCURVE",
"444 581 OFFCURVE",
"444 581 CURVE SMOOTH",
"444 581 OFFCURVE",
"464 758 OFFCURVE",
"313 758 CURVE SMOOTH",
"157 759 OFFCURVE",
"188 583 OFFCURVE",
"188 583 CURVE SMOOTH",
"125 583 OFFCURVE",
"23 559 OFFCURVE",
"23 448 CURVE SMOOTH",
"23 289 OFFCURVE",
"205 327 OFFCURVE",
"205 327 CURVE",
"194 147 OFFCURVE",
"182 -12 OFFCURVE",
"337 -12 CURVE SMOOTH"
);
}
);
width = 632;
},
{
associatedMasterId = master01;
layerId = "2BD3A30C-BB4D-443C-9561-BE66B1E6C207";
name = "Jan 3 19, 23:03";
paths = (
{
closed = 1;
nodes = (
"541 -12 OFFCURVE",
"498 321 OFFCURVE",
"498 321 CURVE SMOOTH",
"498 321 OFFCURVE",
"676 305 OFFCURVE",
"676 448 CURVE SMOOTH",
"676 602 OFFCURVE",
"486 581 OFFCURVE",
"486 581 CURVE SMOOTH",
"486 581 OFFCURVE",
"508 758 OFFCURVE",
"342 758 CURVE SMOOTH",
"171 759 OFFCURVE",
"205 583 OFFCURVE",
"205 583 CURVE SMOOTH",
"136 583 OFFCURVE",
"23 559 OFFCURVE",
"23 448 CURVE SMOOTH",
"23 289 OFFCURVE",
"224 327 OFFCURVE",
"224 327 CURVE",
"211 147 OFFCURVE",
"198 -12 OFFCURVE",
"369 -12 CURVE SMOOTH"
);
}
);
width = 692;
}
);
unicode = 0074;
},
{
glyphname = u;
lastChange = "2019-01-04 13:08:03 +0000";
layers = (
{
layerId = master01;
paths = (
{
closed = 1;
nodes = (
"588 -18 OFFCURVE",
"589 135 OFFCURVE",
"589 285 CURVE SMOOTH",
"589 377 OFFCURVE",
"591 515 OFFCURVE",
"459 515 CURVE SMOOTH",
"435 515 OFFCURVE",
"355 510 OFFCURVE",
"355 384 CURVE SMOOTH",
"355 280 OFFCURVE",
"355 244 OFFCURVE",
"317 244 CURVE SMOOTH",
"276 244 OFFCURVE",
"279 318 OFFCURVE",
"278 384 CURVE SMOOTH",
"276 510 OFFCURVE",
"196 515 OFFCURVE",
"173 515 CURVE SMOOTH",
"66 515 OFFCURVE",
"42 412 OFFCURVE",
"42 285 CURVE SMOOTH",
"42 135 OFFCURVE",
"106 -17 OFFCURVE",
"306 -17 CURVE SMOOTH",
"380 -17 OFFCURVE",
"462 47 OFFCURVE",
"480 97 CURVE",
"415 113 LINE",
"415 -5 OFFCURVE",
"472 -18 OFFCURVE",
"492 -18 CURVE SMOOTH"
);
}
);
width = 626;
},
{
associatedMasterId = master01;
layerId = "2D60E714-F86C-4BF4-8E4D-36A20A0B5B61";
name = "Jan 3 19, 23:04";
paths = (
{
closed = 1;
nodes = (
"550 -22 OFFCURVE",
"607 136 OFFCURVE",
"607 136 CURVE SMOOTH",
"607 136 OFFCURVE",
"666 267 OFFCURVE",
"637 406 CURVE",
"637 406 OFFCURVE",
"621 522 OFFCURVE",
"489 515 CURVE",
"489 515 OFFCURVE",
"376 515 OFFCURVE",
"375 384 CURVE SMOOTH",
"374 300 OFFCURVE",
"375 264 OFFCURVE",
"344 264 CURVE SMOOTH",
"310 264 OFFCURVE",
"313 338 OFFCURVE",
"312 384 CURVE SMOOTH",
"309 507 OFFCURVE",
"205 514 OFFCURVE",
"205 514 CURVE SMOOTH",
"205 514 OFFCURVE",
"83 536 OFFCURVE",
"53 403 CURVE",
"53 403 OFFCURVE",
"10 207 OFFCURVE",
"92 87 CURVE",
"92 87 OFFCURVE",
"147 -12 OFFCURVE",
"354 -17 CURVE SMOOTH"
);
}
);
visible = 1;
width = 680;
},
{
associatedMasterId = master01;
layerId = "88215CDD-200B-404B-83F0-7D65FE98170C";
name = "Jan 3 19, 23:08";
paths = (
{
closed = 1;
nodes = (
"432 -12 OFFCURVE",
"463 -18 OFFCURVE",
"472 -18 CURVE SMOOTH",
"503 -18 OFFCURVE",
"589 -9 OFFCURVE",
"589 326 CURVE SMOOTH",
"589 377 OFFCURVE",
"588 515 OFFCURVE",
"459 515 CURVE SMOOTH",
"458 515 OFFCURVE",
"356 522 OFFCURVE",
"355 384 CURVE SMOOTH",
"354 280 OFFCURVE",
"355 244 OFFCURVE",
"317 244 CURVE SMOOTH",
"276 244 OFFCURVE",
"279 318 OFFCURVE",
"278 384 CURVE SMOOTH",
"276 514 OFFCURVE",
"184 515 OFFCURVE",
"173 515 CURVE SMOOTH",
"66 515 OFFCURVE",
"42 412 OFFCURVE",
"42 285 CURVE SMOOTH",
"42 135 OFFCURVE",
"83 -11 OFFCURVE",
"326 -17 CURVE SMOOTH",
"376 -19 OFFCURVE",
"418 -5 OFFCURVE",
"450 19 CURVE",
"428 26 LINE"
);
}
);
width = 626;
}
);
unicode = 0075;
},
{
glyphname = udieresis;
lastChange = "2019-01-03 21:12:49 +0000";
layers = (
{
components = (
{
name = u;
}
);
layerId = master01;
paths = (
{
closed = 1;
nodes = (
"457 567 OFFCURVE",
"484 602 OFFCURVE",
"484 645 CURVE SMOOTH",
"484 687 OFFCURVE",
"457 722 OFFCURVE",
"407 722 CURVE SMOOTH",
"357 722 OFFCURVE",
"330 687 OFFCURVE",
"330 645 CURVE SMOOTH",
"330 602 OFFCURVE",
"357 567 OFFCURVE",
"407 567 CURVE SMOOTH"
);
},
{
closed = 1;
nodes = (
"274 567 OFFCURVE",
"301 602 OFFCURVE",
"301 645 CURVE SMOOTH",
"301 687 OFFCURVE",
"274 722 OFFCURVE",
"224 722 CURVE SMOOTH",
"174 722 OFFCURVE",
"147 687 OFFCURVE",
"147 645 CURVE SMOOTH",
"147 602 OFFCURVE",
"174 567 OFFCURVE",
"224 567 CURVE SMOOTH"
);
}
);
width = 626;
}
);
unicode = 00FC;
},
{
glyphname = v;
lastChange = "2019-01-04 13:08:03 +0000";
layers = (
{
layerId = master01;
paths = (
{
closed = 1;
nodes = (
"455 -6 OFFCURVE",
"550 236 OFFCURVE",
"550 236 CURVE SMOOTH",
"550 236 OFFCURVE",
"653 476 OFFCURVE",
"500 513 CURVE SMOOTH",
"340 551 OFFCURVE",
"315 264 OFFCURVE",
"312 232 CURVE",
"308 232 LINE",
"303 264 OFFCURVE",
"263 541 OFFCURVE",
"124 512 CURVE SMOOTH",
"-2 484 OFFCURVE",
"20 340 OFFCURVE",
"45 270 CURVE SMOOTH",
"70 199 OFFCURVE",
"158 -6 OFFCURVE",
"310 -6 CURVE SMOOTH"
);
}
);
width = 611;
},
{
associatedMasterId = master01;
layerId = "5C0F1516-EA83-4B42-8775-513795817F73";
name = "Jan 3 19, 23:22";
paths = (
{
closed = 1;
nodes = (
"499 -6 OFFCURVE",
"603 236 OFFCURVE",
"603 236 CURVE SMOOTH",
"603 236 OFFCURVE",
"717 476 OFFCURVE",
"548 513 CURVE SMOOTH",
"362 553 OFFCURVE",
"340 303 OFFCURVE",
"340 303 CURVE SMOOTH",
"340 303 OFFCURVE",
"298 543 OFFCURVE",
"135 512 CURVE SMOOTH",
"-4 484 OFFCURVE",
"20 340 OFFCURVE",
"48 270 CURVE SMOOTH",
"75 199 OFFCURVE",
"172 -6 OFFCURVE",
"340 -6 CURVE SMOOTH"
);
}
);
width = 668;
}
);
unicode = 0076;
},
{
glyphname = w;
lastChange = "2019-01-03 22:27:36 +0000";
layers = (
{
layerId = master01;
paths = (
{
closed = 1;
nodes = (
"407 -13 OFFCURVE",
"405 150 OFFCURVE",
"405 150 CURVE",
"409 150 LINE",
"409 150 OFFCURVE",
"407 -13 OFFCURVE",
"563 -13 CURVE",
"563 -13 OFFCURVE",
"657 -18 OFFCURVE",
"714 97 CURVE",
"714 97 OFFCURVE",
"768 195 OFFCURVE",
"773 363 CURVE",
"773 363 OFFCURVE",
"782 526 OFFCURVE",
"644 526 CURVE SMOOTH",
"614 526 OFFCURVE",
"502 493 OFFCURVE",
"501 250 CURVE",
"498 250 LINE",
"498 250 OFFCURVE",
"503 405 OFFCURVE",
"407 405 CURVE SMOOTH",
"311 405 OFFCURVE",
"316 250 OFFCURVE",
"316 250 CURVE",
"313 250 LINE",
"312 493 OFFCURVE",
"200 526 OFFCURVE",
"170 526 CURVE SMOOTH",
"32 526 OFFCURVE",
"41 363 OFFCURVE",
"41 363 CURVE",
"46 195 OFFCURVE",
"100 97 OFFCURVE",
"100 97 CURVE",
"157 -18 OFFCURVE",
"251 -13 OFFCURVE",
"251 -13 CURVE"
);
}
);
width = 801;
},
{
associatedMasterId = master01;
layerId = "CCA4A808-FDCB-43B5-AC09-31A217C1BE1D";
name = "Jan 4 19, 00:25";
paths = (
{
closed = 1;
nodes = (
"432 -14 OFFCURVE",
"443 130 OFFCURVE",
"443 130 CURVE SMOOTH",
"443 130 OFFCURVE",
"444 -13 OFFCURVE",
"616 -13 CURVE",
"616 -13 OFFCURVE",
"719 -18 OFFCURVE",
"782 97 CURVE",
"782 97 OFFCURVE",
"841 195 OFFCURVE",
"847 363 CURVE",
"847 363 OFFCURVE",
"857 524 OFFCURVE",
"705 526 CURVE SMOOTH",
"705 526 OFFCURVE",
"545 537 OFFCURVE",
"545 290 CURVE",
"545 290 OFFCURVE",
"550 404 OFFCURVE",
"444 405 CURVE SMOOTH",
"444 405 OFFCURVE",
"346 410 OFFCURVE",
"352 290 CURVE",
"352 290 OFFCURVE",
"363 526 OFFCURVE",
"169 526 CURVE SMOOTH",
"169 526 OFFCURVE",
"26 521 OFFCURVE",
"39 359 CURVE",
"39 359 OFFCURVE",
"46 228 OFFCURVE",
"112 102 CURVE",
"112 102 OFFCURVE",
"163 -14 OFFCURVE",
"274 -14 CURVE SMOOTH"
);
}
);
width = 875;
}
);
unicode = 0077;
},
{
glyphname = x;
lastChange = "2019-01-03 21:14:25 +0000";
layers = (
{
layerId = master01;
paths = (
{
closed = 1;
nodes = (
"202 -102 OFFCURVE",
"281 110 OFFCURVE",
"281 110 CURVE",
"292 79 OFFCURVE",
"372 -96 OFFCURVE",
"492 16 CURVE SMOOTH",
"622 136 OFFCURVE",
"442 262 OFFCURVE",
"442 262 CURVE SMOOTH",
"442 262 OFFCURVE",
"598 385 OFFCURVE",
"500 481 CURVE SMOOTH",
"381 598 OFFCURVE",
"288 399 OFFCURVE",
"288 399 CURVE SMOOTH",
"288 399 OFFCURVE",
"203 613 OFFCURVE",
"75 481 CURVE SMOOTH",
"-24 377 OFFCURVE",
"126 256 OFFCURVE",
"126 256 CURVE SMOOTH",
"126 256 OFFCURVE",
"-45 143 OFFCURVE",
"83 16 CURVE SMOOTH"
);
}
);
width = 573;
},
{
associatedMasterId = master01;
layerId = "C323B0B9-CCB6-4307-AAFD-16E9A15E8B41";
name = "Jan 3 19, 23:14";
paths = (
{
closed = 1;
nodes = (
"218 -102 OFFCURVE",
"305 80 OFFCURVE",
"305 80 CURVE",
"317 49 OFFCURVE",
"406 -96 OFFCURVE",
"538 16 CURVE SMOOTH",
"680 136 OFFCURVE",
"516 262 OFFCURVE",
"516 262 CURVE SMOOTH",
"516 262 OFFCURVE",
"654 385 OFFCURVE",
"546 481 CURVE SMOOTH",
"415 598 OFFCURVE",
"313 429 OFFCURVE",
"313 429 CURVE SMOOTH",
"313 429 OFFCURVE",
"220 613 OFFCURVE",
"79 481 CURVE SMOOTH",
"-30 377 OFFCURVE",
"102 256 OFFCURVE",
"102 256 CURVE SMOOTH",
"102 256 OFFCURVE",
"-53 143 OFFCURVE",
"88 16 CURVE SMOOTH"
);
}
);
width = 624;
}
);
unicode = 0078;
},
{
glyphname = y;
lastChange = "2019-01-03 22:23:59 +0000";
layers = (
{
layerId = master01;
paths = (
{
closed = 1;
nodes = (
"440 -228 OFFCURVE",
"614 257 OFFCURVE",
"614 381 CURVE SMOOTH",
"614 500 OFFCURVE",
"536 518 OFFCURVE",
"502 518 CURVE SMOOTH",
"413 518 OFFCURVE",
"357 338 OFFCURVE",
"334 292 CURVE",
"328 292 LINE",
"283 368 OFFCURVE",
"233 513 OFFCURVE",
"154 513 CURVE SMOOTH",
"80 513 OFFCURVE",
"29 446 OFFCURVE",
"29 371 CURVE SMOOTH",
"29 247 OFFCURVE",
"147 163 OFFCURVE",
"215 89 CURVE",
"202 60 OFFCURVE",
"163 -24 OFFCURVE",
"163 -100 CURVE SMOOTH",
"163 -182 OFFCURVE",
"218 -228 OFFCURVE",
"280 -228 CURVE SMOOTH"
);
}
);
width = 653;
},
{
associatedMasterId = master01;
layerId = "17C9F17D-03C9-4614-B0F1-0D32C813D9B7";
name = "Jan 4 19, 00:21";
paths = (
{
closed = 1;
nodes = (
"382 -280 OFFCURVE",
"475 -100 OFFCURVE",
"475 -100 CURVE SMOOTH",
"475 -100 OFFCURVE",
"569 37 OFFCURVE",
"644 244 CURVE SMOOTH",
"725 468 OFFCURVE",
"606 505 OFFCURVE",
"606 505 CURVE",
"475 564 OFFCURVE",
"394 406 OFFCURVE",
"364 352 CURVE",
"346 378 OFFCURVE",
"327 406 OFFCURVE",
"305 434 CURVE SMOOTH",
"200 566 OFFCURVE",
"93 493 OFFCURVE",
"93 493 CURVE",
"-28 396 OFFCURVE",
"61 269 OFFCURVE",
"61 269 CURVE SMOOTH",
"61 269 OFFCURVE",
"110 188 OFFCURVE",
"198 121 CURVE",
"198 121 OFFCURVE",
"217 105 OFFCURVE",
"233 89 CURVE",
"211 42 OFFCURVE",
"111 -150 OFFCURVE",
"243 -213 CURVE SMOOTH"
);
}
);
width = 711;
}
);
unicode = 0079;
},
{
glyphname = ydieresis;
lastChange = "2019-01-03 22:24:45 +0000";
layers = (
{
components = (
{
name = y;
}
);
layerId = master01;
paths = (
{
closed = 1;
nodes = (
"461 550 OFFCURVE",
"488 585 OFFCURVE",
"488 628 CURVE SMOOTH",
"488 670 OFFCURVE",
"461 705 OFFCURVE",
"411 705 CURVE SMOOTH",
"361 705 OFFCURVE",
"334 670 OFFCURVE",
"334 628 CURVE SMOOTH",
"334 585 OFFCURVE",
"361 550 OFFCURVE",
"411 550 CURVE SMOOTH"
);
},
{
closed = 1;
nodes = (
"278 550 OFFCURVE",
"305 585 OFFCURVE",
"305 628 CURVE SMOOTH",
"305 670 OFFCURVE",
"278 705 OFFCURVE",
"228 705 CURVE SMOOTH",
"178 705 OFFCURVE",
"151 670 OFFCURVE",
"151 628 CURVE SMOOTH",
"151 585 OFFCURVE",
"178 550 OFFCURVE",
"228 550 CURVE SMOOTH"
);
}
);
width = 653;
}
);
unicode = 00FF;
},
{
glyphname = z;
lastChange = "2019-01-04 13:08:03 +0000";
layers = (
{
layerId = master01;
paths = (
{
closed = 1;
nodes = (
"395 -14 OFFCURVE",
"518 -13 OFFCURVE",
"518 123 CURVE SMOOTH",
"518 249 OFFCURVE",
"339 213 OFFCURVE",
"339 213 CURVE",
"339 219 LINE",
"439 315 OFFCURVE",
"471 424 OFFCURVE",
"471 446 CURVE SMOOTH",
"471 511 OFFCURVE",
"413 557 OFFCURVE",
"263 557 CURVE SMOOTH",
"13 557 OFFCURVE",
"28 428 OFFCURVE",
"28 424 CURVE SMOOTH",
"28 306 OFFCURVE",
"196 326 OFFCURVE",
"196 326 CURVE",
"196 320 LINE",
"171 300 OFFCURVE",
"50 204 OFFCURVE",
"49 111 CURVE SMOOTH",
"49 -7 OFFCURVE",
"160 -14 OFFCURVE",
"290 -14 CURVE SMOOTH"
);
}
);
width = 551;
},
{
associatedMasterId = master01;
layerId = "8063EE30-5E46-4846-9A46-7251C406129E";
name = "Jan 4 19, 00:19";
paths = (
{
closed = 1;
nodes = (
"432 -14 OFFCURVE",
"568 -13 OFFCURVE",
"568 123 CURVE SMOOTH",
"568 259 OFFCURVE",
"393 253 OFFCURVE",
"393 253 CURVE",
"499 344 OFFCURVE",
"514 427 OFFCURVE",
"514 427 CURVE",
"527 503 OFFCURVE",
"468 551 OFFCURVE",
"287 557 CURVE SMOOTH",
"20 564 OFFCURVE",
"28 434 OFFCURVE",
"28 434 CURVE",
"20 295 OFFCURVE",
"180 306 OFFCURVE",
"180 306 CURVE SMOOTH",
"180 306 OFFCURVE",
"24 201 OFFCURVE",
"57 75 CURVE SMOOTH",
"82 -13 OFFCURVE",
"202 -14 OFFCURVE",
"317 -14 CURVE SMOOTH"
);
}
);
width = 601;
}
);
unicode = 007A;
},
{
glyphname = ordfeminine;
lastChange = "2019-01-03 22:11:12 +0000";
layers = (
{
layerId = master01;
paths = (
{
closed = 1;
nodes = (
"151 500 OFFCURVE",
"194 494 OFFCURVE",
"189 583 CURVE",
"189 583 OFFCURVE",
"189 658 OFFCURVE",
"149 658 CURVE SMOOTH",
"125 658 OFFCURVE",
"118 633 OFFCURVE",
"118 633 CURVE SMOOTH",
"118 633 OFFCURVE",
"111 660 OFFCURVE",
"71 655 CURVE SMOOTH",
"9 649 OFFCURVE",
"15 571 OFFCURVE",
"15 571 CURVE",
"15 504 OFFCURVE",
"66 502 OFFCURVE",
"66 502 CURVE",
"114 496 OFFCURVE",
"121 527 OFFCURVE",
"121 527 CURVE",
"125 498 OFFCURVE",
"151 500 OFFCURVE",
"151 500 CURVE SMOOTH"
);
},
{
closed = 1;
nodes = (
"101 563 OFFCURVE",
"96 566 OFFCURVE",
"96 574 CURVE",
"95 580 OFFCURVE",
"101 587 OFFCURVE",
"107 587 CURVE SMOOTH",
"115 587 OFFCURVE",
"119 580 OFFCURVE",
"119 574 CURVE SMOOTH",
"119 567 OFFCURVE",
"114 563 OFFCURVE",
"107 563 CURVE SMOOTH"
);
}
);
width = 216;
},
{
associatedMasterId = master01;
layerId = "E9F4D138-440D-468D-9717-820E433D902B";
name = "Jan 4 19, 00:10";
paths = (
{
closed = 1;
nodes = (
"165 500 OFFCURVE",
"212 494 OFFCURVE",
"207 583 CURVE",
"207 583 OFFCURVE",
"207 658 OFFCURVE",
"163 658 CURVE SMOOTH",
"136 658 OFFCURVE",
"129 633 OFFCURVE",
"129 633 CURVE SMOOTH",
"129 633 OFFCURVE",
"121 660 OFFCURVE",
"77 655 CURVE SMOOTH",
"9 649 OFFCURVE",
"15 571 OFFCURVE",
"15 571 CURVE",
"15 504 OFFCURVE",
"71 502 OFFCURVE",
"71 502 CURVE",
"124 496 OFFCURVE",
"132 527 OFFCURVE",
"132 527 CURVE",
"136 498 OFFCURVE",
"165 500 OFFCURVE",
"165 500 CURVE SMOOTH"
);
},
{
closed = 1;
nodes = (
"110 563 OFFCURVE",
"105 566 OFFCURVE",
"105 574 CURVE",
"104 580 OFFCURVE",
"110 587 OFFCURVE",
"116 587 CURVE SMOOTH",
"124 587 OFFCURVE",
"128 580 OFFCURVE",
"128 574 CURVE SMOOTH",
"128 567 OFFCURVE",
"123 563 OFFCURVE",
"116 563 CURVE SMOOTH"
);
}
);
width = 234;
}
);
unicode = 00AA;
},
{
glyphname = mu;
lastChange = "2019-01-03 21:13:24 +0000";
layers = (
{
layerId = master01;
paths = (
{
closed = 1;
nodes = (
"321 -220 OFFCURVE",
"344 -121 OFFCURVE",
"344 2 CURVE",
"344 2 OFFCURVE",
"588 -61 OFFCURVE",
"595 273 CURVE",
"595 273 OFFCURVE",
"608 472 OFFCURVE",
"484 493 CURVE",
"484 493 OFFCURVE",
"376 505 OFFCURVE",
"388 349 CURVE",
"388 349 OFFCURVE",
"405 199 OFFCURVE",
"359 199 CURVE SMOOTH",
"315 199 OFFCURVE",
"320 263 OFFCURVE",
"321 346 CURVE",
"321 346 OFFCURVE",
"345 493 OFFCURVE",
"222 493 CURVE SMOOTH",
"104 493 OFFCURVE",
"94 361 OFFCURVE",
"94 361 CURVE SMOOTH",
"94 361 OFFCURVE",
"71 178 OFFCURVE",
"97 -72 CURVE",
"97 -72 OFFCURVE",
"111 -220 OFFCURVE",
"209 -220 CURVE SMOOTH"
);
}
);
width = 782;
},
{
associatedMasterId = master01;
layerId = "A3E3196E-E35C-4551-9263-932F45A76940";
name = "Jan 3 19, 23:13";
paths = (
{
closed = 1;
nodes = (
"345 -220 OFFCURVE",
"370 -121 OFFCURVE",
"370 2 CURVE",
"370 2 OFFCURVE",
"639 -61 OFFCURVE",
"646 273 CURVE",
"646 273 OFFCURVE",
"661 472 OFFCURVE",
"524 493 CURVE",
"524 493 OFFCURVE",
"406 505 OFFCURVE",
"419 349 CURVE",
"419 349 OFFCURVE",
"437 199 OFFCURVE",
"387 199 CURVE SMOOTH",
"338 199 OFFCURVE",
"344 263 OFFCURVE",
"345 346 CURVE",
"345 346 OFFCURVE",
"372 493 OFFCURVE",
"236 493 CURVE SMOOTH",
"106 493 OFFCURVE",
"95 361 OFFCURVE",
"95 361 CURVE SMOOTH",
"95 361 OFFCURVE",
"70 178 OFFCURVE",
"99 -72 CURVE",
"99 -72 OFFCURVE",
"114 -220 OFFCURVE",
"222 -220 CURVE SMOOTH"
);
}
);
width = 833;
}
);
unicode = 03BC;
},
{
glyphname = zero;
lastChange = "2019-01-03 22:05:59 +0000";
layers = (
{
layerId = master01;
paths = (
{
closed = 1;
nodes = (
"413 4 OFFCURVE",
"516 116 OFFCURVE",
"516 310 CURVE SMOOTH",
"516 504 OFFCURVE",
"495 706 OFFCURVE",
"277 706 CURVE SMOOTH",
"75 706 OFFCURVE",
"38 504 OFFCURVE",
"38 310 CURVE SMOOTH",
"38 116 OFFCURVE",
"141 4 OFFCURVE",
"277 4 CURVE SMOOTH"
);
},
{
closed = 1;
nodes = (
"257 288 OFFCURVE",
"235 310 OFFCURVE",
"235 337 CURVE",
"235 364 OFFCURVE",
"257 387 OFFCURVE",
"284 387 CURVE",
"311 387 OFFCURVE",
"334 364 OFFCURVE",
"334 337 CURVE",
"334 310 OFFCURVE",
"311 288 OFFCURVE",
"284 288 CURVE"
);
}
);
width = 544;
},
{
associatedMasterId = master01;
layerId = "5D017D10-9949-44F7-9808-63248CF4146A";
name = "Jan 4 19, 00:03";
paths = (
{
closed = 1;
nodes = (
"451 4 OFFCURVE",
"564 116 OFFCURVE",
"564 310 CURVE SMOOTH",
"564 504 OFFCURVE",
"541 706 OFFCURVE",
"301 706 CURVE SMOOTH",
"79 706 OFFCURVE",
"38 504 OFFCURVE",
"38 310 CURVE SMOOTH",
"38 116 OFFCURVE",
"151 4 OFFCURVE",
"301 4 CURVE SMOOTH"
);
},
{
closed = 1;
nodes = (
"283 300 OFFCURVE",
"269 315 OFFCURVE",
"269 338 CURVE SMOOTH",
"269 367 OFFCURVE",
"284 382 OFFCURVE",
"308 382 CURVE SMOOTH",
"329 382 OFFCURVE",
"344 367 OFFCURVE",
"344 337 CURVE SMOOTH",
"344 319 OFFCURVE",
"336 300 OFFCURVE",
"308 300 CURVE SMOOTH"
);
}
);
width = 592;
}
);
unicode = 0030;
},
{
glyphname = one;
lastChange = "2019-01-03 22:03:50 +0000";
layers = (
{
layerId = master01;
paths = (
{
closed = 1;
nodes = (
"286 0 OFFCURVE",
"403 -10 OFFCURVE",
"415 174 CURVE",
"415 174 OFFCURVE",
"454 574 OFFCURVE",
"335 664 CURVE",
"335 664 OFFCURVE",
"254 730 OFFCURVE",
"131 664 CURVE",
"131 664 OFFCURVE",
"-24 580 OFFCURVE",
"35 454 CURVE SMOOTH",
"77 361 OFFCURVE",
"189 454 OFFCURVE",
"189 454 CURVE SMOOTH",
"189 454 OFFCURVE",
"143 279 OFFCURVE",
"172 120 CURVE",
"172 120 OFFCURVE",
"191 0 OFFCURVE",
"286 0 CURVE"
);
}
);
width = 452;
},
{
associatedMasterId = master01;
layerId = "1A4F8203-0F1A-42D4-A01B-BA93400AF1D0";
name = "Jan 4 19, 00:03";
paths = (
{
closed = 1;
nodes = (
"312 0 OFFCURVE",
"441 -10 OFFCURVE",
"454 174 CURVE",
"454 174 OFFCURVE",
"497 574 OFFCURVE",
"366 664 CURVE",
"366 664 OFFCURVE",
"277 730 OFFCURVE",
"142 664 CURVE",
"142 664 OFFCURVE",
"-28 580 OFFCURVE",
"36 454 CURVE SMOOTH",
"83 361 OFFCURVE",
"206 454 OFFCURVE",
"206 454 CURVE SMOOTH",
"206 454 OFFCURVE",
"155 279 OFFCURVE",
"187 120 CURVE",
"187 120 OFFCURVE",
"208 0 OFFCURVE",
"312 0 CURVE"
);
}
);
width = 492;
}
);
unicode = 0031;
},
{
glyphname = two;
lastChange = "2019-01-03 22:04:02 +0000";
layers = (
{
layerId = master01;
paths = (
{
closed = 1;
nodes = (
"242 -4 OFFCURVE",
"497 -21 OFFCURVE",
"500 117 CURVE SMOOTH",
"504 259 OFFCURVE",
"355 254 OFFCURVE",
"355 254 CURVE SMOOTH",
"355 254 OFFCURVE",
"509 435 OFFCURVE",
"423 609 CURVE",
"423 609 OFFCURVE",
"378 721 OFFCURVE",
"208 706 CURVE",
"208 706 OFFCURVE",
"23 685 OFFCURVE",
"29 550 CURVE",
"29 550 OFFCURVE",
"37 447 OFFCURVE",
"118 465 CURVE",
"118 465 OFFCURVE",
"177 495 OFFCURVE",
"208 448 CURVE SMOOTH",
"232 411 OFFCURVE",
"202 363 OFFCURVE",
"169 332 CURVE SMOOTH",
"99 267 OFFCURVE",
"29 227 OFFCURVE",
"41 114 CURVE",
"41 114 OFFCURVE",
"49 -3 OFFCURVE",
"242 -4 CURVE"
);
}
);
width = 534;
},
{
associatedMasterId = master01;
layerId = "C685747B-B358-459C-A5B1-8BBDAE2C96F4";
name = "Jan 4 19, 00:03";
paths = (
{
closed = 1;
nodes = (
"264 -4 OFFCURVE",
"544 -21 OFFCURVE",
"548 117 CURVE SMOOTH",
"552 259 OFFCURVE",
"388 254 OFFCURVE",
"388 254 CURVE SMOOTH",
"388 254 OFFCURVE",
"557 435 OFFCURVE",
"463 609 CURVE",
"463 609 OFFCURVE",
"413 721 OFFCURVE",
"226 706 CURVE",
"226 706 OFFCURVE",
"23 685 OFFCURVE",
"29 550 CURVE",
"29 550 OFFCURVE",
"38 447 OFFCURVE",
"127 465 CURVE",
"127 465 OFFCURVE",
"192 495 OFFCURVE",
"226 448 CURVE SMOOTH",
"253 411 OFFCURVE",
"220 363 OFFCURVE",
"183 332 CURVE SMOOTH",
"106 267 OFFCURVE",
"30 227 OFFCURVE",
"43 114 CURVE",
"43 114 OFFCURVE",
"51 -3 OFFCURVE",
"264 -4 CURVE"
);
}
);
width = 582;
}
);
unicode = 0032;
},
{
glyphname = three;
lastChange = "2019-01-15 17:06:02 +0000";
layers = (
{
layerId = master01;
paths = (
{
closed = 1;
nodes = (
"425 28 OFFCURVE",
"553 92 OFFCURVE",
"534 279 CURVE",
"534 279 OFFCURVE",
"522 398 OFFCURVE",
"428 445 CURVE",
"428 445 OFFCURVE",
"506 537 OFFCURVE",
"457 634 CURVE SMOOTH",
"413 723 OFFCURVE",
"226 709 OFFCURVE",
"226 709 CURVE SMOOTH",
"226 709 OFFCURVE",
"45 707 OFFCURVE",
"43 587 CURVE",
"43 587 OFFCURVE",
"24 444 OFFCURVE",
"331 530 CURVE",
"244 543 LINE",
"244 442 LINE",
"251 481 LINE",
"235 481 OFFCURVE",
"121 478 OFFCURVE",
"121 397 CURVE",
"121 397 OFFCURVE",
"112 300 OFFCURVE",
"226 300 CURVE",
"226 300 OFFCURVE",
"271 303 OFFCURVE",
"286 274 CURVE",
"286 274 OFFCURVE",
"306 240 OFFCURVE",
"277 213 CURVE",
"277 213 OFFCURVE",
"244 181 OFFCURVE",
"187 219 CURVE",
"187 219 OFFCURVE",
"110 276 OFFCURVE",
"58 219 CURVE",
"58 219 OFFCURVE",
"-26 131 OFFCURVE",
"84 49 CURVE",
"84 49 OFFCURVE",
"243 -58 OFFCURVE",
"425 28 CURVE"
);
}
);
width = 568;
},
{
associatedMasterId = master01;
layerId = "C0EE19E7-5D13-4B54-BB79-D6D0A369B81F";
name = "Jan 4 19, 00:04";
paths = (
{
closed = 1;
nodes = (
"464 28 OFFCURVE",
"605 92 OFFCURVE",
"584 279 CURVE",
"584 279 OFFCURVE",
"571 398 OFFCURVE",
"468 445 CURVE",
"468 445 OFFCURVE",
"553 537 OFFCURVE",
"500 634 CURVE SMOOTH",
"451 723 OFFCURVE",
"246 709 OFFCURVE",
"246 709 CURVE SMOOTH",
"246 709 OFFCURVE",
"46 707 OFFCURVE",
"44 587 CURVE",
"44 587 OFFCURVE",
"29 471 OFFCURVE",
"244 495 CURVE",
"244 495 OFFCURVE",
"130 472 OFFCURVE",
"130 397 CURVE",
"130 397 OFFCURVE",
"120 300 OFFCURVE",
"245 300 CURVE",
"245 300 OFFCURVE",
"295 303 OFFCURVE",
"312 274 CURVE",
"312 274 OFFCURVE",
"333 240 OFFCURVE",
"302 213 CURVE",
"302 213 OFFCURVE",
"265 181 OFFCURVE",
"203 219 CURVE",
"203 219 OFFCURVE",
"118 276 OFFCURVE",
"61 219 CURVE",
"61 219 OFFCURVE",
"-32 131 OFFCURVE",
"89 49 CURVE",
"89 49 OFFCURVE",
"264 -58 OFFCURVE",
"464 28 CURVE"
);
}
);
width = 618;
},
{
associatedMasterId = master01;
layerId = "59581F78-7958-4BC7-A819-A5F2B9B928D7";
name = "Jan 15 19, 19:05";
paths = (
{
closed = 1;
nodes = (
"425 28 OFFCURVE",
"553 92 OFFCURVE",
"534 279 CURVE",
"534 279 OFFCURVE",
"522 398 OFFCURVE",
"428 445 CURVE",
"428 445 OFFCURVE",
"506 537 OFFCURVE",
"457 634 CURVE SMOOTH",
"413 723 OFFCURVE",
"226 709 OFFCURVE",
"226 709 CURVE SMOOTH",
"226 709 OFFCURVE",
"45 707 OFFCURVE",
"43 587 CURVE",
"43 587 OFFCURVE",
"24 432 OFFCURVE",
"331 518 CURVE",
"244 543 LINE",
"244 442 LINE",
"251 486 LINE",
"235 486 OFFCURVE",
"121 483 OFFCURVE",
"121 397 CURVE",
"121 397 OFFCURVE",
"112 300 OFFCURVE",
"226 300 CURVE",
"226 300 OFFCURVE",
"271 303 OFFCURVE",
"286 274 CURVE",
"286 274 OFFCURVE",
"306 240 OFFCURVE",
"277 213 CURVE",
"277 213 OFFCURVE",
"244 181 OFFCURVE",
"187 219 CURVE",
"187 219 OFFCURVE",
"110 276 OFFCURVE",
"58 219 CURVE",
"58 219 OFFCURVE",
"-26 131 OFFCURVE",
"84 49 CURVE",
"84 49 OFFCURVE",
"243 -58 OFFCURVE",
"425 28 CURVE"
);
}
);
width = 568;
}
);
unicode = 0033;
},
{
glyphname = four;
lastChange = "2019-01-03 22:05:46 +0000";
layers = (
{
layerId = master01;
paths = (
{
closed = 1;
nodes = (
"522 -7 OFFCURVE",
"491 202 OFFCURVE",
"491 202 CURVE SMOOTH",
"491 202 OFFCURVE",
"561 207 OFFCURVE",
"561 288 CURVE",
"561 288 OFFCURVE",
"561 374 OFFCURVE",
"491 376 CURVE SMOOTH",
"491 376 OFFCURVE",
"511 656 OFFCURVE",
"369 699 CURVE",
"369 699 OFFCURVE",
"207 756 OFFCURVE",
"96 540 CURVE",
"96 540 OFFCURVE",
"-48 266 OFFCURVE",
"96 223 CURVE",
"96 223 OFFCURVE",
"149 202 OFFCURVE",
"244 202 CURVE",
"244 202 OFFCURVE",
"216 -7 OFFCURVE",
"363 -7 CURVE SMOOTH"
);
},
{
closed = 1;
nodes = (
"206 341 OFFCURVE",
"184 363 OFFCURVE",
"184 390 CURVE",
"184 417 OFFCURVE",
"206 440 OFFCURVE",
"233 440 CURVE",
"260 440 OFFCURVE",
"283 417 OFFCURVE",
"283 390 CURVE",
"283 363 OFFCURVE",
"260 341 OFFCURVE",
"233 341 CURVE"
);
}
);
width = 597;
},
{
associatedMasterId = master01;
layerId = "7CDE9C18-D1E4-4ED3-98DC-0A08E65401FD";
name = "Jan 4 19, 00:05";
paths = (
{
closed = 1;
nodes = (
"571 -7 OFFCURVE",
"536 202 OFFCURVE",
"536 202 CURVE SMOOTH",
"536 202 OFFCURVE",
"613 207 OFFCURVE",
"613 288 CURVE",
"613 288 OFFCURVE",
"613 374 OFFCURVE",
"536 376 CURVE SMOOTH",
"536 376 OFFCURVE",
"559 656 OFFCURVE",
"402 699 CURVE",
"402 699 OFFCURVE",
"224 756 OFFCURVE",
"102 540 CURVE",
"102 540 OFFCURVE",
"-56 266 OFFCURVE",
"102 223 CURVE",
"102 223 OFFCURVE",
"160 202 OFFCURVE",
"265 202 CURVE",
"265 202 OFFCURVE",
"234 -7 OFFCURVE",
"396 -7 CURVE SMOOTH"
);
},
{
closed = 1;
nodes = (
"228 353 OFFCURVE",
"212 362 OFFCURVE",
"210 390 CURVE SMOOTH",
"208 411 OFFCURVE",
"227 432 OFFCURVE",
"250 432 CURVE SMOOTH",
"275 432 OFFCURVE",
"289 411 OFFCURVE",
"289 390 CURVE SMOOTH",
"289 367 OFFCURVE",
"272 353 OFFCURVE",
"250 353 CURVE SMOOTH"
);
}
);
width = 649;
}
);
unicode = 0034;
},
{
glyphname = five;
lastChange = "2019-01-15 17:07:06 +0000";
layers = (
{
layerId = master01;
paths = (
{
closed = 1;
nodes = (
"179 4 OFFCURVE",
"397 -48 OFFCURVE",
"476 89 CURVE",
"476 89 OFFCURVE",
"513 150 OFFCURVE",
"513 232 CURVE SMOOTH",
"513 338 OFFCURVE",
"452 470 OFFCURVE",
"216 447 CURVE",
"265 414 LINE",
"265 510 LINE",
"251 474 LINE",
"258 473 OFFCURVE",
"471 458 OFFCURVE",
"471 574 CURVE",
"471 641 OFFCURVE",
"418 702 OFFCURVE",
"262 702 CURVE SMOOTH",
"189 702 OFFCURVE",
"62 685 OFFCURVE",
"57 529 CURVE SMOOTH",
"53 396 OFFCURVE",
"101 362 OFFCURVE",
"179 333 CURVE",
"179 333 OFFCURVE",
"258 312 OFFCURVE",
"244 261 CURVE",
"244 261 OFFCURVE",
"239 202 OFFCURVE",
"158 248 CURVE",
"158 248 OFFCURVE",
"75 296 OFFCURVE",
"44 200 CURVE",
"44 200 OFFCURVE",
"1 61 OFFCURVE",
"179 4 CURVE"
);
}
);
width = 544;
},
{
associatedMasterId = master01;
layerId = "DB5D5452-A54F-49F8-87A3-64F4539A5752";
name = "Jan 4 19, 00:06";
paths = (
{
closed = 1;
nodes = (
"192 4 OFFCURVE",
"432 -48 OFFCURVE",
"519 89 CURVE",
"519 89 OFFCURVE",
"608 222 OFFCURVE",
"523 360 CURVE",
"523 360 OFFCURVE",
"473 451 OFFCURVE",
"304 460 CURVE",
"304 460 OFFCURVE",
"511 446 OFFCURVE",
"513 574 CURVE",
"513 574 OFFCURVE",
"524 671 OFFCURVE",
"373 695 CURVE",
"373 695 OFFCURVE",
"246 717 OFFCURVE",
"159 682 CURVE",
"159 682 OFFCURVE",
"62 651 OFFCURVE",
"58 529 CURVE SMOOTH",
"54 396 OFFCURVE",
"106 362 OFFCURVE",
"192 333 CURVE",
"192 333 OFFCURVE",
"279 312 OFFCURVE",
"264 261 CURVE",
"264 261 OFFCURVE",
"258 202 OFFCURVE",
"169 248 CURVE",
"169 248 OFFCURVE",
"78 296 OFFCURVE",
"44 200 CURVE",
"44 200 OFFCURVE",
"-3 61 OFFCURVE",
"192 4 CURVE"
);
}
);
width = 591;
},
{
associatedMasterId = master01;
layerId = "CC42B1AF-77A0-457F-9A72-AF3ABB59A1D5";
name = "Jan 15 19, 19:06";
paths = (
{
closed = 1;
nodes = (
"179 4 OFFCURVE",
"397 -48 OFFCURVE",
"476 89 CURVE",
"476 89 OFFCURVE",
"513 150 OFFCURVE",
"513 232 CURVE SMOOTH",
"513 330 OFFCURVE",
"461 459 OFFCURVE",
"265 459 CURVE",
"265 465 LINE",
"270 465 OFFCURVE",
"471 447 OFFCURVE",
"471 574 CURVE",
"471 574 OFFCURVE",
"481 671 OFFCURVE",
"343 695 CURVE",
"343 695 OFFCURVE",
"228 717 OFFCURVE",
"149 682 CURVE",
"149 682 OFFCURVE",
"61 651 OFFCURVE",
"57 529 CURVE SMOOTH",
"53 396 OFFCURVE",
"101 362 OFFCURVE",
"179 333 CURVE",
"179 333 OFFCURVE",
"258 312 OFFCURVE",
"244 261 CURVE",
"244 261 OFFCURVE",
"239 202 OFFCURVE",
"158 248 CURVE",
"158 248 OFFCURVE",
"75 296 OFFCURVE",
"44 200 CURVE",
"44 200 OFFCURVE",
"1 61 OFFCURVE",
"179 4 CURVE"
);
}
);
visible = 1;
width = 544;
}
);
unicode = 0035;
},
{
glyphname = six;
lastChange = "2019-01-03 22:07:33 +0000";
layers = (
{
layerId = master01;
paths = (
{
closed = 1;
nodes = (
"299 -6 OFFCURVE",
"527 -10 OFFCURVE",
"527 234 CURVE",
"527 234 OFFCURVE",
"533 443 OFFCURVE",
"343 443 CURVE SMOOTH",
"343 443 OFFCURVE",
"356 464 OFFCURVE",
"396 515 CURVE",
"396 515 OFFCURVE",
"475 606 OFFCURVE",
"391 675 CURVE",
"391 675 OFFCURVE",
"304 754 OFFCURVE",
"204 655 CURVE",
"204 655 OFFCURVE",
"16 500 OFFCURVE",
"46 238 CURVE",
"46 238 OFFCURVE",
"77 -6 OFFCURVE",
"299 -6 CURVE"
);
},
{
closed = 1;
nodes = (
"263 183 OFFCURVE",
"241 205 OFFCURVE",
"241 232 CURVE",
"241 259 OFFCURVE",
"263 282 OFFCURVE",
"290 282 CURVE",
"317 282 OFFCURVE",
"340 259 OFFCURVE",
"340 232 CURVE",
"340 205 OFFCURVE",
"317 183 OFFCURVE",
"290 183 CURVE"
);
}
);
width = 565;
},
{
associatedMasterId = master01;
layerId = "94764A88-63AE-4862-94DD-A5E341D4C89E";
name = "Jan 4 19, 00:07";
paths = (
{
closed = 1;
nodes = (
"325 -6 OFFCURVE",
"576 -10 OFFCURVE",
"576 234 CURVE",
"576 234 OFFCURVE",
"583 443 OFFCURVE",
"374 443 CURVE SMOOTH",
"374 443 OFFCURVE",
"388 464 OFFCURVE",
"432 515 CURVE",
"432 515 OFFCURVE",
"519 606 OFFCURVE",
"427 675 CURVE",
"427 675 OFFCURVE",
"331 754 OFFCURVE",
"221 655 CURVE",
"221 655 OFFCURVE",
"14 500 OFFCURVE",
"47 238 CURVE",
"47 238 OFFCURVE",
"81 -6 OFFCURVE",
"325 -6 CURVE"
);
},
{
closed = 1;
nodes = (
"293 195 OFFCURVE",
"277 204 OFFCURVE",
"275 232 CURVE SMOOTH",
"273 253 OFFCURVE",
"292 274 OFFCURVE",
"315 274 CURVE SMOOTH",
"340 274 OFFCURVE",
"354 253 OFFCURVE",
"354 232 CURVE SMOOTH",
"354 209 OFFCURVE",
"337 195 OFFCURVE",
"315 195 CURVE SMOOTH"
);
}
);
width = 614;
}
);
unicode = 0036;
},
{
glyphname = seven;
lastChange = "2019-01-03 22:07:46 +0000";
layers = (
{
layerId = master01;
paths = (
{
closed = 1;
nodes = (
"231 1 OFFCURVE",
"349 -41 OFFCURVE",
"405 115 CURVE",
"405 115 OFFCURVE",
"573 482 OFFCURVE",
"489 619 CURVE",
"489 619 OFFCURVE",
"446 711 OFFCURVE",
"295 718 CURVE",
"295 718 OFFCURVE",
"32 747 OFFCURVE",
"39 545 CURVE SMOOTH",
"43 393 OFFCURVE",
"271 465 OFFCURVE",
"271 465 CURVE SMOOTH",
"271 465 OFFCURVE",
"163 282 OFFCURVE",
"153 129 CURVE",
"153 129 OFFCURVE",
"141 34 OFFCURVE",
"231 1 CURVE"
);
}
);
width = 553;
},
{
associatedMasterId = master01;
layerId = "9425B6F5-2E70-4092-A7D0-9FC441C7C13C";
name = "Jan 4 19, 00:07";
paths = (
{
closed = 1;
nodes = (
"250 1 OFFCURVE",
"380 -41 OFFCURVE",
"442 115 CURVE",
"442 115 OFFCURVE",
"627 482 OFFCURVE",
"534 619 CURVE",
"534 619 OFFCURVE",
"487 711 OFFCURVE",
"321 718 CURVE",
"321 718 OFFCURVE",
"32 747 OFFCURVE",
"39 545 CURVE SMOOTH",
"44 393 OFFCURVE",
"295 465 OFFCURVE",
"295 465 CURVE SMOOTH",
"295 465 OFFCURVE",
"176 282 OFFCURVE",
"165 129 CURVE",
"165 129 OFFCURVE",
"151 34 OFFCURVE",
"250 1 CURVE"
);
}
);
width = 600;
}
);
unicode = 0037;
},
{
glyphname = eight;
lastChange = "2019-01-03 22:08:36 +0000";
layers = (
{
layerId = master01;
paths = (
{
closed = 1;
nodes = (
"433 -18 OFFCURVE",
"537 62 OFFCURVE",
"537 214 CURVE SMOOTH",
"537 292 OFFCURVE",
"507 360 OFFCURVE",
"442 403 CURVE",
"470 432 OFFCURVE",
"483 473 OFFCURVE",
"483 528 CURVE SMOOTH",
"483 645 OFFCURVE",
"398 710 OFFCURVE",
"284 710 CURVE SMOOTH",
"168 710 OFFCURVE",
"83 644 OFFCURVE",
"82 528 CURVE SMOOTH",
"81 480 OFFCURVE",
"95 437 OFFCURVE",
"129 404 CURVE",
"67 365 OFFCURVE",
"40 300 OFFCURVE",
"40 214 CURVE SMOOTH",
"40 62 OFFCURVE",
"144 -18 OFFCURVE",
"288 -18 CURVE SMOOTH"
);
},
{
closed = 1;
nodes = (
"263 183 OFFCURVE",
"241 205 OFFCURVE",
"241 232 CURVE",
"241 259 OFFCURVE",
"263 282 OFFCURVE",
"290 282 CURVE",
"317 282 OFFCURVE",
"340 259 OFFCURVE",
"340 232 CURVE",
"340 205 OFFCURVE",
"317 183 OFFCURVE",
"290 183 CURVE"
);
},
{
closed = 1;
nodes = (
"263 447 OFFCURVE",
"241 469 OFFCURVE",
"241 496 CURVE",
"241 523 OFFCURVE",
"263 546 OFFCURVE",
"290 546 CURVE",
"317 546 OFFCURVE",
"340 523 OFFCURVE",
"340 496 CURVE",
"340 469 OFFCURVE",
"317 447 OFFCURVE",
"290 447 CURVE"
);
}
);
width = 575;
},
{
associatedMasterId = master01;
layerId = "22CA0F24-54C5-4B83-9F8B-4D3F3E7C2F9F";
name = "Jan 4 19, 00:08";
paths = (
{
closed = 1;
nodes = (
"472 -18 OFFCURVE",
"587 62 OFFCURVE",
"587 214 CURVE SMOOTH",
"587 292 OFFCURVE",
"554 360 OFFCURVE",
"482 403 CURVE",
"513 432 OFFCURVE",
"527 473 OFFCURVE",
"527 528 CURVE SMOOTH",
"527 645 OFFCURVE",
"434 710 OFFCURVE",
"308 710 CURVE SMOOTH",
"181 710 OFFCURVE",
"87 644 OFFCURVE",
"86 528 CURVE SMOOTH",
"85 480 OFFCURVE",
"101 437 OFFCURVE",
"138 404 CURVE",
"70 365 OFFCURVE",
"40 300 OFFCURVE",
"40 214 CURVE SMOOTH",
"40 62 OFFCURVE",
"154 -18 OFFCURVE",
"313 -18 CURVE SMOOTH"
);
},
{
closed = 1;
nodes = (
"294 194 OFFCURVE",
"278 203 OFFCURVE",
"276 231 CURVE SMOOTH",
"274 252 OFFCURVE",
"293 273 OFFCURVE",
"316 273 CURVE SMOOTH",
"341 273 OFFCURVE",
"355 252 OFFCURVE",
"355 231 CURVE SMOOTH",
"355 208 OFFCURVE",
"338 194 OFFCURVE",
"316 194 CURVE SMOOTH"
);
},
{
closed = 1;
nodes = (
"294 458 OFFCURVE",
"278 467 OFFCURVE",
"276 495 CURVE SMOOTH",
"274 516 OFFCURVE",
"293 537 OFFCURVE",
"316 537 CURVE SMOOTH",
"341 537 OFFCURVE",
"355 516 OFFCURVE",
"355 495 CURVE SMOOTH",
"355 472 OFFCURVE",
"338 458 OFFCURVE",
"316 458 CURVE SMOOTH"
);
}
);
width = 625;
}
);
unicode = 0038;
},
{
glyphname = nine;
lastChange = "2019-01-03 22:09:09 +0000";
layers = (
{
layerId = master01;
paths = (
{
closed = 1;
nodes = (
"168 22 OFFCURVE",
"250 -57 OFFCURVE",
"357 47 CURVE",
"357 47 OFFCURVE",
"552 206 OFFCURVE",
"523 468 CURVE",
"523 468 OFFCURVE",
"500 709 OFFCURVE",
"278 709 CURVE SMOOTH",
"278 709 OFFCURVE",
"35 712 OFFCURVE",
"35 468 CURVE",
"35 468 OFFCURVE",
"28 260 OFFCURVE",
"217 260 CURVE",
"217 260 OFFCURVE",
"205 238 OFFCURVE",
"165 188 CURVE",
"165 188 OFFCURVE",
"87 93 OFFCURVE",
"168 22 CURVE"
);
},
{
closed = 1;
nodes = (
"259 381 OFFCURVE",
"237 403 OFFCURVE",
"237 430 CURVE",
"237 457 OFFCURVE",
"259 480 OFFCURVE",
"286 480 CURVE",
"313 480 OFFCURVE",
"336 457 OFFCURVE",
"336 430 CURVE",
"336 403 OFFCURVE",
"313 381 OFFCURVE",
"286 381 CURVE"
);
}
);
width = 560;
},
{
associatedMasterId = master01;
layerId = "21B48FCB-4282-4A6A-93C0-B7238865CF96";
name = "Jan 4 19, 00:08";
paths = (
{
closed = 1;
nodes = (
"182 22 OFFCURVE",
"272 -57 OFFCURVE",
"390 47 CURVE",
"390 47 OFFCURVE",
"604 206 OFFCURVE",
"572 468 CURVE",
"572 468 OFFCURVE",
"547 709 OFFCURVE",
"303 709 CURVE SMOOTH",
"303 709 OFFCURVE",
"35 712 OFFCURVE",
"35 468 CURVE",
"35 468 OFFCURVE",
"28 260 OFFCURVE",
"236 260 CURVE",
"236 260 OFFCURVE",
"222 238 OFFCURVE",
"179 188 CURVE",
"179 188 OFFCURVE",
"93 93 OFFCURVE",
"182 22 CURVE"
);
},
{
closed = 1;
nodes = (
"289 393 OFFCURVE",
"273 402 OFFCURVE",
"271 430 CURVE SMOOTH",
"269 451 OFFCURVE",
"288 472 OFFCURVE",
"311 472 CURVE SMOOTH",
"336 472 OFFCURVE",
"350 451 OFFCURVE",
"350 430 CURVE SMOOTH",
"350 407 OFFCURVE",
"333 393 OFFCURVE",
"311 393 CURVE SMOOTH"
);
}
);
width = 609;
}
);
unicode = 0039;
},
{
glyphname = onesuperior;
lastChange = "2019-01-03 22:09:30 +0000";
layers = (
{
layerId = master01;
paths = (
{
closed = 1;
nodes = (
"92 496 OFFCURVE",
"128 493 OFFCURVE",
"132 550 CURVE",
"132 550 OFFCURVE",
"144 673 OFFCURVE",
"107 701 CURVE",
"107 701 OFFCURVE",
"82 721 OFFCURVE",
"45 701 CURVE",
"45 701 OFFCURVE",
"-3 675 OFFCURVE",
"15 636 CURVE SMOOTH",
"28 607 OFFCURVE",
"63 636 OFFCURVE",
"63 636 CURVE SMOOTH",
"63 636 OFFCURVE",
"48 582 OFFCURVE",
"57 533 CURVE",
"57 533 OFFCURVE",
"63 496 OFFCURVE",
"92 496 CURVE"
);
}
);
width = 157;
},
{
associatedMasterId = master01;
layerId = "339E9377-3161-4522-861D-6E6267A5A314";
name = "Jan 4 19, 00:09";
paths = (
{
closed = 1;
nodes = (
"101 496 OFFCURVE",
"141 493 OFFCURVE",
"145 550 CURVE",
"145 550 OFFCURVE",
"158 673 OFFCURVE",
"118 701 CURVE",
"118 701 OFFCURVE",
"90 721 OFFCURVE",
"49 701 CURVE",
"49 701 OFFCURVE",
"-4 675 OFFCURVE",
"16 636 CURVE SMOOTH",
"31 607 OFFCURVE",
"69 636 OFFCURVE",
"69 636 CURVE SMOOTH",
"69 636 OFFCURVE",
"53 582 OFFCURVE",
"63 533 CURVE",
"63 533 OFFCURVE",
"69 496 OFFCURVE",
"101 496 CURVE"
);
}
);
width = 170;
}
);
unicode = 00B9;
},
{
glyphname = twosuperior;
lastChange = "2019-01-03 22:09:42 +0000";
layers = (
{
layerId = master01;
paths = (
{
closed = 1;
nodes = (
"83 493 OFFCURVE",
"163 487 OFFCURVE",
"164 531 CURVE SMOOTH",
"165 576 OFFCURVE",
"118 574 OFFCURVE",
"118 574 CURVE SMOOTH",
"118 574 OFFCURVE",
"166 631 OFFCURVE",
"140 686 CURVE",
"140 686 OFFCURVE",
"125 721 OFFCURVE",
"72 717 CURVE",
"72 717 OFFCURVE",
"13 710 OFFCURVE",
"14 667 CURVE",
"14 667 OFFCURVE",
"17 635 OFFCURVE",
"43 641 CURVE",
"43 641 OFFCURVE",
"62 650 OFFCURVE",
"72 635 CURVE SMOOTH",
"79 624 OFFCURVE",
"70 608 OFFCURVE",
"59 599 CURVE",
"37 578 OFFCURVE",
"14 566 OFFCURVE",
"19 530 CURVE",
"19 530 OFFCURVE",
"21 493 OFFCURVE",
"83 493 CURVE"
);
}
);
width = 180;
},
{
associatedMasterId = master01;
layerId = "9A9D629D-DD53-41AE-B184-8C1A47846727";
name = "Jan 4 19, 00:09";
paths = (
{
closed = 1;
nodes = (
"89 493 OFFCURVE",
"177 487 OFFCURVE",
"178 531 CURVE SMOOTH",
"180 576 OFFCURVE",
"128 574 OFFCURVE",
"128 574 CURVE SMOOTH",
"128 574 OFFCURVE",
"181 631 OFFCURVE",
"152 686 CURVE",
"152 686 OFFCURVE",
"136 721 OFFCURVE",
"77 717 CURVE",
"77 717 OFFCURVE",
"12 710 OFFCURVE",
"14 667 CURVE",
"14 667 OFFCURVE",
"17 635 OFFCURVE",
"45 641 CURVE",
"45 641 OFFCURVE",
"66 650 OFFCURVE",
"77 635 CURVE SMOOTH",
"85 624 OFFCURVE",
"75 608 OFFCURVE",
"63 599 CURVE",
"39 578 OFFCURVE",
"14 566 OFFCURVE",
"19 530 CURVE",
"19 530 OFFCURVE",
"21 493 OFFCURVE",
"89 493 CURVE"
);
}
);
width = 194;
}
);
unicode = 00B2;
},
{
glyphname = threesuperior;
lastChange = "2019-01-04 13:08:03 +0000";
layers = (
{
layerId = master01;
paths = (
{
closed = 1;
nodes = (
"157 504 OFFCURVE",
"196 524 OFFCURVE",
"189 580 CURVE",
"189 580 OFFCURVE",
"187 616 OFFCURVE",
"159 630 CURVE",
"159 630 OFFCURVE",
"181 657 OFFCURVE",
"167 687 CURVE SMOOTH",
"154 713 OFFCURVE",
"98 709 OFFCURVE",
"98 709 CURVE SMOOTH",
"98 709 OFFCURVE",
"43 708 OFFCURVE",
"42 672 CURVE",
"42 663 OFFCURVE",
"49 638 OFFCURVE",
"107 645 CURVE",
"107 645 OFFCURVE",
"107 643 OFFCURVE",
"107 642 CURVE",
"102 640 OFFCURVE",
"66 635 OFFCURVE",
"66 615 CURVE",
"66 615 OFFCURVE",
"63 586 OFFCURVE",
"98 586 CURVE",
"98 586 OFFCURVE",
"111 587 OFFCURVE",
"116 578 CURVE",
"116 578 OFFCURVE",
"121 568 OFFCURVE",
"113 560 CURVE",
"113 560 OFFCURVE",
"103 550 OFFCURVE",
"86 562 CURVE",
"86 562 OFFCURVE",
"62 579 OFFCURVE",
"47 562 CURVE",
"47 562 OFFCURVE",
"21 535 OFFCURVE",
"55 511 CURVE",
"55 511 OFFCURVE",
"102 479 OFFCURVE",
"157 504 CURVE"
);
}
);
width = 195;
},
{
associatedMasterId = master01;
layerId = "F289FC60-405B-4EF9-ACEA-829ED949BF8F";
name = "Jan 4 19, 00:09";
paths = (
{
closed = 1;
nodes = (
"168 504 OFFCURVE",
"211 524 OFFCURVE",
"204 580 CURVE",
"204 580 OFFCURVE",
"201 616 OFFCURVE",
"170 630 CURVE",
"170 630 OFFCURVE",
"195 657 OFFCURVE",
"179 687 CURVE SMOOTH",
"165 713 OFFCURVE",
"103 709 OFFCURVE",
"103 709 CURVE SMOOTH",
"103 709 OFFCURVE",
"43 708 OFFCURVE",
"42 672 CURVE",
"42 672 OFFCURVE",
"38 638 OFFCURVE",
"102 645 CURVE",
"102 645 OFFCURVE",
"68 638 OFFCURVE",
"68 615 CURVE",
"68 615 OFFCURVE",
"65 586 OFFCURVE",
"103 586 CURVE",
"103 586 OFFCURVE",
"118 587 OFFCURVE",
"123 578 CURVE",
"123 578 OFFCURVE",
"129 568 OFFCURVE",
"120 560 CURVE",
"120 560 OFFCURVE",
"109 550 OFFCURVE",
"90 562 CURVE",
"90 562 OFFCURVE",
"64 579 OFFCURVE",
"47 562 CURVE",
"47 562 OFFCURVE",
"19 535 OFFCURVE",
"56 511 CURVE",
"56 511 OFFCURVE",
"108 479 OFFCURVE",
"168 504 CURVE"
);
}
);
width = 210;
}
);
unicode = 00B3;
},
{
glyphname = fraction;
lastChange = "2019-01-03 22:10:47 +0000";
layers = (
{
layerId = master01;
paths = (
{
closed = 1;
nodes = (
"87 -25 OFFCURVE",
"142 -45 OFFCURVE",
"173 26 CURVE",
"173 26 OFFCURVE",
"326 402 OFFCURVE",
"366 678 CURVE SMOOTH",
"379 775 OFFCURVE",
"320 779 OFFCURVE",
"320 779 CURVE SMOOTH",
"320 779 OFFCURVE",
"252 805 OFFCURVE",
"218 717 CURVE SMOOTH",
"176 605 OFFCURVE",
"52 212 OFFCURVE",
"37 70 CURVE SMOOTH",
"29 -13 OFFCURVE",
"87 -25 OFFCURVE",
"87 -25 CURVE SMOOTH"
);
}
);
width = 396;
},
{
associatedMasterId = master01;
layerId = "D3E29895-1278-4B3E-BBDE-1C718B627C8D";
name = "Jan 4 19, 00:10";
paths = (
{
closed = 1;
nodes = (
"91 -25 OFFCURVE",
"152 -45 OFFCURVE",
"186 26 CURVE",
"186 26 OFFCURVE",
"354 402 OFFCURVE",
"398 678 CURVE SMOOTH",
"413 775 OFFCURVE",
"348 779 OFFCURVE",
"348 779 CURVE SMOOTH",
"348 779 OFFCURVE",
"273 805 OFFCURVE",
"236 717 CURVE SMOOTH",
"189 605 OFFCURVE",
"53 212 OFFCURVE",
"37 70 CURVE SMOOTH",
"28 -13 OFFCURVE",
"91 -25 OFFCURVE",
"91 -25 CURVE SMOOTH"
);
}
);
width = 428;
}
);
unicode = 2044;
},
{
glyphname = period;
lastChange = "2019-01-03 21:24:25 +0000";
layers = (
{
layerId = master01;
paths = (
{
closed = 1;
nodes = (
"239 -10 OFFCURVE",
"279 46 OFFCURVE",
"279 116 CURVE SMOOTH",
"279 185 OFFCURVE",
"239 242 OFFCURVE",
"164 242 CURVE SMOOTH",
"90 242 OFFCURVE",
"49 185 OFFCURVE",
"49 116 CURVE SMOOTH",
"49 46 OFFCURVE",
"90 -10 OFFCURVE",
"164 -10 CURVE SMOOTH"
);
}
);
width = 330;
},
{
associatedMasterId = master01;
layerId = "C0780078-7DA8-4ED7-9489-BA94EEE4AA26";
name = "Jan 3 19, 23:24";
paths = (
{
closed = 1;
nodes = (
"257 -10 OFFCURVE",
"301 46 OFFCURVE",
"301 116 CURVE SMOOTH",
"301 185 OFFCURVE",
"257 242 OFFCURVE",
"175 242 CURVE SMOOTH",
"94 242 OFFCURVE",
"49 185 OFFCURVE",
"49 116 CURVE SMOOTH",
"49 46 OFFCURVE",
"94 -10 OFFCURVE",
"175 -10 CURVE SMOOTH"
);
}
);
width = 352;
}
);
unicode = 002E;
},
{
glyphname = comma;
lastChange = "2019-01-03 21:24:40 +0000";
layers = (
{
layerId = master01;
paths = (
{
closed = 1;
nodes = (
"112 -103 OFFCURVE",
"261 -134 OFFCURVE",
"250 117 CURVE",
"247 183 OFFCURVE",
"208 236 OFFCURVE",
"135 236 CURVE SMOOTH",
"61 236 OFFCURVE",
"21 180 OFFCURVE",
"21 111 CURVE SMOOTH",
"21 44 OFFCURVE",
"58 -10 OFFCURVE",
"127 -15 CURVE",
"128 -28 OFFCURVE",
"130 -46 OFFCURVE",
"112 -46 CURVE SMOOTH",
"112 -46 OFFCURVE",
"95 -46 OFFCURVE",
"90 -65 CURVE",
"90 -65 OFFCURVE",
"79 -97 OFFCURVE",
"112 -103 CURVE"
);
}
);
width = 304;
},
{
associatedMasterId = master01;
layerId = "574975A8-4D5D-429B-B129-E62420B594B9";
name = "Jan 3 19, 23:24";
paths = (
{
closed = 1;
nodes = (
"121 -103 OFFCURVE",
"284 -134 OFFCURVE",
"272 117 CURVE",
"272 117 LINE",
"269 183 OFFCURVE",
"226 236 OFFCURVE",
"146 236 CURVE SMOOTH",
"65 236 OFFCURVE",
"21 180 OFFCURVE",
"21 111 CURVE SMOOTH",
"21 44 OFFCURVE",
"61 -10 OFFCURVE",
"137 -15 CURVE",
"138 -28 OFFCURVE",
"140 -46 OFFCURVE",
"121 -46 CURVE SMOOTH",
"121 -46 OFFCURVE",
"102 -46 OFFCURVE",
"96 -65 CURVE",
"96 -65 OFFCURVE",
"84 -97 OFFCURVE",
"121 -103 CURVE"
);
}
);
width = 326;
}
);
unicode = 002C;
},
{
glyphname = colon;
lastChange = "2019-01-03 21:24:52 +0000";
layers = (
{
layerId = master01;
paths = (
{
closed = 1;
nodes = (
"222 -18 OFFCURVE",
"258 31 OFFCURVE",
"258 94 CURVE SMOOTH",
"258 157 OFFCURVE",
"222 208 OFFCURVE",
"154 208 CURVE SMOOTH",
"90 208 OFFCURVE",
"52 157 OFFCURVE",
"52 94 CURVE SMOOTH",
"52 31 OFFCURVE",
"90 -18 OFFCURVE",
"154 -18 CURVE SMOOTH"
);
},
{
closed = 1;
nodes = (
"222 296 OFFCURVE",
"258 345 OFFCURVE",
"258 408 CURVE SMOOTH",
"258 470 OFFCURVE",
"222 521 OFFCURVE",
"154 521 CURVE SMOOTH",
"90 521 OFFCURVE",
"52 470 OFFCURVE",
"52 408 CURVE SMOOTH",
"52 345 OFFCURVE",
"90 296 OFFCURVE",
"154 296 CURVE SMOOTH"
);
}
);
width = 319;
},
{
associatedMasterId = master01;
layerId = "79BF6CC2-CFC4-4D62-8017-EE302A4877F2";
name = "Jan 3 19, 23:24";
paths = (
{
closed = 1;
nodes = (
"239 -18 OFFCURVE",
"278 31 OFFCURVE",
"278 94 CURVE SMOOTH",
"278 157 OFFCURVE",
"239 208 OFFCURVE",
"164 208 CURVE SMOOTH",
"93 208 OFFCURVE",
"52 157 OFFCURVE",
"52 94 CURVE SMOOTH",
"52 31 OFFCURVE",
"93 -18 OFFCURVE",
"164 -18 CURVE SMOOTH"
);
},
{
closed = 1;
nodes = (
"239 296 OFFCURVE",
"278 345 OFFCURVE",
"278 408 CURVE SMOOTH",
"278 470 OFFCURVE",
"239 521 OFFCURVE",
"164 521 CURVE SMOOTH",
"93 521 OFFCURVE",
"52 470 OFFCURVE",
"52 408 CURVE SMOOTH",
"52 345 OFFCURVE",
"93 296 OFFCURVE",
"164 296 CURVE SMOOTH"
);
}
);
width = 339;
}
);
unicode = 003A;
},
{
glyphname = semicolon;
lastChange = "2019-01-03 21:25:09 +0000";
layers = (
{
layerId = master01;
paths = (
{
closed = 1;
nodes = (
"130 -94 OFFCURVE",
"259 -122 OFFCURVE",
"249 97 CURVE SMOOTH",
"247 154 OFFCURVE",
"213 201 OFFCURVE",
"150 201 CURVE SMOOTH",
"85 201 OFFCURVE",
"50 153 OFFCURVE",
"50 92 CURVE SMOOTH",
"50 33 OFFCURVE",
"82 -13 OFFCURVE",
"142 -18 CURVE",
"143 -30 OFFCURVE",
"145 -46 OFFCURVE",
"130 -46 CURVE SMOOTH",
"130 -46 OFFCURVE",
"115 -46 OFFCURVE",
"110 -62 CURVE",
"110 -62 OFFCURVE",
"100 -90 OFFCURVE",
"130 -94 CURVE"
);
},
{
closed = 1;
nodes = (
"218 288 OFFCURVE",
"253 336 OFFCURVE",
"253 399 CURVE SMOOTH",
"253 459 OFFCURVE",
"218 510 OFFCURVE",
"152 510 CURVE SMOOTH",
"88 510 OFFCURVE",
"52 459 OFFCURVE",
"52 399 CURVE SMOOTH",
"52 336 OFFCURVE",
"88 288 OFFCURVE",
"152 288 CURVE SMOOTH"
);
}
);
width = 317;
},
{
associatedMasterId = master01;
layerId = "815B501C-7F7E-41A9-8E7C-BD16EACC2C79";
name = "Jan 3 19, 23:24";
paths = (
{
closed = 1;
nodes = (
"138 -94 OFFCURVE",
"280 -122 OFFCURVE",
"269 97 CURVE SMOOTH",
"266 154 OFFCURVE",
"229 201 OFFCURVE",
"160 201 CURVE SMOOTH",
"88 201 OFFCURVE",
"50 153 OFFCURVE",
"50 92 CURVE SMOOTH",
"50 33 OFFCURVE",
"85 -13 OFFCURVE",
"151 -18 CURVE",
"152 -30 OFFCURVE",
"154 -46 OFFCURVE",
"138 -46 CURVE SMOOTH",
"138 -46 OFFCURVE",
"121 -46 OFFCURVE",
"116 -62 CURVE",
"116 -62 OFFCURVE",
"105 -90 OFFCURVE",
"138 -94 CURVE"
);
},
{
closed = 1;
nodes = (
"235 288 OFFCURVE",
"273 336 OFFCURVE",
"273 399 CURVE SMOOTH",
"273 459 OFFCURVE",
"235 510 OFFCURVE",
"162 510 CURVE SMOOTH",
"92 510 OFFCURVE",
"52 459 OFFCURVE",
"52 399 CURVE SMOOTH",
"52 336 OFFCURVE",
"92 288 OFFCURVE",
"162 288 CURVE SMOOTH"
);
}
);
width = 337;
}
);
unicode = 003B;
},
{
glyphname = exclam;
lastChange = "2019-01-03 21:25:23 +0000";
layers = (
{
layerId = master01;
paths = (
{
closed = 1;
nodes = (
"323 248 OFFCURVE",
"354 371 OFFCURVE",
"354 371 CURVE SMOOTH",
"354 371 OFFCURVE",
"382 486 OFFCURVE",
"354 615 CURVE SMOOTH",
"324 751 OFFCURVE",
"209 754 OFFCURVE",
"209 754 CURVE SMOOTH",
"67 754 OFFCURVE",
"57 594 OFFCURVE",
"57 594 CURVE SMOOTH",
"57 594 OFFCURVE",
"46 476 OFFCURVE",
"62 408 CURVE",
"62 408 OFFCURVE",
"81 248 OFFCURVE",
"209 248 CURVE SMOOTH"
);
},
{
closed = 1;
nodes = (
"274 -31 OFFCURVE",
"326 17 OFFCURVE",
"326 77 CURVE SMOOTH",
"326 137 OFFCURVE",
"274 185 OFFCURVE",
"208 185 CURVE SMOOTH",
"144 185 OFFCURVE",
"91 137 OFFCURVE",
"91 77 CURVE SMOOTH",
"91 17 OFFCURVE",
"144 -31 OFFCURVE",
"208 -31 CURVE SMOOTH"
);
}
);
width = 415;
},
{
associatedMasterId = master01;
layerId = "92372008-0B11-4837-AFD7-72F058B2FB4E";
name = "Jan 3 19, 23:25";
paths = (
{
closed = 1;
nodes = (
"349 248 OFFCURVE",
"383 371 OFFCURVE",
"383 371 CURVE SMOOTH",
"383 371 OFFCURVE",
"414 486 OFFCURVE",
"383 615 CURVE SMOOTH",
"350 751 OFFCURVE",
"224 754 OFFCURVE",
"224 754 CURVE SMOOTH",
"68 754 OFFCURVE",
"57 594 OFFCURVE",
"57 594 CURVE SMOOTH",
"57 594 OFFCURVE",
"45 476 OFFCURVE",
"62 408 CURVE",
"62 408 OFFCURVE",
"83 248 OFFCURVE",
"224 248 CURVE SMOOTH"
);
},
{
closed = 1;
nodes = (
"295 -31 OFFCURVE",
"353 17 OFFCURVE",
"353 77 CURVE SMOOTH",
"353 137 OFFCURVE",
"295 185 OFFCURVE",
"223 185 CURVE SMOOTH",
"152 185 OFFCURVE",
"94 137 OFFCURVE",
"94 77 CURVE SMOOTH",
"94 17 OFFCURVE",
"152 -31 OFFCURVE",
"223 -31 CURVE SMOOTH"
);
}
);
width = 446;
}
);
unicode = 0021;
},
{
glyphname = question;
lastChange = "2019-01-03 21:26:08 +0000";
layers = (
{
layerId = master01;
paths = (
{
closed = 1;
nodes = (
"412 145 OFFCURVE",
"483 290 OFFCURVE",
"483 290 CURVE",
"520 352 OFFCURVE",
"595 594 OFFCURVE",
"458 691 CURVE SMOOTH",
"260 831 OFFCURVE",
"123 683 OFFCURVE",
"123 683 CURVE",
"-12 529 OFFCURVE",
"110 421 OFFCURVE",
"110 421 CURVE",
"197 341 OFFCURVE",
"296 454 OFFCURVE",
"296 454 CURVE SMOOTH",
"296 454 OFFCURVE",
"201 291 OFFCURVE",
"283 234 CURVE SMOOTH"
);
},
{
closed = 1;
nodes = (
"419 -48 OFFCURVE",
"469 -8 OFFCURVE",
"469 61 CURVE SMOOTH",
"469 129 OFFCURVE",
"419 175 OFFCURVE",
"349 175 CURVE SMOOTH",
"279 175 OFFCURVE",
"233 134 OFFCURVE",
"233 63 CURVE SMOOTH",
"233 2 OFFCURVE",
"279 -48 OFFCURVE",
"349 -48 CURVE SMOOTH"
);
}
);
width = 599;
},
{
associatedMasterId = master01;
layerId = "489FF753-977D-474A-BD26-A093F27CC75D";
name = "Jan 3 19, 23:25";
paths = (
{
closed = 1;
nodes = (
"446 145 OFFCURVE",
"525 290 OFFCURVE",
"525 290 CURVE",
"565 352 OFFCURVE",
"648 594 OFFCURVE",
"497 691 CURVE SMOOTH",
"279 831 OFFCURVE",
"129 683 OFFCURVE",
"129 683 CURVE",
"-20 529 OFFCURVE",
"114 421 OFFCURVE",
"114 421 CURVE",
"210 341 OFFCURVE",
"319 454 OFFCURVE",
"319 454 CURVE SMOOTH",
"319 454 OFFCURVE",
"214 291 OFFCURVE",
"305 234 CURVE SMOOTH"
);
},
{
closed = 1;
nodes = (
"454 -48 OFFCURVE",
"509 -8 OFFCURVE",
"509 61 CURVE SMOOTH",
"509 129 OFFCURVE",
"454 175 OFFCURVE",
"377 175 CURVE SMOOTH",
"300 175 OFFCURVE",
"250 134 OFFCURVE",
"250 63 CURVE SMOOTH",
"250 2 OFFCURVE",
"300 -48 OFFCURVE",
"377 -48 CURVE SMOOTH"
);
}
);
width = 646;
}
);
unicode = 003F;
},
{
glyphname = bullet;
lastChange = "2019-01-03 21:26:47 +0000";
layers = (
{
layerId = master01;
paths = (
{
closed = 1;
nodes = (
"376 124 OFFCURVE",
"440 214 OFFCURVE",
"440 327 CURVE SMOOTH",
"440 438 OFFCURVE",
"376 530 OFFCURVE",
"255 530 CURVE SMOOTH",
"136 530 OFFCURVE",
"70 438 OFFCURVE",
"70 327 CURVE SMOOTH",
"70 214 OFFCURVE",
"136 124 OFFCURVE",
"255 124 CURVE SMOOTH"
);
}
);
width = 505;
}
);
unicode = 2022;
},
{
glyphname = asterisk;
lastChange = "2019-01-03 21:27:02 +0000";
layers = (
{
layerId = master01;
paths = (
{
closed = 1;
nodes = (
"464 319 OFFCURVE",
"392 409 OFFCURVE",
"392 409 CURVE SMOOTH",
"392 409 OFFCURVE",
"503 377 OFFCURVE",
"503 498 CURVE SMOOTH",
"503 620 OFFCURVE",
"373 576 OFFCURVE",
"373 576 CURVE",
"413 709 OFFCURVE",
"302 709 OFFCURVE",
"302 709 CURVE SMOOTH",
"203 709 OFFCURVE",
"228 590 OFFCURVE",
"228 590 CURVE SMOOTH",
"228 590 OFFCURVE",
"134 670 OFFCURVE",
"81 576 CURVE SMOOTH",
"31 487 OFFCURVE",
"151 443 OFFCURVE",
"151 443 CURVE",
"71 377 OFFCURVE",
"131 310 OFFCURVE",
"131 310 CURVE",
"212 232 OFFCURVE",
"261 336 OFFCURVE",
"261 336 CURVE SMOOTH",
"261 336 OFFCURVE",
"300 212 OFFCURVE",
"383 266 CURVE SMOOTH"
);
}
);
width = 581;
},
{
associatedMasterId = master01;
layerId = "B946CF54-8600-45DC-A130-1BC52AB5EDE0";
name = "Jan 3 19, 23:26";
paths = (
{
closed = 1;
nodes = (
"504 319 OFFCURVE",
"425 409 OFFCURVE",
"425 409 CURVE SMOOTH",
"425 409 OFFCURVE",
"547 377 OFFCURVE",
"547 498 CURVE SMOOTH",
"547 620 OFFCURVE",
"404 576 OFFCURVE",
"404 576 CURVE",
"448 709 OFFCURVE",
"326 709 OFFCURVE",
"326 709 CURVE SMOOTH",
"217 709 OFFCURVE",
"244 590 OFFCURVE",
"244 590 CURVE SMOOTH",
"244 590 OFFCURVE",
"141 670 OFFCURVE",
"82 576 CURVE SMOOTH",
"27 487 OFFCURVE",
"160 443 OFFCURVE",
"160 443 CURVE",
"71 377 OFFCURVE",
"138 310 OFFCURVE",
"138 310 CURVE",
"227 232 OFFCURVE",
"281 336 OFFCURVE",
"281 336 CURVE SMOOTH",
"281 336 OFFCURVE",
"323 212 OFFCURVE",
"415 266 CURVE SMOOTH"
);
}
);
width = 625;
}
);
unicode = 002A;
},
{
glyphname = numbersign;
lastChange = "2019-01-03 21:27:15 +0000";
layers = (
{
layerId = master01;
paths = (
{
closed = 1;
nodes = (
"196 44 OFFCURVE",
"255 37 OFFCURVE",
"272 108 CURVE",
"272 108 OFFCURVE",
"277 130 OFFCURVE",
"285 168 CURVE",
"309 167 OFFCURVE",
"335 167 OFFCURVE",
"360 167 CURVE",
"359 151 OFFCURVE",
"359 136 OFFCURVE",
"360 123 CURVE",
"361 53 OFFCURVE",
"418 44 OFFCURVE",
"418 44 CURVE SMOOTH",
"418 44 OFFCURVE",
"477 37 OFFCURVE",
"494 108 CURVE",
"494 108 OFFCURVE",
"500 132 OFFCURVE",
"509 171 CURVE",
"525 172 OFFCURVE",
"541 174 OFFCURVE",
"556 175 CURVE SMOOTH",
"628 182 OFFCURVE",
"617 253 OFFCURVE",
"617 253 CURVE SMOOTH",
"617 253 OFFCURVE",
"622 317 OFFCURVE",
"552 328 CURVE",
"548 328 OFFCURVE",
"545 329 OFFCURVE",
"540 330 CURVE",
"544 346 OFFCURVE",
"546 363 OFFCURVE",
"549 380 CURVE",
"566 381 OFFCURVE",
"583 382 OFFCURVE",
"600 384 CURVE SMOOTH",
"672 391 OFFCURVE",
"661 462 OFFCURVE",
"661 462 CURVE SMOOTH",
"661 462 OFFCURVE",
"665 525 OFFCURVE",
"595 537 CURVE",
"587 538 OFFCURVE",
"579 539 OFFCURVE",
"571 540 CURVE",
"573 557 OFFCURVE",
"575 574 OFFCURVE",
"575 591 CURVE SMOOTH",
"582 670 OFFCURVE",
"516 671 OFFCURVE",
"516 671 CURVE SMOOTH",
"516 671 OFFCURVE",
"461 687 OFFCURVE",
"438 613 CURVE SMOOTH",
"432 594 OFFCURVE",
"426 573 OFFCURVE",
"421 552 CURVE",
"397 552 OFFCURVE",
"374 553 OFFCURVE",
"350 553 CURVE",
"351 565 OFFCURVE",
"353 578 OFFCURVE",
"354 591 CURVE SMOOTH",
"360 670 OFFCURVE",
"295 671 OFFCURVE",
"295 671 CURVE SMOOTH",
"295 671 OFFCURVE",
"238 687 OFFCURVE",
"216 613 CURVE",
"209 591 OFFCURVE",
"203 568 OFFCURVE",
"197 544 CURVE",
"176 541 OFFCURVE",
"158 538 OFFCURVE",
"143 535 CURVE SMOOTH",
"80 521 OFFCURVE",
"83 457 OFFCURVE",
"83 457 CURVE SMOOTH",
"83 457 OFFCURVE",
"86 392 OFFCURVE",
"153 387 CURVE",
"153 387 OFFCURVE",
"157 386 OFFCURVE",
"165 386 CURVE",
"161 369 OFFCURVE",
"158 352 OFFCURVE",
"156 335 CURVE",
"135 333 OFFCURVE",
"115 330 OFFCURVE",
"100 326 CURVE SMOOTH",
"36 312 OFFCURVE",
"39 248 OFFCURVE",
"39 248 CURVE SMOOTH",
"39 248 OFFCURVE",
"44 183 OFFCURVE",
"110 178 CURVE",
"110 178 OFFCURVE",
"120 177 OFFCURVE",
"138 175 CURVE",
"137 156 OFFCURVE",
"137 138 OFFCURVE",
"137 123 CURVE SMOOTH",
"139 53 OFFCURVE",
"196 44 OFFCURVE",
"196 44 CURVE SMOOTH"
);
},
{
closed = 1;
nodes = (
"360 343 OFFCURVE",
"340 344 OFFCURVE",
"321 344 CURVE",
"323 354 OFFCURVE",
"325 365 OFFCURVE",
"326 377 CURVE",
"345 376 OFFCURVE",
"365 376 OFFCURVE",
"385 375 CURVE",
"383 365 OFFCURVE",
"381 354 OFFCURVE",
"379 343 CURVE"
);
}
);
width = 697;
},
{
associatedMasterId = master01;
layerId = "A5CE842A-762B-42C7-A1C2-EA74691E4672";
name = "Jan 3 19, 23:27";
paths = (
{
closed = 1;
nodes = (
"212 44 OFFCURVE",
"277 37 OFFCURVE",
"295 108 CURVE",
"295 108 OFFCURVE",
"301 130 OFFCURVE",
"310 168 CURVE",
"336 167 OFFCURVE",
"364 167 OFFCURVE",
"392 167 CURVE",
"391 151 OFFCURVE",
"391 136 OFFCURVE",
"392 123 CURVE",
"393 53 OFFCURVE",
"456 44 OFFCURVE",
"456 44 CURVE SMOOTH",
"456 44 OFFCURVE",
"521 37 OFFCURVE",
"539 108 CURVE",
"539 108 OFFCURVE",
"546 132 OFFCURVE",
"556 171 CURVE",
"573 172 OFFCURVE",
"591 174 OFFCURVE",
"608 175 CURVE SMOOTH",
"687 182 OFFCURVE",
"675 253 OFFCURVE",
"675 253 CURVE SMOOTH",
"675 253 OFFCURVE",
"680 317 OFFCURVE",
"603 328 CURVE",
"599 328 OFFCURVE",
"595 329 OFFCURVE",
"590 330 CURVE",
"594 346 OFFCURVE",
"597 363 OFFCURVE",
"600 380 CURVE",
"619 381 OFFCURVE",
"637 382 OFFCURVE",
"656 384 CURVE SMOOTH",
"735 391 OFFCURVE",
"723 462 OFFCURVE",
"723 462 CURVE SMOOTH",
"723 462 OFFCURVE",
"728 525 OFFCURVE",
"651 537 CURVE",
"642 538 OFFCURVE",
"633 539 OFFCURVE",
"624 540 CURVE",
"626 557 OFFCURVE",
"628 574 OFFCURVE",
"629 591 CURVE SMOOTH",
"636 670 OFFCURVE",
"564 671 OFFCURVE",
"564 671 CURVE SMOOTH",
"564 671 OFFCURVE",
"503 687 OFFCURVE",
"478 613 CURVE SMOOTH",
"471 594 OFFCURVE",
"465 573 OFFCURVE",
"459 552 CURVE",
"433 552 OFFCURVE",
"407 553 OFFCURVE",
"381 553 CURVE",
"382 565 OFFCURVE",
"384 578 OFFCURVE",
"385 591 CURVE SMOOTH",
"392 670 OFFCURVE",
"320 671 OFFCURVE",
"320 671 CURVE SMOOTH",
"320 671 OFFCURVE",
"258 687 OFFCURVE",
"234 613 CURVE",
"226 591 OFFCURVE",
"219 568 OFFCURVE",
"213 544 CURVE",
"190 541 OFFCURVE",
"170 538 OFFCURVE",
"153 535 CURVE SMOOTH",
"84 521 OFFCURVE",
"87 457 OFFCURVE",
"87 457 CURVE SMOOTH",
"87 457 OFFCURVE",
"91 392 OFFCURVE",
"164 387 CURVE",
"164 387 OFFCURVE",
"169 386 OFFCURVE",
"177 386 CURVE",
"173 369 OFFCURVE",
"170 352 OFFCURVE",
"168 335 CURVE",
"144 333 OFFCURVE",
"123 330 OFFCURVE",
"106 326 CURVE SMOOTH",
"36 312 OFFCURVE",
"39 248 OFFCURVE",
"39 248 CURVE SMOOTH",
"39 248 OFFCURVE",
"44 183 OFFCURVE",
"117 178 CURVE",
"117 178 OFFCURVE",
"128 177 OFFCURVE",
"148 175 CURVE",
"147 156 OFFCURVE",
"147 138 OFFCURVE",
"147 123 CURVE SMOOTH",
"149 53 OFFCURVE",
"212 44 OFFCURVE",
"212 44 CURVE SMOOTH"
);
},
{
closed = 1;
nodes = (
"392 343 OFFCURVE",
"370 344 OFFCURVE",
"349 344 CURVE",
"351 354 OFFCURVE",
"353 365 OFFCURVE",
"355 377 CURVE",
"375 376 OFFCURVE",
"397 376 OFFCURVE",
"419 375 CURVE",
"417 365 OFFCURVE",
"415 354 OFFCURVE",
"413 343 CURVE"
);
}
);
width = 759;
}
);
unicode = 0023;
},
{
glyphname = slash;
lastChange = "2019-01-03 21:27:29 +0000";
layers = (
{
layerId = master01;
paths = (
{
closed = 1;
nodes = (
"88 -35 OFFCURVE",
"143 -55 OFFCURVE",
"174 16 CURVE",
"174 16 OFFCURVE",
"327 392 OFFCURVE",
"367 668 CURVE SMOOTH",
"380 765 OFFCURVE",
"321 769 OFFCURVE",
"321 769 CURVE SMOOTH",
"321 769 OFFCURVE",
"253 795 OFFCURVE",
"219 707 CURVE SMOOTH",
"177 595 OFFCURVE",
"53 202 OFFCURVE",
"38 60 CURVE SMOOTH",
"30 -23 OFFCURVE",
"88 -35 OFFCURVE",
"88 -35 CURVE SMOOTH"
);
}
);
width = 397;
},
{
associatedMasterId = master01;
layerId = "AE1043CE-2D18-43BA-872C-E8B5EE7872EE";
name = "Jan 3 19, 23:27";
paths = (
{
closed = 1;
nodes = (
"92 -35 OFFCURVE",
"153 -55 OFFCURVE",
"187 16 CURVE",
"187 16 OFFCURVE",
"355 392 OFFCURVE",
"399 668 CURVE SMOOTH",
"414 765 OFFCURVE",
"349 769 OFFCURVE",
"349 769 CURVE SMOOTH",
"349 769 OFFCURVE",
"274 795 OFFCURVE",
"237 707 CURVE SMOOTH",
"190 595 OFFCURVE",
"54 202 OFFCURVE",
"38 60 CURVE SMOOTH",
"29 -23 OFFCURVE",
"92 -35 OFFCURVE",
"92 -35 CURVE SMOOTH"
);
}
);
width = 429;
}
);
unicode = 002F;
},
{
glyphname = parenleft;
lastChange = "2019-01-03 21:27:59 +0000";
layers = (
{
layerId = master01;
paths = (
{
closed = 1;
nodes = (
"399 -22 OFFCURVE",
"361 71 OFFCURVE",
"361 71 CURVE SMOOTH",
"361 71 OFFCURVE",
"243 330 OFFCURVE",
"349 660 CURVE",
"349 660 OFFCURVE",
"385 761 OFFCURVE",
"297 804 CURVE SMOOTH",
"224 839 OFFCURVE",
"169 804 OFFCURVE",
"136 746 CURVE",
"136 746 OFFCURVE",
"-56 428 OFFCURVE",
"102 64 CURVE SMOOTH",
"130 -1 OFFCURVE",
"207 -107 OFFCURVE",
"302 -65 CURVE SMOOTH"
);
}
);
width = 410;
},
{
associatedMasterId = master01;
layerId = "C7585524-8EC8-448C-911C-B74E065D0367";
name = "Jan 3 19, 23:27";
paths = (
{
closed = 1;
nodes = (
"436 -22 OFFCURVE",
"394 71 OFFCURVE",
"394 71 CURVE SMOOTH",
"394 71 OFFCURVE",
"264 330 OFFCURVE",
"381 660 CURVE",
"381 660 OFFCURVE",
"420 761 OFFCURVE",
"323 804 CURVE SMOOTH",
"243 839 OFFCURVE",
"182 804 OFFCURVE",
"146 746 CURVE",
"146 746 OFFCURVE",
"-65 428 OFFCURVE",
"109 64 CURVE SMOOTH",
"140 -1 OFFCURVE",
"224 -107 OFFCURVE",
"329 -65 CURVE SMOOTH"
);
}
);
width = 444;
}
);
unicode = 0028;
},
{
glyphname = parenright;
lastChange = "2019-01-03 21:28:31 +0000";
layers = (
{
components = (
{
name = parenleft;
transform = "{-1, 0, 0, 1, 412, 0}";
}
);
layerId = master01;
width = 413;
},
{
associatedMasterId = master01;
layerId = "BB9EE353-5B89-4EA2-8F73-847185AE16FF";
name = "Jan 3 19, 23:28";
paths = (
{
closed = 1;
nodes = (
"203 -96 OFFCURVE",
"264 -61 OFFCURVE",
"300 -3 CURVE",
"300 -3 OFFCURVE",
"511 315 OFFCURVE",
"337 679 CURVE SMOOTH",
"306 744 OFFCURVE",
"222 850 OFFCURVE",
"117 808 CURVE SMOOTH",
"10 765 OFFCURVE",
"52 672 OFFCURVE",
"52 672 CURVE SMOOTH",
"52 672 OFFCURVE",
"182 413 OFFCURVE",
"65 83 CURVE",
"65 83 OFFCURVE",
"26 -18 OFFCURVE",
"123 -61 CURVE SMOOTH"
);
}
);
width = 447;
}
);
unicode = 0029;
},
{
glyphname = braceleft;
lastChange = "2019-01-03 21:29:01 +0000";
layers = (
{
layerId = master01;
paths = (
{
closed = 1;
nodes = (
"349 -89 OFFCURVE",
"430 -79 OFFCURVE",
"443 -29 CURVE",
"443 -29 OFFCURVE",
"469 43 OFFCURVE",
"403 58 CURVE",
"403 58 OFFCURVE",
"338 72 OFFCURVE",
"391 195 CURVE SMOOTH",
"427 280 OFFCURVE",
"367 333 OFFCURVE",
"352 344 CURVE",
"367 355 OFFCURVE",
"427 407 OFFCURVE",
"391 493 CURVE SMOOTH",
"338 615 OFFCURVE",
"403 630 OFFCURVE",
"403 630 CURVE",
"469 644 OFFCURVE",
"443 716 OFFCURVE",
"443 716 CURVE",
"430 766 OFFCURVE",
"349 777 OFFCURVE",
"349 777 CURVE",
"252 786 OFFCURVE",
"220 732 OFFCURVE",
"220 732 CURVE",
"171 663 OFFCURVE",
"212 560 OFFCURVE",
"212 560 CURVE SMOOTH",
"212 560 OFFCURVE",
"247 471 OFFCURVE",
"190 460 CURVE",
"190 460 OFFCURVE",
"108 458 OFFCURVE",
"106 346 CURVE",
"106 345 OFFCURVE",
"106 344 OFFCURVE",
"106 344 CURVE",
"106 342 LINE",
"108 230 OFFCURVE",
"190 227 OFFCURVE",
"190 227 CURVE",
"247 216 OFFCURVE",
"212 127 OFFCURVE",
"212 127 CURVE SMOOTH",
"212 127 OFFCURVE",
"171 25 OFFCURVE",
"220 -45 CURVE",
"220 -45 OFFCURVE",
"252 -98 OFFCURVE",
"349 -89 CURVE"
);
}
);
width = 534;
},
{
associatedMasterId = master01;
layerId = "9F221484-187A-4A9E-8990-8FE1A8470A82";
name = "Jan 3 19, 23:28";
paths = (
{
closed = 1;
nodes = (
"373 -89 OFFCURVE",
"462 -79 OFFCURVE",
"477 -29 CURVE",
"477 -29 OFFCURVE",
"505 43 OFFCURVE",
"433 58 CURVE",
"433 58 OFFCURVE",
"361 72 OFFCURVE",
"419 195 CURVE SMOOTH",
"459 280 OFFCURVE",
"393 333 OFFCURVE",
"377 344 CURVE",
"393 355 OFFCURVE",
"459 407 OFFCURVE",
"419 493 CURVE SMOOTH",
"361 615 OFFCURVE",
"433 630 OFFCURVE",
"433 630 CURVE",
"505 644 OFFCURVE",
"477 716 OFFCURVE",
"477 716 CURVE",
"462 766 OFFCURVE",
"373 777 OFFCURVE",
"373 777 CURVE",
"266 786 OFFCURVE",
"231 732 OFFCURVE",
"231 732 CURVE",
"177 663 OFFCURVE",
"223 560 OFFCURVE",
"223 560 CURVE SMOOTH",
"223 560 OFFCURVE",
"261 471 OFFCURVE",
"198 460 CURVE",
"198 460 OFFCURVE",
"108 458 OFFCURVE",
"106 346 CURVE",
"106 346 LINE",
"106 345 OFFCURVE",
"106 344 OFFCURVE",
"106 344 CURVE",
"106 343 OFFCURVE",
"106 342 OFFCURVE",
"106 342 CURVE SMOOTH",
"106 342 LINE",
"108 230 OFFCURVE",
"198 227 OFFCURVE",
"198 227 CURVE",
"261 216 OFFCURVE",
"223 127 OFFCURVE",
"223 127 CURVE SMOOTH",
"223 127 OFFCURVE",
"177 25 OFFCURVE",
"231 -45 CURVE",
"231 -45 OFFCURVE",
"266 -98 OFFCURVE",
"373 -89 CURVE"
);
}
);
width = 568;
}
);
unicode = 007B;
},
{
glyphname = braceright;
lastChange = "2019-01-03 21:29:22 +0000";
layers = (
{
components = (
{
name = braceleft;
transform = "{-1, 0, 0, 1, 522, 0}";
}
);
layerId = master01;
width = 482;
},
{
associatedMasterId = master01;
layerId = "92B74BE3-2D47-4108-ADB8-B4A95F7DA9B4";
name = "Jan 3 19, 23:29";
paths = (
{
closed = 1;
nodes = (
"290 -90 OFFCURVE",
"326 -36 OFFCURVE",
"326 -36 CURVE",
"379 33 OFFCURVE",
"333 136 OFFCURVE",
"333 136 CURVE SMOOTH",
"333 136 OFFCURVE",
"296 225 OFFCURVE",
"358 236 CURVE",
"358 236 OFFCURVE",
"449 239 OFFCURVE",
"451 350 CURVE",
"451 350 LINE",
"451 351 OFFCURVE",
"451 352 OFFCURVE",
"451 352 CURVE",
"451 353 OFFCURVE",
"451 354 OFFCURVE",
"451 354 CURVE SMOOTH",
"451 354 LINE",
"449 466 OFFCURVE",
"358 469 OFFCURVE",
"358 469 CURVE",
"296 480 OFFCURVE",
"333 569 OFFCURVE",
"333 569 CURVE SMOOTH",
"333 569 OFFCURVE",
"379 672 OFFCURVE",
"326 741 CURVE",
"326 741 OFFCURVE",
"290 794 OFFCURVE",
"183 786 CURVE",
"183 786 OFFCURVE",
"94 775 OFFCURVE",
"80 725 CURVE",
"80 725 OFFCURVE",
"51 653 OFFCURVE",
"123 638 CURVE",
"123 638 OFFCURVE",
"195 624 OFFCURVE",
"137 501 CURVE SMOOTH",
"97 416 OFFCURVE",
"164 363 OFFCURVE",
"180 352 CURVE",
"164 341 OFFCURVE",
"97 289 OFFCURVE",
"137 203 CURVE SMOOTH",
"195 81 OFFCURVE",
"123 67 OFFCURVE",
"123 67 CURVE",
"51 52 OFFCURVE",
"80 -20 OFFCURVE",
"80 -20 CURVE",
"94 -70 OFFCURVE",
"183 -81 OFFCURVE",
"183 -81 CURVE"
);
}
);
width = 517;
}
);
unicode = 007D;
},
